<?xml version="1.0" encoding="UTF-8"?>
<svg id="Layer_2" data-name="Layer 2" xmlns="http://www.w3.org/2000/svg" viewBox="0 0 712.29 83.61">
  <defs>
    <style>
      .cls-1 {
        fill: #fff;
      }
    </style>
  </defs>
  <g id="Layer_1-2" data-name="Layer 1">
    <g>
      <path class="cls-1" d="M26.79,4.3c3.82-2.87,8.44-4.3,13.86-4.3h86c5.41,0,9.08,1.43,10.99,4.3s1.95,7.01.12,12.42l-3.23,9.56h-47.78l1.67-4.78c.48-1.59.46-2.79-.06-3.58-.52-.79-1.57-1.19-3.17-1.19h-14.33c-1.51,0-2.83.42-3.94,1.25-1.12.84-1.91,2.01-2.39,3.52l-2.51,7.17c-.48,1.59-.44,2.79.12,3.58.56.8,1.59,1.19,3.11,1.19h50.17c5.41,0,9.08,1.43,10.99,4.3s1.95,7.01.12,12.42l-5.73,16.72c-1.83,5.42-4.66,9.56-8.48,12.42-3.82,2.87-8.44,4.3-13.86,4.3H12.45c-5.42,0-9.08-1.43-10.99-4.3-1.91-2.87-1.95-7.01-.12-12.42l3.23-9.56h47.78l-1.67,4.78c-.48,1.59-.44,2.79.12,3.58.56.8,1.59,1.19,3.11,1.19h14.33c1.59,0,2.93-.42,4-1.25,1.08-.84,1.85-2.01,2.33-3.52l2.51-7.17c.48-1.59.46-2.79-.06-3.58-.52-.79-1.53-1.19-3.05-1.19H23.8c-5.42,0-9.08-1.43-10.99-4.3-1.91-2.87-1.95-7.01-.12-12.42l5.61-16.72c1.83-5.41,4.66-9.56,8.48-12.42Z"/>
      <polygon class="cls-1" points="227.1 46.7 237.02 83.61 188.04 83.61 180.15 53.89 170.13 83.61 122.35 83.61 150.54 0 198.31 0 183.91 42.71 209.78 19.11 258.04 19.11 227.1 46.7"/>
      <path class="cls-1" d="M316.09,19.11l-21.74,64.5h-47.78l21.74-64.5h47.78ZM322.42,0l-4.78,14.33h-47.78l4.78-14.33h47.78Z"/>
      <path class="cls-1" d="M334.96,4.3c3.82-2.87,8.44-4.3,13.86-4.3h86c5.42,0,9.08,1.43,10.99,4.3s1.95,7.01.12,12.42l-3.23,9.56h-47.78l1.67-4.78c.48-1.59.46-2.79-.06-3.58-.52-.79-1.57-1.19-3.17-1.19h-14.33c-1.51,0-2.83.42-3.94,1.25-1.12.84-1.91,2.01-2.39,3.52l-2.51,7.17c-.48,1.59-.44,2.79.12,3.58.56.8,1.59,1.19,3.11,1.19h50.17c5.41,0,9.08,1.43,10.99,4.3s1.95,7.01.12,12.42l-5.73,16.72c-1.83,5.42-4.66,9.56-8.48,12.42-3.82,2.87-8.44,4.3-13.86,4.3h-86c-5.42,0-9.08-1.43-10.99-4.3-1.91-2.87-1.95-7.01-.12-12.42l3.22-9.56h47.78l-1.67,4.78c-.48,1.59-.44,2.79.12,3.58.56.8,1.59,1.19,3.11,1.19h14.33c1.59,0,2.93-.42,4-1.25s1.85-2.01,2.33-3.52l2.51-7.17c.48-1.59.46-2.79-.06-3.58-.52-.79-1.53-1.19-3.05-1.19h-50.17c-5.42,0-9.08-1.43-10.99-4.3-1.91-2.87-1.95-7.01-.12-12.42l5.61-16.72c1.83-5.41,4.66-9.56,8.48-12.42Z"/>
      <path class="cls-1" d="M507.68,0l-20.19,59.72c-.48,1.51-.46,2.69.06,3.52.52.84,1.57,1.25,3.17,1.25h14.33l-6.45,19.11h-50.17c-5.42,0-9.08-1.43-10.99-4.3-1.91-2.87-1.95-7.01-.12-12.42L459.9,0h47.78Z"/>
      <path class="cls-1" d="M530.37,23.41c3.82-2.87,8.44-4.3,13.86-4.3h86c5.42,0,9.08,1.43,10.99,4.3s1.95,7.01.12,12.42l-10.51,31.06c-1.83,5.42-4.66,9.56-8.48,12.42-3.82,2.87-8.44,4.3-13.86,4.3h-86c-5.42,0-9.08-1.43-10.99-4.3-1.91-2.87-1.95-7.01-.12-12.42l10.51-31.06c1.83-5.41,4.66-9.56,8.48-12.42ZM570.5,37.09c-1.12.84-1.91,2.01-2.39,3.52l-7.41,21.5c-.48,1.59-.44,2.79.12,3.58.56.8,1.59,1.19,3.11,1.19h14.33c1.59,0,2.93-.42,4-1.25s1.85-2.01,2.33-3.52l7.41-21.5c.48-1.59.46-2.79-.06-3.58-.52-.79-1.57-1.19-3.17-1.19h-14.33c-1.51,0-2.83.42-3.94,1.25Z"/>
      <path class="cls-1" d="M694.85,32.25l5.61,12.9-17.68,10.51-4.78-13.5-13.98,13.5-10.51-10.51,14.21-12.9-14.09-4.54,11.23-16.84,13.38,5.49,5.14-16.36h17.56l-5.85,16.36,17.2-5.49-.24,16.84-17.2,4.54Z"/>
    </g>
  </g>
</svg>