<?xml version="1.0" encoding="UTF-8"?>
<svg id="Layer_2" data-name="Layer 2" xmlns="http://www.w3.org/2000/svg" viewBox="0 0 206.99 55.5">
  <defs>
    <style>
      .cls-1 {
        fill: #d0d0d0;
      }

      .cls-2 {
        fill: #575756;
      }

      .cls-3 {
        fill: #fff;
      }

      .cls-4 {
        fill: #878787;
      }
    </style>
  </defs>
  <g id="Layer_1-2" data-name="Layer 1">
    <path class="cls-3" d="M89.02,1.66l-2.28,8.17h5.68l-2.28-8.17h-1.13ZM83.64,15.16L87.76.24h3.64l4.12,14.92h-1.65l-1.08-3.84h-6.42l-1.08,3.84h-1.65Z"/>
    <polygon class="cls-3" points="106.13 15.16 97.88 15.16 97.88 .24 99.55 .24 99.55 13.67 106.13 13.67 106.13 15.16"/>
    <polygon class="cls-3" points="104.64 1.73 104.64 .24 115.47 .24 115.47 1.73 110.9 1.73 110.9 15.16 109.25 15.16 109.25 1.73 104.64 1.73"/>
    <path class="cls-3" d="M120.63,1.66l-2.28,8.17h5.68l-2.28-8.17h-1.13ZM115.26,15.16L119.37.24h3.64l4.12,14.92h-1.65l-1.08-3.84h-6.42l-1.08,3.84h-1.65Z"/>
    <g>
      <path class="cls-3" d="M138.4,1.47c-2.17,0-3.25.81-3.25,2.44,0,.91.25,1.53.75,1.87.5.34,1.51.68,3.03,1.01,1.52.34,2.6.78,3.24,1.32.64.54.95,1.43.95,2.66,0,3.06-1.6,4.59-4.79,4.59-1.05,0-2.38-.12-3.97-.37l-.78-.11.17-1.38c1.96.26,3.46.39,4.49.39,2.14,0,3.21-1,3.21-3,0-.81-.23-1.38-.7-1.74-.47-.35-1.35-.65-2.63-.9-1.69-.36-2.89-.82-3.6-1.39-.71-.57-1.06-1.52-1.06-2.86,0-2.67,1.61-4.01,4.83-4.01,1.05,0,2.32.11,3.79.32l.74.11-.15,1.4c-2.01-.24-3.43-.37-4.27-.37"/>
      <path class="cls-3" d="M155.06,14.92c-1.49.3-2.82.45-4.01.45s-2.14-.16-2.87-.49c-.73-.32-1.29-.83-1.69-1.51-.4-.68-.67-1.47-.82-2.35-.15-.88-.23-1.99-.23-3.31s.08-2.43.23-3.33c.15-.9.43-1.69.82-2.38.4-.69.96-1.19,1.68-1.51.72-.32,1.66-.47,2.82-.47s2.51.16,4.07.47l-.07,1.4c-1.46-.26-2.76-.39-3.9-.39-1.59,0-2.64.47-3.15,1.41s-.77,2.55-.77,4.82c0,1.14.05,2.05.14,2.74s.28,1.31.55,1.87c.27.55.67.95,1.2,1.19.53.24,1.3.36,2.32.36s2.22-.13,3.61-.39l.07,1.42Z"/>
      <path class="cls-3" d="M159.35,10.68c0,2.16,1.17,3.24,3.51,3.24,1.21,0,2.13-.25,2.74-.77.62-.51.92-1.33.92-2.47V.24h1.65v10.4c0,1.67-.44,2.88-1.33,3.62-.89.75-2.2,1.12-3.93,1.12s-3.04-.37-3.91-1.12c-.87-.75-1.31-1.96-1.31-3.62V.24h1.67v10.44Z"/>
      <path class="cls-3" d="M172.85,7.76c0,2.19.29,3.76.87,4.71.58.96,1.69,1.43,3.35,1.43s2.77-.47,3.34-1.4c.57-.94.86-2.5.86-4.7s-.3-3.8-.89-4.81c-.59-1.01-1.7-1.51-3.33-1.51s-2.73.5-3.32,1.5c-.59,1-.88,2.59-.88,4.78M183,7.81c0,2.66-.43,4.59-1.28,5.78-.85,1.19-2.4,1.79-4.65,1.79s-3.8-.61-4.65-1.83-1.28-3.14-1.28-5.77.43-4.57,1.3-5.85c.87-1.27,2.4-1.91,4.61-1.91s3.75.63,4.63,1.9c.87,1.27,1.31,3.23,1.31,5.89"/>
    </g>
    <polygon class="cls-3" points="194.31 15.16 186.05 15.16 186.05 .24 187.72 .24 187.72 13.67 194.31 13.67 194.31 15.16"/>
    <path class="cls-3" d="M200.48,1.66l-2.28,8.17h5.68l-2.28-8.17h-1.13ZM195.11,15.16L199.23.24h3.64l4.12,14.92h-1.65l-1.08-3.84h-6.42l-1.08,3.84h-1.65Z"/>
    <g>
      <path class="cls-3" d="M86.09,32.2h3.79c2.07,0,3.1-1.21,3.1-3.62,0-1.15-.25-1.99-.74-2.53-.49-.54-1.28-.81-2.36-.81h-3.79v6.97ZM89.9,33.66h-3.81v5.03h-1.67v-14.92h5.48c1.63,0,2.84.4,3.62,1.19.78.79,1.17,2,1.17,3.62,0,3.39-1.6,5.09-4.79,5.09"/>
      <path class="cls-3" d="M98.61,31.29c0,2.19.29,3.76.87,4.71.58.96,1.69,1.43,3.35,1.43s2.77-.47,3.34-1.4c.57-.94.86-2.5.86-4.7s-.3-3.8-.89-4.81c-.59-1.01-1.7-1.51-3.33-1.51s-2.73.5-3.32,1.5c-.59,1-.88,2.59-.88,4.78M108.76,31.33c0,2.66-.43,4.59-1.28,5.78-.85,1.19-2.4,1.79-4.65,1.79s-3.8-.61-4.65-1.83-1.28-3.14-1.28-5.77.43-4.57,1.3-5.84c.87-1.27,2.4-1.91,4.61-1.91s3.75.63,4.63,1.9c.87,1.27,1.31,3.23,1.31,5.89"/>
    </g>
    <polygon class="cls-3" points="120.31 38.69 112.05 38.69 112.05 23.76 113.72 23.76 113.72 37.2 120.31 37.2 120.31 38.69"/>
    <rect class="cls-3" x="122.67" y="23.76" width="1.67" height="14.92"/>
    <polygon class="cls-3" points="126.68 25.25 126.68 23.76 137.51 23.76 137.51 25.25 132.94 25.25 132.94 38.69 131.29 38.69 131.29 25.25 126.68 25.25"/>
    <polygon class="cls-3" points="139.87 38.69 139.87 23.76 149 23.76 149 25.23 141.54 25.23 141.54 30.39 147.7 30.39 147.7 31.83 141.54 31.83 141.54 37.22 149 37.22 149 38.69 139.87 38.69"/>
    <path class="cls-3" d="M160.98,38.45c-1.49.3-2.82.45-4.01.45s-2.14-.16-2.87-.49c-.73-.32-1.29-.83-1.69-1.51-.4-.68-.67-1.47-.82-2.35-.15-.89-.23-1.99-.23-3.31s.08-2.43.23-3.33c.15-.9.43-1.69.82-2.38.4-.69.96-1.19,1.68-1.51.72-.32,1.66-.47,2.82-.47s2.51.16,4.07.47l-.07,1.4c-1.46-.26-2.76-.39-3.9-.39-1.59,0-2.64.47-3.15,1.41-.51.94-.77,2.55-.77,4.82,0,1.14.05,2.05.14,2.74.09.69.28,1.31.55,1.86.27.55.67.95,1.2,1.19.53.24,1.3.36,2.32.36s2.22-.13,3.61-.39l.07,1.42Z"/>
    <polygon class="cls-3" points="163.95 38.69 163.95 23.76 167.07 23.76 172.81 37.22 173.27 37.22 173.27 23.76 174.91 23.76 174.91 38.69 171.86 38.69 166.03 25.23 165.62 25.23 165.62 38.69 163.95 38.69"/>
    <rect class="cls-3" x="178.84" y="23.76" width="1.67" height="14.92"/>
    <path class="cls-3" d="M193.46,38.45c-1.49.3-2.82.45-4.01.45s-2.14-.16-2.87-.49c-.73-.32-1.29-.83-1.69-1.51-.4-.68-.67-1.47-.82-2.35-.15-.89-.23-1.99-.23-3.31s.08-2.43.23-3.33c.15-.9.43-1.69.82-2.38.4-.69.96-1.19,1.68-1.51.72-.32,1.66-.47,2.82-.47s2.51.16,4.07.47l-.07,1.4c-1.46-.26-2.76-.39-3.9-.39-1.59,0-2.64.47-3.15,1.41-.51.94-.77,2.55-.77,4.82,0,1.14.05,2.05.14,2.74.09.69.28,1.31.55,1.86.27.55.67.95,1.2,1.19.53.24,1.3.36,2.32.36s2.22-.13,3.61-.39l.07,1.42Z"/>
    <path class="cls-3" d="M200.48,25.19l-2.28,8.17h5.68l-2.28-8.17h-1.13ZM195.11,38.69l4.12-14.92h3.64l4.12,14.92h-1.65l-1.08-3.84h-6.42l-1.08,3.84h-1.65Z"/>
    <g>
      <path class="cls-3" d="M15.08,50.86h1.23c.71,0,1.07-.43,1.07-1.29,0-.41-.09-.71-.26-.9-.17-.19-.44-.28-.81-.28h-1.23v2.48ZM16.32,51.71h-1.24v1.88h-.99v-6.06h2.23c1.38,0,2.07.68,2.07,2.03,0,.7-.17,1.23-.52,1.59-.35.37-.86.55-1.55.55"/>
      <path class="cls-3" d="M20.4,52.31c.2.35.59.52,1.15.52s.95-.17,1.15-.51c.2-.34.3-.92.3-1.72s-.1-1.39-.31-1.76c-.2-.37-.58-.55-1.14-.55s-.94.18-1.15.55c-.21.37-.31.95-.31,1.75s.1,1.37.3,1.72M23.48,52.95c-.36.5-1.01.74-1.92.74s-1.56-.25-1.93-.75c-.37-.5-.55-1.28-.55-2.35s.18-1.86.55-2.38c.37-.52,1.01-.78,1.92-.78s1.55.26,1.92.77c.37.52.55,1.31.55,2.38s-.18,1.86-.55,2.35"/>
    </g>
    <polygon class="cls-3" points="28.58 53.59 25.17 53.59 25.17 47.54 26.16 47.54 26.16 52.72 28.58 52.72 28.58 53.59"/>
    <rect class="cls-3" x="29.39" y="47.54" width=".99" height="6.06"/>
    <polygon class="cls-3" points="31.2 48.41 31.2 47.54 35.64 47.54 35.64 48.41 33.92 48.41 33.92 53.59 32.93 53.59 32.93 48.41 31.2 48.41"/>
    <polygon class="cls-3" points="36.46 53.59 36.46 47.54 40.3 47.54 40.3 48.39 37.44 48.39 37.44 50.11 39.76 50.11 39.76 50.96 37.44 50.96 37.44 52.73 40.3 52.73 40.3 53.59 36.46 53.59"/>
    <path class="cls-3" d="M43.36,53.69c-.89,0-1.49-.25-1.81-.73-.32-.49-.47-1.29-.47-2.42s.16-1.92.48-2.39.92-.71,1.8-.71c.53,0,1.11.07,1.74.22l-.04.8c-.53-.09-1.07-.14-1.6-.14s-.9.16-1.09.47c-.19.32-.28.91-.28,1.78s.09,1.46.28,1.78c.18.32.54.47,1.08.47s1.07-.04,1.62-.13l.03.81c-.61.13-1.19.19-1.73.19"/>
    <polygon class="cls-3" points="46.15 53.59 46.15 47.54 47.88 47.54 49.72 52.73 49.86 52.73 49.86 47.54 50.84 47.54 50.84 53.59 49.16 53.59 47.26 48.39 47.14 48.39 47.14 53.59 46.15 53.59"/>
    <rect class="cls-3" x="52.25" y="47.54" width=".99" height="6.06"/>
    <g>
      <path class="cls-3" d="M56.68,53.69c-.89,0-1.49-.25-1.81-.73-.32-.49-.47-1.29-.47-2.42s.16-1.92.48-2.39.92-.71,1.8-.71c.53,0,1.11.07,1.74.22l-.04.8c-.53-.09-1.07-.14-1.6-.14s-.89.16-1.08.47c-.19.32-.28.91-.28,1.78s.09,1.46.28,1.78c.18.32.54.47,1.08.47s1.07-.04,1.62-.13l.03.81c-.61.13-1.19.19-1.73.19"/>
      <path class="cls-3" d="M60.46,52.31c.2.35.59.52,1.15.52s.95-.17,1.15-.51c.2-.34.3-.92.3-1.72s-.1-1.39-.31-1.76c-.21-.37-.59-.55-1.14-.55s-.94.18-1.15.55c-.21.37-.31.95-.31,1.75s.1,1.37.3,1.72M63.54,52.95c-.36.5-1.01.74-1.92.74s-1.56-.25-1.93-.75c-.37-.5-.55-1.28-.55-2.35s.18-1.86.55-2.38c.37-.52,1.01-.78,1.92-.78s1.55.26,1.92.77c.37.52.55,1.31.55,2.38s-.18,1.86-.55,2.35"/>
      <path class="cls-3" d="M70.7,50.46c0-.73-.09-1.26-.28-1.58-.18-.32-.56-.49-1.14-.49h-1.12v4.33h1.12c.59,0,.98-.22,1.17-.65.1-.22.16-.45.19-.7.03-.25.05-.55.05-.92M69.29,53.59h-2.11v-6.06h2.11c.94,0,1.58.24,1.92.71.34.47.52,1.21.52,2.22,0,.51-.03.95-.1,1.31-.07.36-.19.68-.36.97-.34.57-.99.86-1.97.86"/>
    </g>
    <rect class="cls-3" x="72.88" y="47.54" width=".99" height="6.06"/>
    <polygon class="cls-3" points="77.23 53.59 77.23 47.54 78.94 47.54 80.3 52.27 81.66 47.54 83.38 47.54 83.38 53.59 82.39 53.59 82.39 48.62 82.26 48.62 80.82 53.35 79.79 53.35 78.35 48.62 78.21 48.62 78.21 53.59 77.23 53.59"/>
    <rect class="cls-3" x="84.78" y="47.54" width=".99" height="6.06"/>
    <polygon class="cls-3" points="90.58 53.59 87.17 53.59 87.17 47.54 88.16 47.54 88.16 52.72 90.58 52.72 90.58 53.59"/>
    <path class="cls-3" d="M93.13,48.36l-.76,3.07h1.95l-.75-3.07h-.44ZM90.87,53.59l1.5-6.06h1.96l1.51,6.06h-.99l-.33-1.3h-2.34l-.33,1.3h-.99Z"/>
    <polygon class="cls-3" points="96.71 53.59 96.71 47.54 98.44 47.54 100.29 52.73 100.42 52.73 100.42 47.54 101.41 47.54 101.41 53.59 99.72 53.59 97.83 48.39 97.7 48.39 97.7 53.59 96.71 53.59"/>
    <path class="cls-3" d="M103.87,52.31c.2.35.59.52,1.15.52s.95-.17,1.15-.51c.2-.34.3-.92.3-1.72s-.1-1.39-.31-1.76c-.2-.37-.59-.55-1.14-.55s-.94.18-1.15.55c-.21.37-.31.95-.31,1.75s.1,1.37.3,1.72M106.95,52.95c-.36.5-1.01.74-1.92.74s-1.56-.25-1.93-.75c-.37-.5-.55-1.28-.55-2.35s.18-1.86.55-2.38c.37-.52,1.01-.78,1.92-.78s1.55.26,1.92.77c.37.52.55,1.31.55,2.38s-.18,1.86-.55,2.35"/>
    <rect class="cls-3" x="110.53" y="47.33" width=".96" height="8.16"/>
    <g>
      <path class="cls-3" d="M115.78,50.86h1.24c.71,0,1.07-.43,1.07-1.29,0-.41-.09-.71-.26-.9-.17-.19-.44-.28-.81-.28h-1.24v2.48ZM117.02,51.71h-1.24v1.88h-.99v-6.06h2.23c1.38,0,2.07.68,2.07,2.03,0,.7-.17,1.23-.52,1.59-.35.37-.86.55-1.55.55"/>
      <path class="cls-3" d="M121.1,52.31c.2.35.59.52,1.15.52s.95-.17,1.15-.51c.2-.34.3-.92.3-1.72s-.1-1.39-.31-1.76c-.2-.37-.59-.55-1.14-.55s-.94.18-1.15.55c-.21.37-.31.95-.31,1.75s.1,1.37.3,1.72M124.18,52.95c-.36.5-1.01.74-1.92.74s-1.56-.25-1.93-.75c-.37-.5-.55-1.28-.55-2.35s.18-1.86.55-2.38c.37-.52,1.01-.78,1.92-.78s1.55.26,1.92.77c.37.52.55,1.31.55,2.38s-.18,1.86-.55,2.35"/>
    </g>
    <polygon class="cls-3" points="129.28 53.59 125.87 53.59 125.87 47.54 126.86 47.54 126.86 52.72 129.28 52.72 129.28 53.59"/>
    <rect class="cls-3" x="130.09" y="47.54" width=".99" height="6.06"/>
    <polygon class="cls-3" points="131.9 48.41 131.9 47.54 136.34 47.54 136.34 48.41 134.62 48.41 134.62 53.59 133.63 53.59 133.63 48.41 131.9 48.41"/>
    <polygon class="cls-3" points="137.16 53.59 137.16 47.54 141 47.54 141 48.39 138.14 48.39 138.14 50.11 140.46 50.11 140.46 50.96 138.14 50.96 138.14 52.73 141 52.73 141 53.59 137.16 53.59"/>
    <path class="cls-3" d="M144.06,53.69c-.89,0-1.49-.25-1.81-.73-.32-.49-.48-1.29-.48-2.42s.16-1.92.48-2.39.92-.71,1.8-.71c.53,0,1.11.07,1.74.22l-.04.8c-.53-.09-1.07-.14-1.6-.14s-.9.16-1.08.47c-.19.32-.29.91-.29,1.78s.09,1.46.28,1.78c.18.32.54.47,1.08.47s1.07-.04,1.62-.13l.03.81c-.61.13-1.19.19-1.73.19"/>
    <polygon class="cls-3" points="146.85 53.59 146.85 47.54 148.57 47.54 150.42 52.73 150.56 52.73 150.56 47.54 151.54 47.54 151.54 53.59 149.85 53.59 147.96 48.39 147.84 48.39 147.84 53.59 146.85 53.59"/>
    <rect class="cls-3" x="152.95" y="47.54" width=".99" height="6.06"/>
    <g>
      <path class="cls-3" d="M157.38,53.69c-.89,0-1.49-.25-1.81-.73-.32-.49-.47-1.29-.47-2.42s.16-1.92.48-2.39.92-.71,1.8-.71c.53,0,1.11.07,1.74.22l-.04.8c-.53-.09-1.07-.14-1.6-.14s-.9.16-1.08.47c-.19.32-.29.91-.29,1.78s.09,1.46.28,1.78c.18.32.54.47,1.08.47s1.07-.04,1.62-.13l.03.81c-.61.13-1.19.19-1.73.19"/>
      <path class="cls-3" d="M161.16,52.31c.2.35.59.52,1.15.52s.95-.17,1.15-.51c.2-.34.3-.92.3-1.72s-.1-1.39-.31-1.76c-.21-.37-.59-.55-1.14-.55s-.94.18-1.15.55c-.21.37-.31.95-.31,1.75s.1,1.37.3,1.72M164.24,52.95c-.36.5-1.01.74-1.92.74s-1.56-.25-1.93-.75c-.37-.5-.55-1.28-.55-2.35s.18-1.86.55-2.38c.37-.52,1.01-.78,1.92-.78s1.55.26,1.92.77c.37.52.55,1.31.55,2.38s-.18,1.86-.55,2.35"/>
      <path class="cls-3" d="M171.4,50.46c0-.73-.09-1.26-.28-1.58-.18-.32-.56-.49-1.14-.49h-1.12v4.33h1.12c.59,0,.98-.22,1.17-.65.1-.22.16-.45.19-.7.03-.25.05-.55.05-.92M169.99,53.59h-2.11v-6.06h2.11c.94,0,1.58.24,1.92.71s.52,1.21.52,2.22c0,.51-.03.95-.1,1.31-.07.36-.19.68-.36.97-.34.57-1,.86-1.97.86"/>
    </g>
    <rect class="cls-3" x="173.58" y="47.54" width=".99" height="6.06"/>
    <polygon class="cls-3" points="177.34 48.41 177.34 47.54 181.78 47.54 181.78 48.41 180.07 48.41 180.07 53.59 179.07 53.59 179.07 48.41 177.34 48.41"/>
    <g>
      <path class="cls-3" d="M183.55,52.31c.2.35.59.52,1.15.52s.95-.17,1.15-.51c.2-.34.3-.92.3-1.72s-.1-1.39-.31-1.76c-.21-.37-.59-.55-1.14-.55s-.94.18-1.15.55c-.21.37-.31.95-.31,1.75s.1,1.37.3,1.72M186.63,52.95c-.36.5-1.01.74-1.92.74s-1.56-.25-1.93-.75c-.37-.5-.55-1.28-.55-2.35s.19-1.86.56-2.38c.37-.52,1.01-.78,1.92-.78s1.55.26,1.92.77c.37.52.55,1.31.55,2.38s-.18,1.86-.55,2.35"/>
      <path class="cls-3" d="M191.68,49.47c0-.73-.35-1.09-1.05-1.09h-1.32v2.2h1.34c.36,0,.62-.1.78-.31.17-.2.25-.47.25-.81M189.31,51.44v2.16h-.99v-6.06h2.31c1.37,0,2.06.64,2.06,1.93,0,.86-.33,1.44-.99,1.75l1,2.38h-1.08l-.88-2.16h-1.43Z"/>
    </g>
    <rect class="cls-3" x="193.81" y="47.54" width=".99" height="6.06"/>
    <polygon class="cls-3" points="196.21 53.59 196.21 47.54 197.93 47.54 199.78 52.73 199.91 52.73 199.91 47.54 200.9 47.54 200.9 53.59 199.21 53.59 197.32 48.39 197.19 48.39 197.19 53.59 196.21 53.59"/>
    <path class="cls-3" d="M203.36,52.31c.2.35.59.52,1.15.52s.95-.17,1.15-.51c.2-.34.3-.92.3-1.72s-.1-1.39-.31-1.76c-.2-.37-.59-.55-1.14-.55s-.94.18-1.15.55c-.21.37-.31.95-.31,1.75s.1,1.37.3,1.72M206.44,52.95c-.36.5-1.01.74-1.92.74s-1.56-.25-1.93-.75c-.37-.5-.55-1.28-.55-2.35s.18-1.86.55-2.38c.37-.52,1.01-.78,1.92-.78s1.55.26,1.92.77c.37.52.55,1.31.55,2.38s-.18,1.86-.55,2.35"/>
    <polygon class="cls-2" points="61.88 15.5 71.37 15.5 76.75 0 14.17 0 14.17 12.91 61.88 12.91 61.88 15.5"/>
    <polygon class="cls-4" points="14.17 15.5 14.17 12.91 5.32 12.91 0 28.41 14.17 28.41 14.17 23.61 61.88 23.61 61.88 15.5 14.17 15.5"/>
    <rect class="cls-1" x="14.17" y="12.91" width="47.71" height="2.58"/>
    <polygon class="cls-1" points="14.17 28.41 14.17 39.1 71.37 39.1 66.46 23.61 61.88 23.61 61.88 28.41 14.17 28.41"/>
    <rect class="cls-2" x="14.17" y="23.61" width="47.71" height="4.8"/>
  </g>
</svg>