<?xml version="1.0" encoding="UTF-8"?>
<svg id="Layer_1" xmlns="http://www.w3.org/2000/svg" version="1.1" viewBox="0 0 131 43">
  <!-- Generator: Adobe Illustrator 29.6.0, SVG Export Plug-In . SVG Version: 2.1.1 Build 207)  -->
  <defs>
    <style>
      .st0 {
        fill: #fff;
      }
    </style>
  </defs>
  <g>
    <g>
      <path class="st0" d="M46.7,10.1c0-.1.1-.3.3-.3h3.1c1.6,0,3,1.3,3,2.9s-1.3,3-3,3h-1.7v3.1c0,.1-.1.3-.3.3h-1.2c-.1,0-.3-.1-.3-.3v-8.8ZM50,14.2c.7,0,1.4-.6,1.4-1.4s-.6-1.3-1.4-1.3h-1.5v2.7s1.5,0,1.5,0Z"/>
      <path class="st0" d="M58.6,9.7c2.7,0,4.8,2.1,4.8,4.8s-2.1,4.8-4.8,4.8-4.8-2.1-4.8-4.8,2.1-4.8,4.8-4.8ZM58.6,17.6c1.7,0,3.1-1.4,3.1-3.1s-1.4-3.1-3.1-3.1-3.1,1.4-3.1,3.1,1.4,3.1,3.1,3.1Z"/>
      <path class="st0" d="M65,10.1c0-.1.1-.3.3-.3h1.2c.1,0,.3.1.3.3v7.5s3.4,0,3.4,0c.1,0,.3.1.3.3v1.1c0,.1-.1.3-.3.3h-4.9c-.1,0-.3-.1-.3-.3v-8.8Z"/>
      <path class="st0" d="M71.6,10.1c0-.1.1-.3.3-.3h1.2c.1,0,.3.1.3.3v8.8c0,.1-.1.3-.3.3h-1.2c-.1,0-.3-.1-.3-.3v-8.8Z"/>
      <path class="st0" d="M76.9,11.4h-2c-.1,0-.3-.1-.3-.3v-1.1c0-.1.1-.3.3-.3h5.8c.1,0,.3.1.3.3v1.1c0,.1-.1.3-.3.3h-2v7.5c0,.1-.1.3-.3.3h-1.2c-.1,0-.3-.1-.3-.3v-7.5Z"/>
      <path class="st0" d="M82.2,10.1c0-.1.1-.3.3-.3h5.4c.1,0,.3.1.3.3v1.1c0,.1-.1.3-.3.3h-3.9v2.2s3.3,0,3.3,0c.1,0,.3.1.3.3v1.1c0,.1-.1.3-.3.3h-3.3v2.3s3.9,0,3.9,0c.1,0,.3.1.3.3v1.1c0,.1-.1.3-.3.3h-5.4c-.1,0-.3-.1-.3-.3v-8.8Z"/>
      <path class="st0" d="M94,9.7c1.3,0,2.3.4,3.2,1.2.1.1.1.3,0,.4l-.8.8c0,.1-.2.1-.3,0-.6-.5-1.3-.8-2.1-.8-1.7,0-3,1.4-3,3.1s1.3,3.1,3,3.1,1.5-.3,2-.8c.1,0,.3,0,.3,0l.8.9c.1,0,0,.3,0,.4-.9.9-2.1,1.3-3.2,1.3-2.7,0-4.8-2.1-4.8-4.8,0-2.7,2.1-4.8,4.8-4.8Z"/>
      <path class="st0" d="M98.9,9.9c0-.1.1-.2.3-.2h.3l5.5,5.9h0v-5.5c0-.1.1-.3.3-.3h1.2c.1,0,.3.1.3.3v9c0,.1-.1.2-.3.2h-.3l-5.6-6.1h0v5.7c0,.1-.1.3-.3.3h-1.2c-.1,0-.3-.1-.3-.3v-9Z"/>
      <path class="st0" d="M109.1,10.1c0-.1.1-.3.3-.3h1.2c.1,0,.3.1.3.3v8.8c0,.1-.1.3-.3.3h-1.2c-.1,0-.3-.1-.3-.3v-8.8Z"/>
      <path class="st0" d="M117.3,9.7c1.3,0,2.3.4,3.2,1.2.1.1.1.3,0,.4l-.8.8c0,.1-.2.1-.3,0-.6-.5-1.3-.8-2.1-.8-1.7,0-3,1.4-3,3.1s1.3,3.1,3,3.1,1.5-.3,2-.8c.1,0,.3,0,.3,0l.8.9c.1,0,0,.3,0,.4-.9.9-2.1,1.3-3.2,1.3-2.7,0-4.8-2.1-4.8-4.8s2.1-4.8,4.8-4.8Z"/>
      <path class="st0" d="M126.2,9.7c2.7,0,4.8,2.1,4.8,4.8s-2.1,4.8-4.8,4.8-4.8-2.1-4.8-4.8,2.1-4.8,4.8-4.8ZM126.2,17.6c1.7,0,3.1-1.4,3.1-3.1,0-1.7-1.4-3.1-3.1-3.1s-3.1,1.4-3.1,3.1,1.4,3.1,3.1,3.1Z"/>
    </g>
    <g>
      <path class="st0" d="M48.1,23.9c0-.1.1-.2.2-.2h.2c0,0,.2,0,.2.1l2.6,7.4h0l2.6-7.4c0,0,.1-.1.2-.1h.2c.1,0,.2,0,.2.2l1.7,9c0,.2,0,.3-.2.3h-.5c-.1,0-.2,0-.2-.2l-1.2-6.9h0l-2.5,7c0,0-.1.1-.2.1h-.2c0,0-.2,0-.2-.1l-2.5-7h0l-1.2,6.9c0,0-.1.2-.2.2h-.5c-.2,0-.3-.1-.2-.3l1.7-9Z"/>
      <path class="st0" d="M58.9,24.1c0-.1.1-.3.3-.3h.5c.1,0,.3.1.3.3v8.8c0,.1-.1.3-.3.3h-.5c-.1,0-.3-.1-.3-.3v-8.8Z"/>
      <path class="st0" d="M63.1,24.1c0-.1.1-.3.3-.3h.5c.1,0,.3.1.3.3v8.2s3.8,0,3.8,0c.1,0,.3.1.3.3v.4c0,.1-.1.3-.3.3h-4.6c-.1,0-.3-.1-.3-.3v-8.8Z"/>
      <path class="st0" d="M69.2,32.9l4.1-9c0,0,.1-.1.2-.1h.1c.1,0,.2,0,.2.1l4,9c0,.2,0,.3-.2.3h-.5c-.1,0-.2,0-.2-.1l-1-2.2h-4.7l-1,2.2c0,0-.1.1-.2.1h-.5c-.2,0-.3-.2-.2-.3ZM75.5,30c-.7-1.5-1.3-2.9-1.9-4.4h-.1l-1.9,4.4h4Z"/>
      <path class="st0" d="M79.7,24c0-.1.1-.2.3-.2h.3l6,7.5h0v-7.1c0-.1.1-.3.3-.3h.5c.1,0,.3.1.3.3v9c0,.1-.1.2-.3.2h-.2l-6.1-7.6h0v7.3c0,.1-.1.3-.3.3h-.5c-.1,0-.3-.1-.3-.3v-9Z"/>
      <path class="st0" d="M94.5,23.7c2.7,0,4.8,2.1,4.8,4.8s-2.1,4.8-4.8,4.8-4.8-2.1-4.8-4.8,2.1-4.8,4.8-4.8ZM94.5,32.4c2.1,0,3.9-1.7,3.9-3.9,0-2.1-1.7-3.9-3.9-3.9s-3.9,1.8-3.9,3.9,1.7,3.9,3.9,3.9Z"/>
      <path class="st0" d="M105.8,25.8l-1,.7c-.1,0-.2,0-.3,0l-.3-.3c0-.1,0-.2,0-.3l1.9-1.8h.4c.1,0,.2.1.2.3v8.6c0,.1-.1.3-.2.3h-.5c-.1,0-.3-.1-.3-.3v-7.2Z"/>
      <path class="st0" d="M111,28.5h0c-.6-.3-1.4-1.1-1.4-2.1,0-1.5,1.2-2.4,2.7-2.4s2.8,1,2.8,2.4-.8,1.8-1.4,2.1h0c.6.3,1.6,1.1,1.6,2.3s-1.1,2.6-3,2.6-3-1.1-3-2.6,1-2,1.6-2.2ZM112.3,32.5c1.1,0,2-.6,2-1.7s-.7-1.7-2-1.8c-1.3.1-2,1-2,1.8s.9,1.7,2,1.7ZM114.1,26.5c0-1-.8-1.7-1.8-1.7s-1.7.7-1.7,1.7.5,1.5,1.8,1.6c1.2-.1,1.8-.8,1.8-1.6Z"/>
      <path class="st0" d="M121.7,23.8c.1,0,.2,0,.3.1v.3c.2.2.2.3,0,.4-.6.2-3,1.5-3.4,3.3,0,0,.9-.6,2-.6s2.9,1.1,2.9,2.9-1.3,3.1-2.9,3.1-3.1-1.7-3.1-3.8c0-3.5,3-5.2,4.4-5.7ZM122.4,30.3c0-1.2-.9-2.1-2-2.1s-2.1.9-2.1.9c-.2,1.3.3,3.3,2.1,3.3s2-1,2-2.1Z"/>
      <path class="st0" d="M124.8,31.8l.4-.3c.1-.1.3,0,.4,0,.1.1.8.9,2,.9s1.9-.6,1.9-1.7-.7-1.7-2.4-1.7h-.7c-.1,0-.3,0-.3-.3v-.3c0-.2,0-.3.3-.3h.7c1.4,0,2.1-.7,2.1-1.6s-.8-1.7-1.7-1.7-1.5.5-1.7.9c0,0-.2.1-.3,0l-.3-.3c-.1,0,0-.3,0-.3,0,0,1-1.2,2.4-1.2s2.7.9,2.7,2.4-.8,1.8-1.4,2.1h0c.6.3,1.6,1.1,1.6,2.2s-1.1,2.6-3,2.6-2.4-.9-2.7-1.2c0,0,0-.2,0-.3Z"/>
    </g>
  </g>
  <g>
    <g>
      <path class="st0" d="M36.5,30.5c-.3,0-.7-1-.7-2,0-.3,0-.5,0-.7.2-.9.9-3.1.9-5.8s0-1.2-.1-1.8c-.2-1.8-.4-3-.8-4,0,0,0,0,0,0,.2-.3.4-.6.4-.9,0-.6-.5-1.5-1.5-1.5,0,0-.2,0-.3,0l-.6.2c-.5-.4-1-.4-1.3-.4,0,0-.1,0-.2,0,0,0-.2,0-.2,0,0,0-.2,0-.5,0s-.1,0-.2,0c0,0,0,0,0,0-.3,0-.6,0-.8,0-.3,0-.5,0-.8,0,0,0-.2-.3-.6-.6,0,0,0,0,0-.1,0-.3-.3-.8-.3-.8-.8-1.3-1.9-1.7-2.1-1.8,0-.2,0-.4,0-.6,0,0,0,0,0,0h0s0,0,0,0c0,0,0-.2,0-.3,0,0,0,0,0,0,0-.2-.2-.6-.4-.9-.2-.3-.5-.4-.6-.4-.3-.3-.8-.4-1.1-.4,0,0-.2,0-.2,0,0,0-.6.1-.8.3,0,0-.2.2-.4.4-.2-.1-.4-.1-.5-.1-.4,0-.8.2-.8.3,0,0-.3,0-.5,0-.2,0-.4.1-.9.7-.2.3-.3.6-.3.8,0,.2,0,.4,0,.4-.2,0-.4.2-.5.3-.2.2-.2.6-.2.7,0,0,0,0,0,0-.4,0-.7.2-.7.2,0,0-.3,0-.3.3,0,0,0,0,0,0,0,0,.2.2.4.2h0c.2,0,.3,0,.3,0,0,0,0,0,0,0,0,.1.6.6.6.6,0,0,.2.1.5.1.1,0,.3,0,.4-.1.2-.2.5-.1.6-.4,0,0,.3,0,.5-.1,0,0,.1,0,.2-.1,0,0,0,0,0,0h0s.3-.3.3-.3h0c.2.5.3.9.3,1.2,0,.7-.2,1-.2,1,0,0-.2.4-.3.6,0-.1-.1-.2-.2-.2,0-.1-.1-.2-.2-.2h0c0-.3-.4-.4-.3-.4,0-.2-.3-.3-.4-.3-.1-.2-.4-.2-.5-.2,0,0,0,0,0,0-.2,0-.5.1-.6.2,0,0,0,0-.1,0s-.2,0-.3,0c0,0,0,0-.1,0-.2,0-.5,0-.7.4,0,0-.2.1-.3.4,0,0-.4,1-.4,1.4,0,.4,0,.3,0,.4,0,0-.5.5-.5.9,0,0,0,.1,0,.2-.3.2-1.2,1-1.2,2.8s0,.3,0,.5c-.4-.2-.8-.3-.9-.3,0,0-.2-.1-.2-.1,0,0-.4-.2-.4-.2-.1-.1-.3-.2-.5-.2h0c0,0-.3-.6-.5-1-.1-.4-.2-1-.2-1.6h0c0-.7-.4-1.5-.5-1.8,0,0,0,0,0,0l.6-.3c0,0,0,.1,0,.2,0,0,0,.2,0,.3,0,0,.3.9,1.2.9,0,0,.9,0,.9,0,0,0,0,0,0,0,.2.1.4.2.7.2.1,0,.3,0,.5-.1,0,0,.2-.1.2-.5s0,0,0-.1c0,0,.2-.2.2-.3,0,0,0-.1,0-.2h0c0-.1.3-.2.3-.2,0,0,.3,0,.3-.3,0,0,0,0,0,0h0c0,0-.4-.1-.5-.1,0,0-.5,0-.5,0h-.2s-.2,0-.2,0c0,0,0,0,0,0,0-.2-.5-.5-.6-.6,0,0,.1,0,.2-.1,0-.1,0-.3,0-.5h0c0,0,0,0,0,0,.2-.2.2-.5.2-.7l.4.2s.3.2.5.2c0,0,0,0,0,0,.2,0,.2-.2.2-.2,0,0,0,0,0,0,0,0,.1,0,.2-.1,0,0,.2,0,.2,0,0,0,0,0,.1,0,0,0,0,0,.1,0,.1,0,.2,0,.2-.2,0-.3.3-.9.4-1.1,0,0,0-.1,0-.1,0,0,.1,0,.2,0,0,0,0,0,0,0,.3,0,.4-.3.4-.3,0,0,0-.2,0-.4,0-.2,0-.5-.4-.6,0-.1-.3-.6-.8-.6,0,0,0,0,0,0-.1,0-.6-.4-1.2-.4,0,0-.1,0-.2,0,0,0-.3,0-.6,0-.4,0-.8,0-.9.4-.2,0-.9.1-.9.5,0,0,0,0-.1,0-.1,0-.3.2-.3.4-.4-.1-.7-.2-.8-.2h0s0,0,0,0c0,0-.5,0-1,0s-.6,0-.8,0c-.6.1-1.4.3-1.7.5-.3.2-.6.8-.9.9-.3.1-.7.3-.8.8,0,0,0,.1,0,.2-.1,0-.8.3-1.4,1.4,0,0-.4.5-.6.6,0,0-.1.2-.1.3,0,.2,0,.5.2.6,0,0,.1.1.3.3,0,0-.1.2-.1.4s0,.4.3.8c-.2.1-.6.6-.8,1.9,0,0,0,1.6-.3,2.2-.4.8-1.2,1.7-1.2,1.7,0,0-.1.1-.1.3,0,.1,0,.2.2.3l.6.4s0,0,0,0c0,0,0,0,0,0,0,.2.3.2.5.3.2,0,.4.1.5.1,0,0,0,0,.2,0,.4,0,.5,0,.7.2,0,0,.2.2.3.2,0,0,.1,0,.3,0-.3.2-.5.4-.6.7,0,.2,0,.4,0,.7,0,.4.2.8.8.8h0s.3-.2.5-.4c0,.2,0,.6.3.8,0,0,0,0,0,0,0,0,0,.2,0,.4,0,.4,0,.9.5,1.3,0,0-.2.2-.2.4,0,.2,0,.5-.2.9-.2.3-.4,1-.5,1.3,0,0,0,0,0,0,0,.1.1.3.2.5,0,.1.1.2.1.3,0,0,0,0,0,0,0,0,0,0,0,0h0c0,.1.1.2.2.2,0,0,.2,0,.2,0h0s0,0,0,0c0,0,0,0,.2,0,0,0,0,0,0,0,0,0,.2,0,.2-.2,0,0,0,0,0,0h0c0,0,.2-.2.2-.4,0,0,0-.1,0-.1,0,0-.2,0-.3,0-.1,0-.1,0-.1,0,0,0,0-.1,0-.1,0,0,0,0,0,0,0,0,.1-.1.2-.2,0,0,.8-.6.9-.6,0,0,0,0,0,0h0c.2,0,.4.1.5.2.1.1,1.2,1,1.5,1.2.2.1,1.2.7,1.7.7.5,0,1.3.2,1.7.3.2,0,.5.1.8.1.3,0,.6,0,.8-.3.3-.4.5-.4.5-.7,0-.1,0-.4,0-.7,0-.2,0-.5-.1-.6-.2-.3-.4-.6-.4-.6,0,0,0,0,0,0,0,0,0,0,0,0,0,0,0-.2,0-.2,0-.4-.2-.6-.2-.7,0,0-.1-.4-.2-.7,0-.2-.1-.4-.2-.6,0,0,.3-.2.5-.5.1.1,1.5,1.6,2.1,1.7,0,0,0,0,0,0,0,0,.6,0,1.2-.2.5-.2.8-.4,1.1-.4,0,0,.2,0,.3,0,0,0,0,0,0,0,0,0,0,.1.1.2v1.2c0,0,0,0,0,0,0,0,0,.3.2.3l-.2,1.2-2.9.7s0,0,0,0c0,0,0,0,0,0v.7s0,0,0,0l2.9,1h0s5.3-1.5,5.3-1.5c0,0,0,0,0,0v-.7h0s0,0,0,0l-3-.6h-.5c0,.1-.3-2.1-.3-2.1,0,0,0,0,0,0,.1-.2.3-.4.3-.8s0-.2,0-.3c-.1-.4-.1-.7-.1-.8,0-.1,0-.2,0-.3,0,0,1-1.3,1.7-2.5,0,0,0,0,0,0,0,.4,0,1.1,0,1.4s0,.1,0,.2c0,0,0,.2,0,.3,0,.2,0,.5-.1.6-.2.2-.3.6-.3.9,0,0,0,0,0,0,0,0,0,.2,0,.3s0,.2,0,.3c0,0-.2.6-.2.6,0,0,0,0,0,.1,0,.1,0,.5.4.5.2,0,.4,0,.6,0,.3,0,.5,0,.7,0,.2-.1.4-.3.4-.5,0,0,0,0,0,0,0-.2-.3-.3-.4-.4,0-.1-.2-.3-.2-.5,0,0,0,0,0,0,0,0,0-.2,0-.3,0,0,0,0,0,0h0s0,0,0,0h0s0-.1,0-.2c0-.2,0-.4,0-.4.1-.1.8-1.2.8-1.2,0,0,.4-.5.5-2h0c.4,0,.7,0,.8,0h0c0,0-.4.8-.4.8,0,0-.6,1.1-.7,1.4,0,.2-.3.7-.3,1.3,0,.3,0,.7.2,1.2l.2.7c.3,1,.5,1.2.9,1.3,0,0,0,0,0,0,0,.1,0,.3-.1.3,0,0-.1.2-.2.4,0,0,0,.2,0,.3s0,0,0,0c0,.3,0,.6.3.6,0,0,0,0,.1,0,.2,0,.3,0,.4,0,0,0,.3,0,.4.1,0,0,.1,0,.2,0,0,0,.2,0,.3,0,0,0,.3-.1.4-.2,0,0,.3-.3.4-.5,0,0,0,0,0,0h0s0,0,0,0h0c0-.3-.4-.8-.4-.8,0,0,0,0,0,0,.4,0,1.5.1,2.7.2.4,0,.4,0,.8,0,0,0,.1,0,.2,0,.9,0,2.6-.2,2.6-.2,0,0,0,0,0,0,0,0,0,0,0,0ZM32.1,14s0,0,0,0c0,0,.1,0,.2,0,0,0,.1,0,.2,0,.3,0,.8,0,1.2.4h0s.6-.2.6-.2c0,0,.2,0,.2,0,.9,0,1.3.8,1.3,1.3,0,.5-.8,1.3-.8,1.3l-.8.7c-.2.4-1,.8-1.3,1-1.8-.5-2.3-1.3-2.3-2,0-1,1.1-2.1,1.3-2.4ZM31.7,13.9c.1,0,.2,0,.3,0-.3.3-1.3,1.3-1.3,2.4,0,.8.6,1.6,2.3,2.1-.2.1-.4.1-.6.1-.1,0-.2,0-.3,0-1.2-.2-2.4-1.8-2.4-1.8,0-.2,0-.3,0-.5,0,0,0,0,0,0,0,0,.6-1.9,1.7-2.3.1,0,.3-.1.4-.1ZM29.4,17.1c0,0,0,0,0,0,0,0-.2.8-.8,1,0,0-.3.1-.3.2,0,0,0,0,0,0,0,0,0,0,0,0,0,0,0,0,0-.1,0,0,0,0-.1,0h0s0,.5-.2.9c0,.1,0,.2,0,.2,0,0-.1.2-.2.3-.3.5-.6.6-.8.6,0,0-.1,0-.2,0h.1c0,0,0-.1,0-.2,0,0,0,0-.1,0h-.2c0,.1,0,.1,0,.1,0,0-.2,0-.2,0h0s-.2.2-.2.2c0,0,0,0,0,0h0c-.1,0-.3-.4-.4-.5,0-.2-.2-.2-.3-.2,0,0-.2,0-.2,0,0,0-.5-.4-.5-.4-.2-.3-.3-.6-.3-.6,0-.2,0-.3,0-.5s0,0,0-.1c0-.8.4-1.1.4-1.2l.3-.3s.2-.2.3-.3c0,0,.3-.1.5-.2,0,0,.2,0,.3,0,0,0,.1,0,.2,0h0s0,0,0,0c0,0,.6,0,.6.1,0,0,.4.2.4.2,0,0,0,0,0,.1,0,0,0,0,0,.1,0,.1-.3.7-.5.8,0,0,0,.1,0,.2,0,.2.1.3.1.3,0,0,0,0,0,0,0,0,0,0,0,0,0,0-.1.1-.2.2,0,0,0,.1,0,.2s0,.2,0,.3c0,0,.1.1.2.1.2,0,.4-.1.4-.1,0,0,0,0,0,0,.1,0,.3,0,.4-.2h0s.2,0,.3,0c.1,0,.2-.3.3-.4,0,0,.1-.2.2-.2,0,0,0-.1,0-.2,0,0,0,0,0,0,0,0,0,0,0,0,0,0,0-.1,0-.2s0-.1,0-.2c0-.1-.2-.4-.2-.4,0,0,0-.1,0-.2h0s0,0,0,0h0c0-.2-.2-.2-.2-.2,0,0,0,0,0-.1,0,0,0,0,0,0,0,0,0,0,0,0,0,0,0,0,0,0,.3,0,.9,0,1,1h0c0,0,0,.1,0,.2ZM27.3,20.2c-.2.3-.4.5-.5.7,0,.1-.3.2-.5.3-.1,0-.3,0-.3,0l-1.8.2h-.1c0-.2-.2-.7-.3-1,0,0,0,0,0,0,0-.3.4-.9.5-.9,0,0,.2-.2.2-.3.2.1.5.4.5.4,0,0,.2,0,.3,0,0,0,.1,0,.2.1,0,0,.2.6.5.6,0,0,0,0,0,0l.2-.2c0,0,.3.1.3.1,0,0,.1,0,.3,0,.1,0,.3,0,.4-.1ZM24.1,17.1s0,0,0,0c0,0,0,0,0-.1,0,0,0,0,0,0,.2-.1.1-.3.2-.5,0,0,0-.1.2-.1.4-.1.3-.5.5-.5.2,0,.5-.3.5-.3,0,0,0,0,0,0,0,0,0,0,0,0,.1,0,.5-.1.5-.2,0,0,.2,0,.3,0,0,0,.1,0,.2,0,0,0,0,0,0,0,0,0,0,0,0,0,0,0,.2.1.4.2.1,0,.2,0,.3,0,0,0,.5.2.6.2,0,0,.1,0,.2,0,0,0,0,0,0,0,0,0,0,0,0,.2,0,0,0,.1,0,.1,0,0,0,0,.1,0,0,0,0,0,0,0h0s0,.1,0,.2c0,0,0,0,0,0,0,.1.2.3.2.4,0,0,0,0,0,.1s0,0,0,0c0,0-.1,0-.1.2,0,0,0,0,0,0,0,0,0,0,0,0,0,0,0,0,0,0,0,0-.1.2-.2.2,0,0-.2.3-.3.3,0,0-.2,0-.3.2t0,0c0,0-.2,0-.3,0h0s0,0,0,0h0s0,0,0,0c-.1,0-.3.1-.4.1h0c0,0,0-.2,0-.3,0,0,0-.1,0-.1,0,0,.1-.1.2-.2,0,0,0,0,0-.1,0,0,0-.1,0-.2,0,0-.1-.1,0-.2,0,0,0,0,0,0,.2-.2.5-.7.5-.9,0,0,0-.1,0-.2,0-.1,0-.2,0-.3,0,0-.4-.3-.5-.3,0,0-.5-.1-.7-.1h0s0,0,0,0,0,0,0,0h0s-.1,0-.2,0c-.1,0-.3,0-.4,0-.1,0-.4.2-.5.2,0,0-.3.3-.3.3l-.3.3s-.4.4-.5,1.1c0,0,0,0,0,0,0,0,0,0,0,0,0,0,0,0,0,0,0,0,0-.2,0-.2ZM30.6,13.8c.2,0,.3,0,.5,0-1,.5-1.6,1.9-1.7,2.3-.3-.4-.7-.5-.9-.5-.1,0-.2,0-.2,0,0,0,0,0,0,0,0,0-.2,0-.2,0,0,0-.5-.2-.6-.2,0,0-.1,0-.3,0-.2,0-.3-.1-.4-.2,0,0-.1,0-.2,0,0,0,0,0,0,0,.1-.1.4-.4.7-.5.1,0,1.8-.9,3.5-.9ZM28.8,12.2s.3.5.3.7c-.2-.1-.4-.3-.7-.4,0,0-.1,0-.1,0,0,0,0,.1,0,.1.3.1.6.3.8.4.3.2.5.4.5.5-1.2.2-2.2.7-2.5.8-.8-.6-.9-1.2-.9-1.5,0,0,0-.1,0-.1,0,0,0,0,.1-.1,0-.1,0-.2,0-.4,0-.2,0-.3,0-.3,0,0,0-.1.1-.2.2-.2.1-.5.1-.5,0,0,0,0,.2-.2,0,0,0,0,0-.1,0-.2,0-.4,0-.5,0,0,0,0,0,0,0,0,0,0,0-.1.2,0,1.3.5,2,1.7ZM23.6,8.5s0,0,0,0c0,0,0,0,0,0,.2-.2.3-.4.4-.4,0,0,.7-.2.7-.2,0,0,0,0,.1,0,.2,0,.7,0,1,.3h0s.4,0,.5.3c.1.3.4.8.4.9h0c0,.1,0,.2-.1.4,0,0,0,0,0,0,0,0,0,0,0,0,0,.1,0,.5,0,.6,0,0,0,0,0,0,0,0,0,.2,0,.3s0,0,0,0c0,0,0,.3,0,.4,0,0,0,0,0,0,0,0-.2.1-.2.3,0,0,0,.4,0,.4-.1.1-.2.2-.2.3h0c0,0,0,.2,0,.3s0,.2,0,.3c0,0,0,0,0,0,0,0-.1,0-.2,0h0c0,0,0,.1,0,.1,0,0,0,.1,0,.2,0,0,0,0,0,0,0,0-.1-.2-.1-.2l.2-.6v-.9c0,0,0,0,0,0l.7-1s0,0,0,0c0-.1,0-.5-.2-.6,0,0-.3-.3-.3-.4,0-.1,0-.4,0-.4,0,0,0,0,0,0,0,0,0,0,0,0,0,0-.5.4-.6.5,0,0,0,0-.1,0-.1,0-.3,0-.4,0,0,0,0,0,0,0-.1,0-.3,0-.4.2,0,.1-.2.5-.3.5,0,.1-.1.5-.1.7,0,0,0,.1,0,.2,0,0,0,.1-.1.2,0,0,0,0,0,.1,0,.1,0,.2,0,.3,0,0,0,0,0,.1,0,.2,0,.4,0,.4,0,0,0,0,0,0,0,0,0,0,0,0s0,0,0,0c0,0,0,0,0,0,0,0,0,0-.1,0,0,0,0-.1,0-.1,0,0,0,0,0,0,0-.1-.2-.5-.2-.6,0,0-.2-1-.2-1.2,0,0,0,0,0,0h0s0,0,0,0h0c0-.2.2-.7.2-.9,0,0,.2-.5.3-.7,0,0,0-.1.2-.2ZM25.4,10.9h0s0,0,.1,0h0c0,.1,0,.2,0,.2,0,0,.1,0,.1,0h0c0,0,.1,0,.2,0l-.3.4h0s0,0,0,0c-.5.3-1,.4-1.1.4,0,0,0,0,0,0-.3,0-.6-.8-.6-.8,0,0,0,0,0,0,0,0,0-.1,0-.2,0-.1,0-.5,0-.6,0,0,.2-.4.3-.5,0,0,.2-.1.3-.1h0c0,0,.3,0,.4,0,0,0,.1,0,.2,0,0,0,.3-.3.5-.4,0,0,0,.2,0,.3,0,.2.3.4.4.5,0,0,.1.4.1.4h0s-.3.5-.3.5c0,0,0,0,0,0-.3,0-.5-.2-.5-.2,0,0-.1,0-.1,0,0,0,0,.1,0,.1ZM21.5,12.2c0,.1-.2,0-.5.3,0,0-.2,0-.3,0s-.2,0-.3,0c0,0-.1,0-.1,0,0,0-.6-.5-.6-.6,0,0,0,0-.1,0,0,0-.1,0-.2,0,0,0,0,0,0,0h0s0,0-.1,0c0,0,0,0,0,0-.1,0-.2,0-.2,0,0,0,.2-.1.2-.1,0,0,.3-.2.7-.2,0,0,.1,0,.2,0,0,0,.2,0,.2,0,.1,0,.2,0,.4.1l.3.2s0,0,0,0c0,0,.1.2.1.2,0,0,0,0,.1,0,0,0,0,0,0-.1,0,0,0-.1-.1-.2,0,0,0-.1,0-.1,0,0,0,0,0,0,0,0,0,0,0,0,0,0,0,0,0,0,0,0,0,0,0,0,0,0,0,0,0,0,0,0,0,.1.2.2.1.1,0,0,.2.4,0,0,0,.1,0,.1s0,0,0,0ZM22.2,11.9c0,0,0,0-.1.1,0,0-.2,0-.3.1,0,0,0,0,0-.1,0-.4-.1-.4-.2-.5-.1,0-.2-.2-.2-.2,0,0,0,0-.2,0h0c0,0-.1,0-.2,0,0,0,0,.1,0,.2s0,0,0,0h-.1c-.2-.2-.3-.2-.5-.2,0,0,0,0-.1,0,0-.2,0-.5.1-.5.1,0,.3-.2.5-.3,0,0,0,0,0,0,0,0,0,0,.1,0,.3.1,1.1.5,1.2.9,0,.1,0,.2,0,.3s0,.1,0,.2ZM22.8,14.1s.3-.4.3-1.1,0-.7-.2-1.1c0,0,0,0,0,0l-.3-1.1s0,0-.1,0c0,0,0,0,0,.1l.2.8c0,0-.1,0-.2,0,0-.1,0-.2,0-.3-.2-.5-1-.9-1.3-1,0,0-.1,0-.2,0h0s0,0,0,0h0s0-.1,0-.3,0-.4.3-.6c.5-.6.6-.6.8-.6.2,0,.6,0,.6,0,0,0,.3-.2.7-.2.1,0,.3,0,.4,0,0,0,0,.1-.1.2-.1.2-.3.6-.3.8,0,0-.2.7-.2.9h0s0,0,0,0c0,.2.1,1.1.2,1.3,0,.1.2.5.2.5h0c0,0,0,.3,0,.3,0,0,0,0,0,0,0,0,0,0,0,0,0,0,0,0,.1,0,0,0,0,0,0,0,0,0,0,0,0,0h0s0,0,0,0h0c0,0,.2,0,.3-.2,0,0,0-.3,0-.5s0-.1,0-.2c0-.2,0-.3,0-.3,0,0,0,0,0,0,0,0,0,0,0,0,0,.2.3.7.7.8,0,0,0,0,0,0,.1,0,.6,0,1.1-.3v.7c0,0-.3.7-.3.7h0c0,0,.2.4.3.4,0,0,0,0,0,0,.2,0,.1-.2.2-.3,0,0,0-.1,0-.2h0c0,0,0,0,0,0,0,0,0,0,0,0,0,.3.1.9.9,1.6-.4.2-.7.6-.7.6,0,0,0,0,0,0,0,0-.2,0-.2,0-.1,0-.4.2-.5.2h0s0,0,0,0c0,0,0,0,0,0-.2,0-.4.2-.6.3-.4.2-.2.5-.5.5-.1,0-.2.1-.3.2-.1.2-.1.4-.2.4,0,0,0,.1,0,.2l-1.1-.5s0,0,0,0,0,0,0,0c0,0,0,0,0-.1,0-.1,0-.2,0-.3,0,0,0,0,0,0h0c0-.2-.2-.2-.2-.3,0,0,0,0,0,0,0,0,0,0,0-.2,0,0,0-.3,0-.3,0,0,0,0,0,0,0,0,.3-.8.4-.8ZM20.8,13.5h0s.3,0,.4.2c0,0,.3.2.3.2.1.2.3.2.3.3,0,0,0,0,0,0h0c0,0,.1.2.1.3h0c0,0,.1.1.2.3,0,0,0,.2,0,.2,0,0,0,.3.1.4,0,0,0,0,0,0s0,0,0,0c0,0,0,0,0,.1,0,0,0,0,.1,0,0,0,0,0,0,0,0,0,0,0,0,0,0,0,0,0,0,0,0,0,0,0,0,0,0,0,.1.1.1.2,0,0,0,0,0,0,0,0,0,0,0,.1,0,.1,0,.2,0,.3,0,0,0,0,0,.2,0,0-.2.2-.3.2,0,0-.2,0-.2,0s0,0,0,0c0,0,0,0,0,0h0s0,0,0,0c0-.1-.2-.1-.2-.6,0,0,0,0,0,0,.1,0,.3-.1.4-.2,0,0,0-.1,0-.2,0-.2,0-.4,0-.4,0,0,0,0,0,0,0,0,0,0,0,0h0c0,0,0-.6,0-.7,0,0,0,0,0,0,0,0,0,0,0,0h0c0,0-.1-.2-.3-.3,0,0,0,0,0,0,0,0,0-.2-.2-.3-.1-.1-.3-.2-.3-.2,0,0-.3-.2-.3-.2-.2,0-.3,0-.4,0,.1,0,.2,0,.3,0ZM21.5,20.5s.4.2.4.4c0,0,0,.2,0,.2,0,.1,0,.3-.2.3,0,0,0,0-.2,0,0,0-.1,0-.2,0,0,0,0-.1-.2-.2,0,0,0,0-.1,0,0,0-.2,0-.2,0,0,0-.4.3-.5.3,0,0-.3,0-.3.2,0,0,0,.1-.4.3l-1.2.3c-.3-.4-1-1.4-1-1.4,0,0,0,0,0,0,0,0,0,0-.1-.1h0s0-.2,0-.4c0-.2,0-.3,0-.3,0,0,0,0,0,0,0,0,.1-.1.2-.2,0,0,.3-.3.3-.3.2,0,.3-.1.4-.2,0,0,.3-.3.5-.3,0,0,0,0,0,0,.4,0,1.3.1,1.3.2.1,0,.6.4.8.5,0,0,0,0,.2,0,.1,0,.3,0,.3.2h0s0,.1,0,.2c0,0,0,0,0,.2,0,0,0,0,0,0,0,0,0,0,0,0ZM20.4,22.6s0,0-.1,0c0,0,0,0,0,0h0s0,0,0,0c0,.1.1.2.2.2,0,0,0,0,0,0,0,0,0,0,0,0,0,0,0,0,0,0h-.1c0-.1,0-.1-.1,0,0,0,0,0,0,.1h.1c0,.1,0,.1,0,.1-.2,0-.2.1-.3.2,0,0,0,0-.1,0-.3,0-.6-.2-.7-.3-.1-.2-.3-.4-.3-.4,0,0,0,0-.1,0,0,0,0,0,0,.1h0s0,0,0,0c0,0,0,0,0,0h0s0-.1,0-.2l1.2-.3c.4-.2.5-.3.5-.4h0s.2,0,.2,0c.1,0,.5-.2.6-.3,0,0,0,0,.1,0s0,0,0,0c0,0,0,0,0,.1,0,.3-.3.4-.3.4h0c0,0,0,.6,0,.7,0,0,0,0-.1,0,0,0-.1,0-.1,0,0,0,0,0,0,0,0,0,0,0,0,0,0,0,0,0,0,0h0s0,0,0,0ZM20.4,22.8s0,0,0,0c0,0,0,0,0,0h0ZM20.6,17.7c-.2,0-.4,0-.5,0,.1-.3.2-.6.2-.6,0,0,0-.1,0-.2,0-.1,0-.2,0-.4,0,0,0-.2,0-.2.2,0,.7.2,1.4.2,0,.4.3.6.3.6,0,0,0,0,0,0-.2.6-.8.7-1.2.7ZM21.3,14.2s0,0,.1,0c0,0,0,0,0,0,0,0-.1,0-.2,0,0,0,0,0,0,0,0,0,0,0,0,0ZM20.5,13.7c.1,0,.2,0,.3,0,0,0,.2.2.2.2,0,0,0,0,0,0,0,0,0,0,0,.2,0,0,0,.2.2.2.2,0,.4.3.6.3,0,0,0,.1-.2.2,0,0,0,0,0,.1,0,0,0,0,0,0s0,0,0,0c0,0,.1,0,.2-.1,0,0,0,.1,0,.2,0,0,0,0,0,0-.1,0-.4.2-.4.2,0,0,0,0,0,.1,0,0,0,0,.1,0,0,0,.3,0,.5-.2,0,0,0,0,0,.1h0c0,0,0,.3,0,.4s0,0,0,0c-.1,0-.3.2-.4.2-.9,0-1.4-.2-1.5-.2,0-.2,0-.3,0-.5s0,0,0,0c0,0,0,0,0,0,0-.2,0-.4-.2-.5,0-.1-.2-.2-.2-.4s0,0,0,0c0-.2.3-.6.3-.6.1,0,.3-.1.6-.1ZM18.5,16.2c0-.1,0,0,0-.4,0-.3.4-1.4.4-1.4,0-.2.3-.3.3-.3.2-.3.4-.4.5-.4,0,0,0,0,0,0h0s0,0,0,0c0,0,0,0,0,0-.2,0-.4.5-.4.8,0,0,0,0,0,0,0,.3.2.4.2.5,0,.1.2.3.2.4h0s0,0,0,0c0,.2,0,.5.2.7,0,0,0,.2,0,.2,0,.1,0,.2,0,.3s0,.1,0,.2c0,0-.2.7-.3.8,0,0-.1,0-.3,0-.2,0-.4,0-.6,0-.1,0-.2,0-.3,0,0,0,0,0,0,0h0c0-.2-.2-.3-.6-.5,0,0,0,0,0,0,0,0,0,0,0-.1,0-.2.4-.7.5-.9ZM18,17.4c.3.2.4.3.5.4.1.2.7.3,1.2.3.1,0,.2,0,.3,0,0,0,0,0,.1-.1,0,0,0,0,0,0,0,0,.2,0,.5,0h0c.1,0,.2,0,.4,0v1.6s0,0,0,0c0,0,0,0,0,0-.2-.1-.5-.3-.6-.4-.2-.1-1-.1-1.4-.2,0,0,0,0-.1,0-.4,0-.6.3-.7.4,0,0-.2.2-.3.2-.2,0-.4.3-.4.4,0,0-.1.1-.2.2,0,0,0,0,0,0-.2,0-.2.3-.2.5,0,0,0,.2,0,.2,0,0-.1,0-.2-.1,0-.2,0-.4,0-.6,0-1.7,1-2.5,1.2-2.6ZM15.7,20.4c.3,0,1,.3,1.4.5h0s0,0,.1.1c0,0,0,0,0,0,0,0,.9,1.3,1,1.5-.6-.6-1.5-.9-1.6-1,0,0-.1,0-.1,0,0,0,0,.1,0,.1,0,0,1.5.6,1.7,1.3,0,.1,0,.2,0,.2,0,0,0,.3,0,.4h0c0,.4-.2,1.4-1,1.6.1-.2.2-.5.2-.9,0-.4-.2-1-.6-1.6,0,0,0,0-.1,0,0,0,0,0,0,.1.5.6.6,1,.6,1.4s-.1.6-.3.9c-.2.3-.7.7-1.4.8,0,0,0,0,0,0-.3,0-.4,0-.6-.2-.1,0-.2-.1-.2-.1h0s0,0,0,0c.1-.2.2-.5.3-.7.2,0,.6-.1.7-.5,0,0,0-.1,0-.2,0-.4-.2-.8-1.6-1.3.2-.1.5-.3,1.1-.3s.4,0,.7,0,0,0,0,0,0,0,0,0c-.3,0-.7,0-.7,0-.9,0-1.3.4-1.3.5,0,0-.6.4-.9,1-.1.3-.3.6-.4,1-.4-.3-1.3-1.2-1.7-1.6-.1-.1-.2-.2-.2-.2,0,0,0,0-.1,0,0,0,0,0,0,.1h0s0,0,.1.1c-.1,0-.3.2-.5.3,0,0-.2-.1-.3-.2,0,0,0-.1,0-.3,0,0,0-.2,0-.3s0-.1,0-.2c0,0,0,0,0,0,0-.4.8-.6,1-.6.3,0,1.2-.3,1.2-.3l.4-.2s0,0,0,0c0,0,0,0,0,0,0,0,0,0,0,0l.4-.2s0,0,0,0c0,0,.2.2.3.3,0,0,.2,0,.3,0,0,0,.1,0,.1,0,.2,0,.3-.2.3-.2.1,0,0-.2.1-.3,0,0,0-.3,0-.4,0,0,0-.2,0-.3,0,0,.2,0,.2-.1,0,0,.1,0,.1,0,0,0,0,0,0,0,0,0,0,0,0,0,0,0,0,0,0,0,0,0,.1,0,.3,0s.2,0,.3,0c0,0,.1,0,.2-.1ZM14.4,28.1c0,0,.5.2.5.3,0,0,.3.3.3.3,0,.1.1.2.1.2,0,0,.3.2.3.2,0,0,.4.5.4.5,0,0,0,0,0,0,0,0,0,0,0,0l-.5-.3-.4-.2s0,0-.1,0c0,0,0,0,0,.1.1.1.3.5.3.5,0,0,.1.3.2.5,0,0,0,0,0,0,0,0,0,0,0,0,0,0,0,0,0,0l-.2-.4-.4-.6s0,0,0,0h0s0,0-.1,0h0s0,0,0,0h0s0,0,0,.1v.3c0,0,.2.2.2.2v.4c.1,0,.2.3.2.3,0,0,0,0,0,0,0,0,0,0,0,0,0,0,0,0,0,0l-.4-.9h0s0,0,0,0c0,0,0,0,0,0,0,0,0,0,0,0,0,0,0,0,0,0,0,0,0,0,0,0,0,0,0,0,0,0,0,0,0,0,0,0,0,0,0,0,0,0,0,0,0,.1,0,.2,0,0,0,0,0,0,0,0-.1,0-.2,0,0,0-.2,0-.2.1,0,0,0,0,0,0,0,0,0,0,0,0,0,0,0,0,0,0,0,0,.1,0,.2-.1,0,0,0,0,0-.1,0-.1,0-.2,0-.3,0-.1-.3-.3-.3-.3,0,0-.3-.3-.3-.3-.2-.2-.3-.7-.4-1.3,0,0,0,0,0,0,0-.4,0-.8,0-1.2,0,0,0-.1,0-.2,0-.4,0-.8.2-1.2.1-.4.2-.7.4-1,.2-.5.7-.8.8-.9,1.5.5,1.6.9,1.6,1.2s0,.2,0,.2c0,.2-.6.3-.6.3,0,0,0,0,0,0,0,.1-.2.6-.3.8,0,.1-.1.2-.1.2l-.3.6s-.4.9-.4,1.1c0,0,0,0,0,0,0,.3.4.3.5.3ZM8.4,21.5h0c0-.4-.3-1.8-.3-2.7,0-.9.5-1.4.6-1.5.2,0,.5,0,.7,0,1,0,1.9-.1,2.1-.1,0,.3.2.6.3.8,0,0,0,0,0,0h0s0,.1,0,.4,0,.8.1,1.3c.2.8.4,1.6.5,1.8l-.4.2s-.9.2-1.1.2c-.2,0-1.1.2-1.2.8,0,0,0,0,0,0,0,0,0,.1,0,.2,0,.1,0,.2,0,.3,0,.2,0,.3.2.4,0,0,.2.1.3.2-.1,0-.2.2-.3.3-.2.2-.4.5-.5.8-.2-.1-.6-.4-.7-.4,0,0-.2,0-.4,0,0,0,0,0,0,0-.1-.3-.2-.6-.2-.9s0-.6.1-.8c.1-.5.2-1,.2-1.2h0ZM12.9,21.3h-.3c0-.1-.3-.9-.5-1.7-.1-.5-.1-1-.1-1.3s0,0,0-.1c0,0,0,0,0,.1,0,.2.6.9.6.9,0,0,.3.9.3.9h0s-.2.3-.2.6c0,0,0,0,0,.1,0,.1,0,.3,0,.4ZM16.6,14.8h.3c0,.1,0,.2,0,.2,0,0-.2,0-.3,0,0,0,0,0,0,0h-.1c0,0-.1,0-.1,0,0,0,0,.1,0,.1h.1c0,0,0,0,.1,0,.2,0,.3,0,.4-.1,0,0,0,0,0-.1,0,0,0-.1,0-.1h0s.4,0,.5,0c0,0,.2,0,.3,0,0,0,0,0,0,0,0,0,0,0,0,0h-.4c0,0,0,0,0,.1,0,0,0,0,0,0v.2c.2,0,.2,0,.2,0,0,0-.2.2-.2.2h0c0,.2,0,.2,0,.2,0,.3-.2.3-.1.3-.1,0-.3.1-.4.1-.2,0-.5-.1-.7-.2,0,0-.1,0-.2-.1-.2,0-.2-.1-.2-.3,0,0,0-.2,0-.2s0,0,0,0c0,0,0,0,0,0,0-.2.1-.5.2-.5,0,0,.3-.2.4-.2h.3ZM16.4,14.6h-.1s0,0,0,0c0,0-.4.1-.5.3,0,.1-.2.4-.2.7,0,0,0,0,0,0,0,0,0,0,0,0,0,0,0,.2,0,.2,0,.1,0,.3.2.4-.2,0-.5,0-.5,0-.8,0-1.1-.8-1.1-.8,0,0,0-.1,0-.2,0-.1,0-.2,0-.3l.5-.2s.8-.3,1.3-.5c0,0,0,0,0,0,0,0,0,0,0,0h0s.4.3.5.4ZM16.1,13.3s0,0-.1.1l-.5.3s0,0,0,.1c0,0,0,0,.1,0l.5-.3s0,0,0,0c0,.1,0,.2,0,.3,0,0-.1,0-.2.1-.5.2-1.3.5-1.3.5l-.6.3-.6.3c.4-.4.5-1,.6-1.3,0-.3.2-.3.5-.4.1,0,.3-.2.5-.5,0,0,0,0,0,0h0l1.3-.3s0,0,0,0c0,.2,0,.5-.2.7ZM18.8,11.1c0,.1-.3.8-.4,1.1,0,0,0,0,0,0,0,0,0,0,0,0,0,0,0,0,0,0h0s0,0,0,0c0,0,0,0,0,0h0s0,0,0,0c0,0,0,0,0,0,0,0,0,0,0,0,0,0,0,0,0,0,0,0,0,.1-.1.1,0,0,0,0-.1,0l-.2-.2s0,0-.1,0c0,0,0,0,0,.1h.1c0,.2,0,.2,0,.2h0c-.1,0-.2.1-.2.3,0,0,0,0,0,0h0c0,0-.4-.2-.4-.2l-.5-.3h0s0,0,0,0l-1.3.3c0-.2.2-.3.2-.5,0-.2,0-.3,0-.5s0-.2,0-.3c0,0,0,0,0,0,0,.1.1.1.2.1.1,0,.2,0,.3,0,0,0,0,0,0,0,0,0,.1,0,.2,0,.2,0,.5,0,.5,0,.3,0,.5-.2.6-.3.1,0,.3-.2.3-.2,0,0,0,0,0,0h0s0,0,0,0c0,0,.2,0,.3-.1,0,0,.1-.2.1-.3l.2.2c.3.2.4.2.5.2,0,0,0,0,0,.1ZM14.6,9.8s.1,0,.1,0c0,0,0,0,0-.1,0,0,0,0,0,0,0,0,0,0,0,0h0s0,0,0,0h0c0,0,.2-.2.4-.3.2,0,.5-.1.5-.1,0,0,0,0,0,0,0-.2.4-.3.7-.3.3,0,.6,0,.6,0,0,0,.2,0,.2,0,.3,0,.6,0,.8.2.2.1.3.2.3.2h0s0,0,0,0c.4,0,.6.5.6.5h0c.2.1.3.3.3.5,0,.2,0,.4,0,.4,0,0,0,0-.2.2,0,0,0,0,0,0,0,0-.1,0-.2,0-.2-.1-.2,0-.5-.2l-.4-.3s0,0-.1,0c0,0,0,0,0,0h0c0,.2,0,.3,0,.4-.1,0-.1,0-.2,0,0,0,0,0,0,0,0,0,0,0,0,0-.2,0-.3.2-.4.3-.1,0-.3.3-.6.3,0,0-.3,0-.5,0,0,0-.1,0-.1,0,0,0-.1,0-.2,0-.1,0-.2,0-.3,0s0,0,0,0c0-.1-.1-.2-.3-.4,0,0,0,0,0,0-.1-.2-.3-.4-.5-.6,0,0-.2-.1-.3-.2,0,0,0,0,0,0,0,0,0,0,0,0,0-.1.1-.3.2-.3ZM13.3,10.1s0,0,0,0c.2,0,.5,0,.9.2,0,0,.2.1.3.2.2.2.3.3.4.5,0,.2.1.4.1.6s0,.3,0,.4c0,.2-.2.4-.3.6-.2.2-.4.4-.5.5-.2,0-.4.2-.6.5-.1.3-.3,1-.6,1.3,0,0,0,0,0,.1,0,0,0,0,0,.1,0,0,0,.1,0,.2.1.3.5,1.1.5,1.6,0,0,0,0,0,0,0,0,0,0,0,0,0,.6.1,1.2.3,1.6.2.5.4,1,.6,1.1,0,0,.3,0,.4.1.1.1.4.2.5.3,0,0,0,0,.1,0,0,0,0,0,0,0-.1,0-.2,0-.3,0-.1,0-.2,0-.2,0,0,0-.1,0-.2,0h0s0,0,0,0c0,0-.2,0-.2.1,0,0-.2,0-.3.2,0,0,0,0,0,0h0s0,0,0,0c0,0,0,.2,0,.2,0,0,0,.3,0,.4,0,.1,0,.2,0,.2,0,0-.2.1-.2.1,0,0,0,0-.1,0,0,0-.1,0-.2,0,0,0-.2-.2-.3-.3,0,0,0,0,0,0,0,0-.1-.2-.1-.3s0,0,0-.1c0-.3.2-.5.2-.6h0c0-.2-.3-1-.3-1,0,0-.5-.7-.6-.9,0-.2-.4-.5-.6-1.2,0-.3-.1-.6-.2-.9,0,0,0-.2,0-.5s0,0,0-.1c0,0,0-.2,0-.3,0-.6,0-1.4,0-1.5,0,0,0,0,0-.2,0-.3.1-.8.2-1.1.2-.4.8-1.5.8-1.5,0,0,0-.1,0-.1,0,0,0,0,0,0,0,0,0,0,0,0,0,0-.7,1.1-.8,1.6-.1.3-.2.8-.2,1.1,0,0,0,0,0,0,0,0-.1,0-.2,0-.3,0-.8-.4-1.1-.9-.1-.2-.2-.3-.2-.5,0-.3.3-.7.7-1.2.5-.6,2.3-.8,2.6-.8ZM8,13.7c0-.1,0-.8.1-1.2,0-.1,0-.2,0-.3,0-.4.4-.5.7-.7.3-.2.6-.8.9-.9.3-.2,1.1-.3,1.7-.5.2,0,.5,0,.7,0s.1,0,.2,0c-.7.1-1.4.3-1.8.7-.4.5-.8.9-.8,1.3,0,.2,0,.4.2.6.4.5.8.9,1.3,1,0,0,.1,0,.2,0,0,0,0,0,0,0,0,.2,0,.9,0,1.5,0,0,0,.1,0,.2,0,0,0,0,0,0,0,0,0,0,0,0,0,0,0,0,0,0l-.8-.3c-.1,0-.9-.4-1.1-.4-.1,0-.6-.2-.7-.3-.1,0-.5-.7-.5-.8,0,0,0,0,0,0,0,0,0,0,0,0ZM6.2,15.2c0,0-.1-.3-.1-.5,0,0,0-.2,0-.2.2-.1.6-.7.6-.7.5-.9,1-1.2,1.2-1.3,0,.5-.1,1-.1,1.1h0s0,0,0,0c0,.2.4.8.6.9.2.1.6.3.8.3.1,0,1,.3,1.1.4l.7.2c-.2.2-.5.4-.9.6-.1,0-.3.1-.4.1-.4,0-.7-.3-.9-.5-.1,0-.3-.1-.4-.1-.3,0-.8.1-1.2.2,0,0,0,0,0,0-.2,0-.5-.1-.7-.3,0,0,0,0,0,0,0,0,0,0,0,0-.1-.1-.2-.3-.3-.3ZM6.4,16c0-.1,0-.2,0-.3.2.2.4.3.7.3,0,0,0,0,.1,0,.4,0,.8-.2,1.1-.2s.2,0,.3,0c.2.2.6.5,1,.5.2,0,.3,0,.5-.2.4-.3.8-.6,1-.7,0,0,0,0,0,0,0,.3,0,.5,0,.5,0,.3,0,.6.1.8-.3,0-1.1.1-2.1.1s-.5,0-.7,0c-.4,0-.8,0-1.2-.1-.2,0-.4,0-.6-.1,0,0-.2,0-.3,0-.2-.3-.3-.6-.3-.7ZM5,23.4s0,0,0,0l-.6-.4c0,0-.1-.1-.1-.2,0,0,0-.2,0-.2,0,0,.9-.9,1.3-1.7.2-.7.3-2.3.3-2.3,0-.8.3-1.2.5-1.5.1-.2.2-.2.3-.3,0,0,0,0,.1,0-.2.2-.7.9-.7,1.9l-.2,2.7h0s0,0,0,0c0,0,0,.2-.2.5,0,0-.2.5-.4.8,0,.2-.1.2-.1.2,0,0-.2.2-.2.3ZM5.9,23.8c0,0-.2,0-.4,0-.1,0-.2,0-.3-.1,0,0,0,0,0,0h0s0,0,0,0h0c0,0,.2-.2.3-.3,0,0,0,0,.1-.3.1-.3.4-.8.4-.8.1-.4.2-.5.2-.6,0,0,0,0,0,0l.2-2.7c0-1.1.6-1.8.7-1.9.1,0,.3,0,.4,0-.2.2-.8.8-.8,2s0,0,0,0c0,.6,0,1.2,0,1.9,0,.9,0,1.7-.4,2.2,0,0,0,.1-.1.2,0,0-.2.2-.2.4ZM7.2,24.3h0s-.1,0-.2-.2c-.2-.2-.5-.2-.8-.2,0,0,0,0,0,0,0,0,.2-.3.2-.3,0,0,.1-.2.1-.2.3-.6.4-1.5.4-2.3s0-1.3,0-1.9c0,0,0,0,0,0,0-1.4.8-1.9.8-1.9,0,0,0,0,0,0,.3,0,.6,0,.9.1-.2.2-.5.8-.5,1.5,0,1,.3,2.4.3,2.7,0,0,0,0,0,0,0,.2,0,.7-.2,1.1,0,.2-.1.5-.1.8s0,.6.2.9c0,0-.2,0-.3,0h0s0,0,0,0h0s0,0,0,0c0,0,0,0,0,0,0,0-.1,0-.2,0-.2,0-.4,0-.4,0ZM8.1,26.2s0,0,0,0c-.1.1-.4.3-.5.3h0c-.5,0-.6-.3-.6-.7,0-.3,0-.5,0-.7,0-.3.6-.7.8-.7,0,0,0,0,0,0,0,0,0,0,0,0,.1,0,.3,0,.4,0,.2,0,.3,0,.4,0,0,0,.2,0,.3.2.1,0,.3.2.3.2,0,0,0,0,0,0,0,0,0,0,0,0,0,.2.1.4.2.5-.2,0-.4,0-.5,0,0,0,0,0,0,0,0,0,0,0,0,0-.2,0-.9.4-1.1.6ZM8.3,26.3s0,0,0,0c.2-.2.8-.5.9-.5,0,0,0,0,0,0h0c.1,0,.4,0,.7,0,.2,0,.3,0,.3,0,.1.1.2.6.3.8,0,0,.7.5.7.5,0,0,0,0,.1,0,0,0,0,0,0-.1,0,0-.6-.5-.7-.5,0,0-.1-.6-.3-.7,0-.1-.2-.1-.4-.1,0,0,0,0,0,0,0,0-.3-.3-.3-.5,0,0,0,0,0,0,0,0,0,0,0,0,0-.2.2-.5.5-.8,0,0,.2-.2.4-.3.2-.2.5-.3.6-.4.4.5,1.3,1.4,1.8,1.6,0,0,0,0,0,0,0,.3-.1.7-.1,1.1s0,.1,0,.2c0,.4,0,.8,0,1.2-.3.3-.7.3-1.2.3-.4,0-.7,0-1.1,0-.8,0-1.5-.5-1.8-.8,0,0,0,0,0,0-.2-.2-.3-.8-.3-.8ZM17.2,30.7c0,0,.2.3.3.5,0,.1.1.3.1.5,0,.3,0,.5,0,.7,0,.2-.1.2-.5.6-.1.2-.4.2-.7.2-.3,0-.6,0-.7-.1-.4-.1-1.2-.3-1.7-.3-.4,0-1.4-.6-1.6-.7-.2,0-1.3-1-1.4-1.1-.2-.2-.5-.2-.6-.2,0,0,0,0,0,0,0,0,0,0,0,0-.2,0-1,.6-1,.6,0,0-.2.1-.2.3,0,0,0,0,0,0,0,0,0,.1,0,.2,0,.1.2.1.3.2,0,0,.1,0,.2,0,0,0,0,0,0,0,0,0,0,0,0,0,0,0,0,0,0,0-.1,0,0,.2,0,.2,0,0,0,0,0,0,0,0,0,0,0,0,0,0-.1,0-.2,0s0,0,0,0h0s-.2,0-.2,0h0s0,0,0,0c0,0,0,0,0,0,0,0,0,0,0,0h0c0-.1-.4-.8-.4-.9h0s0,0,0,0h0c0-.2.3-.9.4-1.2.2-.4.2-.7.2-.9,0-.1,0-.2.1-.2.7.6,1.4,1.3,2.3,1.8.9.4,2.8,1.2,3,1.3,0,0,.1,0,.2,0,.4.1,1.1.5,1.2.6,0,0,0,0,.1,0,0,0,0,0,0-.1,0,0-.4-.2-.7-.4,0,0,0,0,0,0,1.5,0,1.7-.8,2-1.4,0,0,0,0,0-.1ZM16.9,29.6c0,.1.2.3.2.6,0,0,0,.1,0,.2,0,0,0,0,0,0,0,0,0,.1,0,.2-.3.7-.4,1.3-1.8,1.3,0,0-.1,0-.2,0h-.4s0,0,0,0h0c0,0-.2,0-.2,0-.2,0-2.1-.8-3-1.2-.9-.4-1.5-1.1-2.2-1.8,0,0,0,0,0,0-.4-.3-.5-.8-.5-1.2s0-.2,0-.3c.3.3,1,.7,1.8.7.4,0,.8,0,1.1,0,.5,0,.9,0,1.3-.3,0,.6.2,1,.4,1.2,0,0,.3.2.3.3,0,0,0,0,.2.1,0,0,0,0,0,0,0,0,0,0,0,0,0,0,0,.2,0,.2,0,0-.1,0-.2.2,0,0,0,0,0,.2,0,0,0,.2.1.2,0,0,0,0,0,0,0,0,.1,0,.1,0,0,0,0,0,.1,0,0,0,.3,0,.4-.2l.3.6h0s0,0,.2,0c0,0,0,0,0,0,0,0,.1,0,.1-.2,0,0,0,0,0,0,0,0,0-.3,0-.3v-.3c0,0,0,0,0,0l.2.4s0,.1.2.1c0,0,0,0,0,0,0,0,.2,0,.2-.2s0,0,0-.1c0-.2-.2-.5-.2-.5,0,0,0-.1-.2-.3h0s.5.4.5.4h0s0,0,.2,0c0,0,0,0,0,0,0,0,0-.1,0-.2,0,0-.4-.5-.4-.5,0,0-.2-.1-.3-.2,0,0,0,0,0,0,0-.1-.3-.3-.3-.3,0,0-.4-.3-.6-.3-.1,0-.4,0-.3-.1h0c0-.2.4-1.1.4-1.1l.3-.6s0,0,0-.2c0,0,.4.3.9.3,0,0,.4.8.4,1.1,0,.2.3.9.4,1.5.1.4.2.7.2.7ZM16.5,28c0-.3-.2-.5-.2-.6,0-.3-.3-.9-.4-1.1.7-.1,1.2-.5,1.4-.8,0,0,0,0,0,0,.3,0,.6-.2.8-.4,0,.3-.1.6-.3,1,0,0-.1.4-.3.7,0,.3-.8.9-1,1.2ZM17.2,27.6c.2-.2.4-.5.5-.7,0-.1.1-.2.2-.3,0,.6,0,1.4,0,1.8-.4-.4-.7-.7-.7-.7ZM21.8,28.1c0,0,0,.2,0,.3s0,.1,0,.2c0,0-.2,0-.2,0-.4,0-.7.3-1.2.4-.4.1-.8.2-1,.2.1-.4.6-1.6.7-2.6,0,0,0-.6.1-1.4,0,0,0,0,0,0,0,0,0,0-.1,0h0c0,.8-.1,1.4-.1,1.4-.1,1-.6,2.3-.7,2.6-.2,0-.6-.4-1-.8,0,0,0,0,0,0,0,0-.1-1.5-.1-2.2,0-.1,0-.2,0-.3,0,0,0,0,0,0,.2-.7.3-1.1.3-1.4,0,0,0,0,0,0,.2-.4.2-.8.2-.9,0,0,0,0,0,0,0-.1,0-.4,0-.4,0,0,0,0,0-.2h.2c0-.1,0-.1,0-.1,0,0,0,.2.2.2.2.2.5.3.8.3,0,0,.1,0,.2,0,.2,0,.2-.2.2-.2.1,0,.2-.1.3-.1.1,0,.2-.2.2-.2,0,0,0,0,0,0,0,0,.3,0,.3-.2,0-.2,0-.5,0-.6,0,0,.2-.2.3-.5.2,0,.4,0,.4,0,.3,0,.4-.3.4-.5,0-.1,0-.2,0-.3,0-.2-.3-.4-.4-.4,0,0,0-.1,0-.2,0-.1,0-.2-.1-.3,0-.2-.2-.3-.4-.3v-1.7c.3,0,.6-.3.8-.6h0s0,0,0,0,.2,0,.3,0c.2,0,.4-.2.4-.2,0,0,.1-.2.2-.3l1.1.5c0,0,0,.1,0,.2,0,0,0,0,0,0,0,0,0,0,0,0,0,.2.2.3.2.3,0,0,0,0,0,0h0c0,.2,0,.4,0,.5,0,0,0,.3.2.6,0,0,0,0,0,0,0,0-.1.3-.2.3-.1,0-.5.6-.5,1.1,0,0,0,0,0,.1,0,.4.3,1.1.3,1.1,0,0,0,0,0,0h0c0,.1-.2.4-.2.4,0,0-.4.3-.6,1,0,0-.1,0-.2,0-.1,0-.3,0-.5.2-.2.2-.3.3-.3.3,0,0,0,0,0,0,0,0,0,0,0,0,0-.2-.1-.4-.1-.6,0-.9,1-1.3,1-1.3,0,0,0,0,0-.1,0,0,0,0-.1,0h0s-.3.1-.6.4c0-.2,0-.6,0-.9,0,0,.2-.5.4-1,.2-.5.5-1.1.7-1.1,0,0,0,0,0-.1,0,0,0,0-.1,0-.3.1-.6.9-.9,1.5,0-.4.2-1,.3-1.6,0,0,0-.1,0-.1,0,0,0,0-.1,0-.2.9-.4,1.9-.4,2.2,0,0,0,.1,0,.2,0,.4,0,1.1,0,1.2-.2.2-.3.5-.3.9,0,.2,0,.4.2.7,0,0,0,0,0,0-.1.2-.1.2-.2.3,0,.1-.2.6-.2.7h0s0,0,0,.1c0,0,0,0,0,0h0s0,0-.1,0c0,0,0,0,0,0,0,0-.2-.3-.3-.3,0,0,0,0-.1,0s-.2,0-.2.1c0,0,0,0,0,0,0,0-.1,0-.2.2,0,0,0,.1.1.2l.3.2s.3.2.5.3c0,0,0,0,.2,0,0,0,.2,0,.3,0,0,0,0,0,0,0,0,.1-.2.4-.2.5,0,0,0,0,0,.1,0,0,0,.2.2.2,0,0,.1,0,.2-.1h0c0,.2-.2.4-.2.5-.2.4-.4.7-.4,1.1ZM22.8,24.5s-.1,0-.1,0c0,0-.1.2-.1.4,0,.1-.1.1-.1.1,0,0,0,0,0-.2,0,0,0-.2,0-.2,0,0,0,0,0-.1,0,0,0,0-.1,0h0s0,.2,0,.3c0,0,0,.2.1.3,0,0,0,.1,0,.3,0,0,0,0,0,0,0,.1-.2.2-.3.2s0,0-.1,0c-.1,0-.4-.2-.4-.2l-.3-.2s0,0,0,0c0,0,.1,0,.2-.2,0,0,0,0,0,0,0,0,0,0,0,0,0,0,.2.3.3.3,0,0,0,0,0,0,.1,0,.3-.1.3-.2.1-.1,0-.2,0-.3h0s0,0,0,0h0c0,0,.1-.6.1-.7,0,0,0,0,.3-.4,0,0,0,0,.3-.3.1-.1.3-.2.4-.2,0,0,.1,0,.2,0-.1.4-.2.9-.3,1.5,0,0-.1.5-.3,1.1,0,0,0,0,0,0l-.2.3-.2.2c0,0,0,0,0,0,0,0,0,0,0,0,0,0,0,0,0,0h0s0,0,0,0c0,0,0-.4.1-.4,0,0,0-.2.1-.4,0-.1,0-.2,0-.3,0,0,.3,0,.3-.3,0-.2,0-.3.1-.4,0,0,0-.1,0-.1ZM22,34.2l-2.7-.9v-.6s2.7.9,2.7.9v.6ZM27.3,32.7l-5.1,1.5v-.6s5.1-1.5,5.1-1.5v.6ZM24,32.5s0,0,0-.1v-.8c-.1,0,.3-.1.3-.1l2.6.5-4.9,1.4-2.5-.8,2.5-.6-.2.8s0,0,0,.1c0,0,0,0,.1,0l.4-.9,1.1-.3.3.8s0,0,.1,0ZM22.6,31.7l.5-1.4.4,1.1-1,.2ZM23.7,31.5h0s-.5-1.4-.5-1.4c0,0,0,0,0,0,0,0,0,0,0,0l-.7,1.7h0s.2-1.2.2-1.2h0c0,0,.1-.2.1-.4,0-.2.2-.8.4-1,0-.1.2-.2.3-.2v.2s.4,2.3.4,2.3ZM25.2,24.4c-.7,1.2-1.6,2.3-1.7,2.5,0,.1,0,.2,0,.4,0,.2,0,.4.1.9,0,0,0,.2,0,.3,0,.2,0,.4-.1.5h0c0-.2,0-.2-.1-.2,0,0-.4,0-.6.3-.2.3-.3.9-.4,1.1,0,.1,0,.2-.1.3,0,0,0-.1,0-.2v-1.3c0,0-.1,0-.1,0,0,0,0,0-.1-.1,0,0,0,0,0,0,0,0,0,0,0,0,0,0,0-.2,0-.3s0-.2,0-.3c0-.2.2-.6.4-1,0-.2.2-.7.4-1.2.2-.6.3-1.1.3-1.1,0-.7.2-1.2.3-1.6.3-.8.5-1,.6-1,.1-.1.3-.6.3-.6h0s0,0,0,0l1.7-.2s.1,0,.2,0l-.5,1.1h0c0,0,0,.1,0,.2,0,.4-.2.9-.4,1.4,0,.1-.1.3-.2.4ZM27.1,25.8s-.7,1.1-.8,1.2c0,.1,0,.3,0,.5,0,0,0,.2,0,.2,0,0,0,.3,0,.3,0,0,0,0,0,.1,0,.2.1.4.2.6.1.2.3.3.3.4,0,0,0,0,0,0,0,0-.1.3-.3.3,0,0-.3,0-.6,0-.2,0-.4,0-.6,0-.3,0-.3-.2-.3-.3,0,0,0,0,0,0,0,0,.2-.5.2-.6,0,0,0-.2,0-.3,0-.1,0-.2,0-.3,0,0,0,0,0,0,0-.1.2-.5.3-.7.1-.2.1-.5.1-.7,0-.1,0-.2,0-.3,0,0,0,0,0-.2,0-.4,0-1.5,0-1.7.7-.2,1.4-.3,1.9-.3-.1,1.5-.5,1.9-.4,1.9ZM27.7,29.3l-.2-.7c-.2-.4-.2-.8-.2-1.1,0-.7.2-1.1.3-1.3,0-.3.7-1.4.7-1.4l.4-.8v-.2c0,0,0-.1.1-.2,0-.4.2-1.1.2-1.4,0,0,0,0,0,0,0-.3-.1-.9-.2-1.1,0-.1,0-.2,0-.3s0-.2,0-.3c0-.2.3-1,.3-1.3h1.1c0,0,.4-.1.7-.3,0,0,0,0,0-.1,0,0,0,0-.1,0-.2.1-.6.2-.6.2h-1.7c0,0,0,.1,0,.2,0,0,0,0,0,0h.4c0,.3-.3,1-.3,1.2,0,0,0,.2,0,.3s0,.3,0,.4c0,.2.2.8.2,1.1,0,0,0,0,0,0,0,.2-.1,1-.2,1.4,0,0,0,0,0,.1-.1,0-.5,0-1,0-.5,0-1.2.1-1.9.3.2-.5.3-.9.3-1.3,0,0,0,0,0-.1l.6-1.2h0s0,0,0,0c.1,0,.3-.1.4-.3.2-.3.9-1.3.9-1.3,0,0,0,0,0,0,0,0,.1-.2.2-.3,0,0,0,0,0,0,0,0,0,0,0,0,0,0,0,0,0-.1,0-.2.2-.5.3-.7,0,0,.2-.1.2-.1.7-.3.9-1.2.9-1.2,0,0,0,0,0,0,.3.4,1.2,1.3,2.2,1.6-.9,1.1-1.5,2.2-2,3.3,0-.4,0-.6,0-.8s0-.3,0-.3c0,0,0,0,0,0,0,0,0,0,0,0,0,0,0,.1,0,.3s0,.7,0,1.2c0,0,0,0,0,0-1.2,2.8-1.4,5.3-1.4,5.3,0,0,0,0,0,0,0,0,0,0,0,.1,0,.3.2.5.8.7,0,0,0,0,0,0s0,0,0,0c0,.2,0,.4-.1.5-.2.5-.4.9-.4,1.2,0,0,0,0,0,0,0,0,0,.2,0,.3,0,0,0,0,0,0-.3,0-.4,0-.8-1.1ZM28.4,27.7s.3-.4.3-.4c.1,0,.3-.2.6-.4,0,.3-.1.9-.2,1.5,0,0,0,0,0,0-.5-.2-.7-.4-.7-.5,0,0,0,0,0,0,0,0,0,0,0,0ZM30.5,31.6h0s0,0,0,0c0,0-.2.3-.3.4,0,0-.3.1-.4.2,0,0,0,0-.2,0s-.1,0-.2,0c-.1,0-.4-.1-.4-.1h0s-.2,0-.4,0,0,0,0,0c-.1,0-.1-.2-.2-.4,0,0,0,0,0,0,0,0,0-.1,0-.2,0-.2.1-.3.2-.4,0-.2.2-.7.2-.9h0s0,0,0,0h0c0-.2.1-.6.4-1.1.2-.6.4-2.3.4-2.3,0,0,0,0,0,0,.9-.7,2.2-1.8,2.5-2.3,0,0,0-.1.2-.2,0,0,0,0,0,0,0,2-2,4.8-2.2,5.2,0,.1,0,.3,0,.4,0,.2,0,.5,0,.7,0,.1,0,.2,0,.2,0,0,.4.7.4.7ZM33.9,30.7c0,0-.1,0-.2,0-.3,0-.4,0-.8,0-.2,0-.4,0-.6,0,0,0,0,0,0,0-.6-.1-1.4-1-1.4-1,0,0,0,0-.1,0,0,0,0,0,0,.1h0s.5.6,1,.9c-.3,0-.5,0-.8,0-.3,0-.5,0-.6,0,0,0-.1,0-.2,0,0,0,0,0,0,0h0s0,0,0,0c0-.2,0-.4,0-.5,0-.1,0-.3,0-.4.1-.2,1-1.5,1.6-3,.3.4.7.7,1,1.1,0,0,0,0,0,0,0,1.9.9,2.7,1.4,3-.1,0-.2,0-.3,0ZM34.7,30.7s0,0,0,0c0,0-1.5-.3-1.7-2.8.5.6.9,1,.9,1,0,0,0,0,0,0s0,0,0,0c0,0,0,0,0-.1,0,0-1.1-1.1-2.1-2.3,0,0,0,0,0,0,.3-.7.5-1.5.5-2.2,0,0,0-.1,0-.2.3-.2.7-.2.9-.2s.2,0,.2,0c0,0,0,0,.1,0,0,0,0,0,0-.1h0s0,0-.2,0c-.3,0-.7,0-1.1.3-.1,0-.2.2-.3.3-.3.4-1.7,1.6-2.6,2.3-.3.2-.5.4-.7.5,0,0,0,0,0,0,0,0,0,0,0,0,.1-1.2.8-5.2,3.5-8.5,0,0,.2,0,.3,0s0,0,.1,0l-.7,2.7s0,.1,0,.1c0,0,.1,0,.1,0l.7-2.7h0c.2,0,.4-.1.6-.2.2-.2,1.1-.6,1.3-1l.8-.6s.2-.1.3-.4c.3.9.6,2.1.8,3.8,0,.6,0,1.2,0,1.7,0,2.1-.4,3.9-.7,5,0-1.1-.2-3-.2-4.3s0-.8,0-1c0-.4.1-.9.1-1.3,0-.8-.1-1.3-.1-1.3,0,0,0,0-.1,0,0,0,0,0,0,.1,0,0,.1.5.1,1.3s0,.8-.1,1.2c0,.3,0,.6,0,1,0,1.5.2,3.8.2,4.7s0,.2,0,.3c0,0,0,0,0,0s0,0,0,0c0,.2,0,.5,0,.8,0,.8.2,1.7.6,2-.3,0-1,0-1.5.1Z"/>
      <path class="st0" d="M26.6,19.1l-.8.2c0,0,0,0,0,.1,0,0,0,0,.1,0h.3c0,0,0,0,0,0,0,0,0,0,0,0s0,0,0,0c0,0,0,0,0-.1h0s.3,0,.3,0c0,0,0,0,0-.1,0,0,0,0-.1,0Z"/>
      <polygon class="st0" points="21.4 15.6 21.4 15.6 21.4 15.6 21.4 15.6"/>
      <path class="st0" d="M20.2,14.8s0,0,0,0h0s0-.1.2-.2c0,0,0,0,0,0h0c0,0,0,.1.1,0,0,0,0,0,0-.1h0c0,0,0,0,0,0,0,0,0,0,0,0h0s0,0,.1,0c0,0,0,0,0-.1,0,0,0,0-.1,0-.3,0-.5.4-.5.4,0,0,0,0,0,.1,0,0,0,0,0,0Z"/>
      <path class="st0" d="M24.4,10.6c0,0,0,0,0,.1,0,0,0,0,0,0,0,0,0,0,0,0h0c0,0,.1,0,.2,0,0,0,0,0,0,0s0,0,0,0c-.3,0-.5-.2-.5-.2,0,0-.1,0-.1,0,0,0,0,.1,0,.1,0,0,0,0,.2,0h0Z"/>
      <path class="st0" d="M17.8,11.2s0,.1,0,.1h.1c0,0,0,.2,0,.2,0,0,0,.1,0,.1,0,0,.1,0,.1,0h0c0,0,.2,0,.2,0,0,0,0,0,0,0,0,0,0,0,0,0,0,0,0-.1,0-.1l-.5-.3s0,0-.1,0Z"/>
      <path class="st0" d="M24.8,11.5c-.1,0-.2,0-.2,0,0,0,0,0-.1,0,0,0,0,0,0,.1,0,0,.1.1.3.1,0,0,0,0,0,0,0,0,0,0,0,0,0,0,0,0,0,0Z"/>
      <path class="st0" d="M20.6,22.3c0,0,.1,0,.1,0,0,0,0-.1,0-.1,0,0-.3-.1-.3-.2,0,0,0,0-.1,0,0,0,0,0,0,.1,0,0,0,0,.1.1h0s0,.1,0,.1c0,0,0,0,0,0s0,0,0,0h0c0,0,.1,0,.1,0Z"/>
      <path class="st0" d="M24.9,11.2c0,0,0,0-.1,0,0,0,0,0,0,0,0,0,0,0-.1,0h0s0,0,0,0c0,.1,0,.1.3.2h0s0,0,0,0c0,0,0,0,0,0Z"/>
      <path class="st0" d="M32.8,15.9s0,0,0,0l.7-.7s0,0,0-.1c0,0,0,0-.1,0l-.7.7s0,0,0,.1c0,0,0,0,0,0Z"/>
    </g>
    <g>
      <g id="_x3C_Ripetizione_radiale_x3E_">
        <rect class="st0" x="20.7" y="40.2" width=".9" height="2.4" transform="translate(42.3 82.9) rotate(180)"/>
      </g>
      <g id="_x3C_Ripetizione_radiale_x3E_1" data-name="_x3C_Ripetizione_radiale_x3E_">
        <rect class="st0" x="17.6" y="40" width=".9" height="2.4" transform="translate(29.4 84.7) rotate(-171)"/>
      </g>
      <g id="_x3C_Ripetizione_radiale_x3E_2" data-name="_x3C_Ripetizione_radiale_x3E_">
        <rect class="st0" x="14.5" y="39.3" width=".9" height="2.4" transform="translate(16.7 83.6) rotate(-162)"/>
      </g>
      <g id="_x3C_Ripetizione_radiale_x3E_3" data-name="_x3C_Ripetizione_radiale_x3E_">
        <rect class="st0" x="11.6" y="38.1" width=".9" height="2.4" transform="translate(5.1 79.8) rotate(-153)"/>
      </g>
      <g id="_x3C_Ripetizione_radiale_x3E_4" data-name="_x3C_Ripetizione_radiale_x3E_">
        <rect class="st0" x="9" y="36.4" width=".9" height="2.4" transform="translate(-5.1 73.6) rotate(-144)"/>
      </g>
      <g id="_x3C_Ripetizione_radiale_x3E_5" data-name="_x3C_Ripetizione_radiale_x3E_">
        <rect class="st0" x="6.6" y="34.4" width=".9" height="2.4" transform="translate(-13.1 65.8) rotate(-135)"/>
      </g>
      <g id="_x3C_Ripetizione_radiale_x3E_6" data-name="_x3C_Ripetizione_radiale_x3E_">
        <rect class="st0" x="4.6" y="32" width=".9" height="2.4" transform="translate(-18.9 56.8) rotate(-126)"/>
      </g>
      <g id="_x3C_Ripetizione_radiale_x3E_7" data-name="_x3C_Ripetizione_radiale_x3E_">
        <rect class="st0" x="2.9" y="29.3" width=".9" height="2.4" transform="translate(-22.3 47.4) rotate(-117)"/>
      </g>
      <g id="_x3C_Ripetizione_radiale_x3E_8" data-name="_x3C_Ripetizione_radiale_x3E_">
        <rect class="st0" x="1.7" y="26.4" width=".9" height="2.4" transform="translate(-23.4 38.3) rotate(-108)"/>
      </g>
      <g id="_x3C_Ripetizione_radiale_x3E_9" data-name="_x3C_Ripetizione_radiale_x3E_">
        <rect class="st0" x="1" y="23.4" width=".9" height="2.4" transform="translate(-22.6 29.9) rotate(-99)"/>
      </g>
      <g id="_x3C_Ripetizione_radiale_x3E_10" data-name="_x3C_Ripetizione_radiale_x3E_">
        <rect class="st0" x=".7" y="20.3" width=".9" height="2.4" transform="translate(-20.3 22.7) rotate(-90)"/>
      </g>
      <g id="_x3C_Ripetizione_radiale_x3E_11" data-name="_x3C_Ripetizione_radiale_x3E_">
        <rect class="st0" x="1" y="17.2" width=".9" height="2.4" transform="translate(-16.9 16.9) rotate(-81)"/>
      </g>
      <g id="_x3C_Ripetizione_radiale_x3E_12" data-name="_x3C_Ripetizione_radiale_x3E_">
        <rect class="st0" x="1.7" y="14.1" width=".9" height="2.4" transform="translate(-13.1 12.7) rotate(-72)"/>
      </g>
      <g id="_x3C_Ripetizione_radiale_x3E_13" data-name="_x3C_Ripetizione_radiale_x3E_">
        <rect class="st0" x="2.9" y="11.2" width=".9" height="2.4" transform="translate(-9.2 9.8) rotate(-63)"/>
      </g>
      <g id="_x3C_Ripetizione_radiale_x3E_14" data-name="_x3C_Ripetizione_radiale_x3E_">
        <rect class="st0" x="4.6" y="8.6" width=".9" height="2.4" transform="translate(-5.8 8.1) rotate(-54)"/>
      </g>
      <g id="_x3C_Ripetizione_radiale_x3E_15" data-name="_x3C_Ripetizione_radiale_x3E_">
        <rect class="st0" x="6.6" y="6.2" width=".9" height="2.4" transform="translate(-3.2 7.2) rotate(-45)"/>
      </g>
      <g id="_x3C_Ripetizione_radiale_x3E_16" data-name="_x3C_Ripetizione_radiale_x3E_">
        <rect class="st0" x="9" y="4.2" width=".9" height="2.4" transform="translate(-1.4 6.6) rotate(-36)"/>
      </g>
      <g id="_x3C_Ripetizione_radiale_x3E_17" data-name="_x3C_Ripetizione_radiale_x3E_">
        <rect class="st0" x="11.6" y="2.5" width=".9" height="2.4" transform="translate(-.4 5.9) rotate(-27)"/>
      </g>
      <g id="_x3C_Ripetizione_radiale_x3E_18" data-name="_x3C_Ripetizione_radiale_x3E_">
        <rect class="st0" x="14.5" y="1.3" width=".9" height="2.4" transform="translate(0 4.8) rotate(-18)"/>
      </g>
      <g id="_x3C_Ripetizione_radiale_x3E_19" data-name="_x3C_Ripetizione_radiale_x3E_">
        <rect class="st0" x="17.6" y=".6" width=".9" height="2.4" transform="translate(0 2.8) rotate(-9)"/>
      </g>
      <g id="_x3C_Ripetizione_radiale_x3E_20" data-name="_x3C_Ripetizione_radiale_x3E_">
        <rect class="st0" x="20.7" y=".3" width=".9" height="2.4"/>
      </g>
      <g id="_x3C_Ripetizione_radiale_x3E_21" data-name="_x3C_Ripetizione_radiale_x3E_">
        <rect class="st0" x="23.8" y=".6" width=".9" height="2.4" transform="translate(.6 -3.8) rotate(9)"/>
      </g>
      <g id="_x3C_Ripetizione_radiale_x3E_22" data-name="_x3C_Ripetizione_radiale_x3E_">
        <rect class="st0" x="26.8" y="1.3" width=".9" height="2.4" transform="translate(2.1 -8.3) rotate(18)"/>
      </g>
      <g id="_x3C_Ripetizione_radiale_x3E_23" data-name="_x3C_Ripetizione_radiale_x3E_">
        <rect class="st0" x="29.7" y="2.5" width=".9" height="2.4" transform="translate(5 -13.3) rotate(27)"/>
      </g>
      <g id="_x3C_Ripetizione_radiale_x3E_24" data-name="_x3C_Ripetizione_radiale_x3E_">
        <rect class="st0" x="32.4" y="4.2" width=".9" height="2.4" transform="translate(9.4 -18.3) rotate(36)"/>
      </g>
      <g id="_x3C_Ripetizione_radiale_x3E_25" data-name="_x3C_Ripetizione_radiale_x3E_">
        <rect class="st0" x="34.8" y="6.2" width=".9" height="2.4" transform="translate(15.6 -22.8) rotate(45)"/>
      </g>
      <g id="_x3C_Ripetizione_radiale_x3E_26" data-name="_x3C_Ripetizione_radiale_x3E_">
        <rect class="st0" x="36.8" y="8.6" width=".9" height="2.4" transform="translate(23.3 -26.1) rotate(54)"/>
      </g>
      <g id="_x3C_Ripetizione_radiale_x3E_27" data-name="_x3C_Ripetizione_radiale_x3E_">
        <rect class="st0" x="38.5" y="11.2" width=".9" height="2.4" transform="translate(32.3 -27.9) rotate(63)"/>
      </g>
      <g id="_x3C_Ripetizione_radiale_x3E_28" data-name="_x3C_Ripetizione_radiale_x3E_">
        <rect class="st0" x="39.7" y="14.1" width=".9" height="2.4" transform="translate(42.3 -27.6) rotate(72)"/>
      </g>
      <g id="_x3C_Ripetizione_radiale_x3E_29" data-name="_x3C_Ripetizione_radiale_x3E_">
        <rect class="st0" x="40.4" y="17.2" width=".9" height="2.4" transform="translate(52.6 -24.8) rotate(81)"/>
      </g>
      <g id="_x3C_Ripetizione_radiale_x3E_30" data-name="_x3C_Ripetizione_radiale_x3E_">
        <rect class="st0" x="40.6" y="20.3" width=".9" height="2.4" transform="translate(62.6 -19.6) rotate(90)"/>
      </g>
      <g id="_x3C_Ripetizione_radiale_x3E_31" data-name="_x3C_Ripetizione_radiale_x3E_">
        <rect class="st0" x="40.4" y="23.4" width=".9" height="2.4" transform="translate(71.6 -11.9) rotate(99)"/>
      </g>
      <g id="_x3C_Ripetizione_radiale_x3E_32" data-name="_x3C_Ripetizione_radiale_x3E_">
        <rect class="st0" x="39.7" y="26.4" width=".9" height="2.4" transform="translate(78.8 -1.9) rotate(108)"/>
      </g>
      <g id="_x3C_Ripetizione_radiale_x3E_33" data-name="_x3C_Ripetizione_radiale_x3E_">
        <rect class="st0" x="38.5" y="29.3" width=".9" height="2.4" transform="translate(83.8 9.7) rotate(117)"/>
      </g>
      <g id="_x3C_Ripetizione_radiale_x3E_34" data-name="_x3C_Ripetizione_radiale_x3E_">
        <rect class="st0" x="36.8" y="32" width=".9" height="2.4" transform="translate(86.1 22.6) rotate(126)"/>
      </g>
      <g id="_x3C_Ripetizione_radiale_x3E_35" data-name="_x3C_Ripetizione_radiale_x3E_">
        <rect class="st0" x="34.8" y="34.4" width=".9" height="2.4" transform="translate(85.4 35.8) rotate(135)"/>
      </g>
      <g id="_x3C_Ripetizione_radiale_x3E_36" data-name="_x3C_Ripetizione_radiale_x3E_">
        <rect class="st0" x="32.4" y="36.4" width=".9" height="2.4" transform="translate(81.6 48.8) rotate(144)"/>
      </g>
      <g id="_x3C_Ripetizione_radiale_x3E_37" data-name="_x3C_Ripetizione_radiale_x3E_">
        <rect class="st0" x="29.7" y="38.1" width=".9" height="2.4" transform="translate(75 60.5) rotate(153)"/>
      </g>
      <g id="_x3C_Ripetizione_radiale_x3E_38" data-name="_x3C_Ripetizione_radiale_x3E_">
        <rect class="st0" x="26.8" y="39.3" width=".9" height="2.4" transform="translate(65.8 70.5) rotate(162)"/>
      </g>
      <g id="_x3C_Ripetizione_radiale_x3E_39" data-name="_x3C_Ripetizione_radiale_x3E_">
        <rect class="st0" x="23.8" y="40" width=".9" height="2.4" transform="translate(54.7 78.1) rotate(171)"/>
      </g>
    </g>
  </g>
</svg>