<?xml version="1.0" encoding="UTF-8"?>
<svg id="Layer_1" xmlns="http://www.w3.org/2000/svg" version="1.1" viewBox="0 0 314.9 89">
  <!-- Generator: Adobe Illustrator 29.6.0, SVG Export Plug-In . SVG Version: 2.1.1 Build 207)  -->
  <defs>
    <style>
      .st0 {
        fill: #fff;
      }
    </style>
  </defs>
  <g>
    <path class="st0" d="M29.4,52.3l.3-.3.4.8-.3-.9h-.3l-.3.4h.3,0ZM29.4,52.4h.2s.1.2.1.2h.1c0,0-.2-.4-.2-.4l-.2.2h0ZM30.3,50.9c0,0,.1,0,.1.2,0,.4.3.5.3,0,0-.1,0-.2.1-.2h0c0,0-.6-.2-.6-.2h0c0,0,0,0,0,0ZM30.9,48l-.6-.3v2.8l.6.2v-2.7h0ZM30.7,47.4l-.2.2h.2s0,.2,0,.2h.1c0,0-.2-.4-.2-.4ZM70.2,49.9h.4s-.4,0-.4,0h-.2c0,.1.2,0,.2,0ZM30.5,52.5l.3-.3.4.7-.3-.8h-.3l-.3.4h.3,0ZM30.5,52.6h.2s0,.2,0,.2h.1c0,0-.2-.4-.2-.4l-.2.2ZM31.9,48.5l-.6-.3v2.6l.6.2v-2.5h0ZM30.8,47.1h-.3l-.3.4h.3l.3-.3.3.7-.3-.8h0ZM70.2,50.8h.4s-.4,0-.4,0h-.2c0,.1.2,0,.2,0h0ZM70.2,51.3h.4s-.4,0-.4,0h-.2c0,.1.2,0,.2,0h0ZM29.1,50.6c.1,0,.1,0,.2.3,0,.4.3.6.4.1,0-.2.1-.2.2-.2h0c0,0-.8-.3-.8-.3h0c0,0,0,0,0,0ZM69.9,50.4h0s.2,0,.2,0h.4c-.2,0-.4,0-.6,0h0ZM25.6,44.6l-.4.5h.4l.4-.4.5,1-.4-1.2h-.4ZM26.8,51.9h.2s.1.2.1.2h.2c0,0-.2-.4-.2-.4l-.3.2h0ZM27.2,45.4h-.3l-.4.4h.3l.3-.3.4.8-.4-.9h0ZM69.9,55.3h.6s-.6,0-.6,0h0ZM26.8,51.8l.3-.3.4.9-.4-1h-.3l-.4.5h.3ZM26,51.1h-.4l-.4.5h.4l.4-.4.5,1-.5-1.2h0ZM25.4,49.3l.8.2v-3.5l-.8-.3v3.6h0ZM25.6,51.8h.3s.1.3.1.3h.2c0,0-.3-.5-.3-.5l-.3.2h0ZM27.1,45.7l-.2.2h.2s.1.2.1.2h.1c0,0-.2-.4-.2-.4h0ZM26.2,45.7l-.3-.6-.3.2h.3s.1.3.1.3h.2c0,0,0,0,0,0ZM24.9,55.8h.2c-.1,0-.5,0-.6,0h0s.4,0,.4,0h0ZM29.1,50.3l.8.2v-2.9l-.8-.3s0,3,0,3ZM24.5,55.3h.6s-.6,0-.6,0h0ZM27.3,46.5l-.7-.3v3.4l.7.2v-3.3h0ZM26.6,50c0,0,.1,0,.2.3,0,.5.3.6.4,0,0-.2,0-.2.2-.2h0c0,0-.7-.3-.7-.3h0c0,0,0,.1,0,.1ZM24.5,54.8h.6s-.6,0-.6,0h0ZM28,52l.4-.3.4.9-.4-1h-.3l-.4.5s.3,0,.3,0ZM27.7,50.2c0,0,.1,0,.2.3,0,.4.3.6.4,0,0-.2,0-.2.2-.2h0c0,0-.7-.3-.7-.3,0,0,0,0,0,0ZM28.2,46.2l-.2.2h.2s0,.2,0,.2h.1c0,0-.2-.4-.2-.4h0ZM28.3,45.9h-.3l-.3.4h.3l.3-.3.4.7s-.3-.8-.3-.9ZM29.4,47.1h.2s.1.2.1.2h.1c0,0-.2-.4-.2-.4,0,0-.2.2-.2.2ZM28,52.2h.2s.1.2.1.2h.2c0,0-.2-.5-.2-.5l-.3.2h0ZM29.7,46.5h-.3l-.4.4h.3l.3-.3.4.8-.4-.9h0ZM70.2,52.2h.4s-.4,0-.4,0h-.2c0,0,.2,0,.2,0h0ZM70.2,52.6h.4s-.4,0-.4,0h-.2c0,0,.2,0,.2,0ZM25.4,49.7c.1,0,.1.1.2.3,0,.5.3.7.4.1,0-.2,0-.2.2-.2h0c0,0-.8-.3-.8-.3h0c0,0,0,0,0,0ZM70.5,54.8h-.6s.6,0,.6,0h0ZM28.4,47l-.7-.3v3.2l.7.2v-3.1ZM31.3,51.2c0,0,.1,0,.1.2,0,.3.3.5.3,0,0-.1,0-.2.1-.2h0c0,0-.6-.2-.6-.2h0c0,0,0,0,0,0ZM70.2,51.7h.4c-.2,0-.4,0-.6,0h0s.2,0,.2,0ZM19.5,58.5c0-.3,0-.6,0-1v-4.4c0-2.6-1.7-3-1.7-.1,0,.1,0,5.1,0,5.1v.6l1.6-.2ZM69.9,46h0s.2,0,.2,0h.4s-.4,0-.4,0h-.2c0,.1,0,.1,0,.1ZM70.5,45.4h-.6c0,.1,0,.2,0,.2h.2c0-.1.4-.1.4-.1h0s0,0,0,0ZM70.2,45h.4s-.4,0-.4,0h-.2c0,.1,0,.2,0,.2h.2c0-.1,0-.1,0-.1ZM31.7,47.9l-.2.2h.2s0,.2,0,.2h.1c0,0-.2-.4-.2-.4ZM69.9,44.7h.2c0-.1.4-.1.4-.1h0s-.4,0-.4,0h-.2c0,.1,0,.2,0,.2h0ZM70.2,46.3h.4s-.4,0-.4,0h-.2c0,.1,0,.2,0,.2h.2c0-.1,0-.1,0-.1ZM70.2,48.1h.4s-.4,0-.4,0h-.2c0,.1.2,0,.2,0h0ZM69.9,47.7h0s.2,0,.2,0h.4s-.4,0-.4,0h-.2c0,0,0,0,0,0ZM70.2,46.8h.4s-.4,0-.4,0h-.2c0,.1,0,.2,0,.2h.2c0,0,0-.1,0-.1ZM70.2,47.2h.4s-.4,0-.4,0h-.2c0,.1.2,0,.2,0h0ZM69.9,44.2h0s.2,0,.2,0h.4s-.4,0-.4,0h-.2c0,.1,0,.1,0,.1ZM24.1,58v-7.9l-.8-.2v-.8l-.8-.2v-2.9h0v.4h-.1c0-.2-.1-.4-.2-.6h1l-1.7-1.2-1.7,1.2h1c-.1.2-.2.4-.2.6h-.2c0,.1.3.1.3.1,0-.5.3-.8.7-.9.5,0,.9.3.9.7h0v.2h.2v2.4h-.4v-.4h-.6c0,.1-.1.1-.1.1h0c0-.1-.5-.1-.5-.1l-3.4-.8v-1.7h0v.4h-.1c0-.2-.1-.4-.2-.6h1l-1.7-1.2-1.7,1.2h1c-.1.2-.2.4-.2.6h-.2c0,.1.3.1.3.1,0-.5.3-.9.7-.9.5,0,.9.3.9.7v.2h.2v1.1h-.4v-.9h-.6v.6h-.1v-.6h-.6v.5l-1.9-.5-1.6-.4h0c0,0,1.3.4,1.3.4h0c0,.1-1.4-.2-1.4-.2h0s1.4.4,1.4.4v1.2l-1.4-.3v.2l11.9,2.3s0,7.8,0,7.7h0ZM22,45.7c-.3-.4-.9-.4-1.3,0,0,0,0,0,0,0h0c0-.1-.5-.1-.5-.1l1.1-.8,1.1.8h-.5c0,.1,0,.1,0,.1ZM16.9,45.7c-.3-.4-.9-.4-1.3,0,0,0,0,0,0,0h0c0-.1-.4-.1-.4-.1l1.1-.8,1.1.8h-.5c0,.1,0,.1,0,.1ZM14.4,48.2h-.6v-1.4l.6.2v1.3h0ZM15.6,48.5l-1.1-.2v-1.1l1.1.3v1ZM15.6,47.4l-1.1-.3h0c0-.1,1.1.2,1.1.2h0ZM16.4,48.6h-.6v-1.3h.6v1.3ZM17.6,48.8l-1.1-.2v-1l1.1.3v.9ZM17.6,47.8l-1.1-.3h0c0-.1,1.1.2,1.1.2h0ZM18.2,49h-.5v-1.2h.5v1.2ZM19.2,49.2l-.9-.2v-.9l.9.2v.9ZM19.2,48.3l-.9-.2h0c0,0,.9.2.9.2h0c0,0,0,0,0,0ZM19.8,49.3h-.5v-1.1h.5v1.1h0ZM20.8,49.5l-.9-.2v-.8l.9.2v.8h0ZM20.8,48.6l-.9-.2h0c0,0,.9.1.9.1h0c0,0,0,0,0,0ZM21.3,49.5h-.4v-1h.4v1ZM22.1,49.7l-.8-.2v-.8l.8.2s0,.7,0,.7ZM22.1,49l-.8-.2h0c0,0,.8.1.8.1h0c0,0,0,0,0,0ZM22.5,49.8h-.2v-.9h.2v.9ZM23.2,49.9h-.7v-.8l.7.2v.7ZM23.2,49.2l-.7-.2h0c0,0,.7,0,.7,0h0ZM17.1,58.2c.1,0,0-5,0-5.2,0-1.2-.4-2.2-.9-2.3s-.9.9-.9,2.2,0,5.5,0,6.2l1.7-.2v-.6ZM17,46.5c0-1.1-1.3-1.1-1.3,0,0,0,1.3,0,1.3,0h0ZM22,48.4v-1.6h-.6v1.6h.6ZM22,46.5c0-1.1-1.3-1.1-1.3,0,0,0,1.4,0,1.3,0h0ZM70.5,43.6h-.6c0,.1,0,.2,0,.2h.2c0-.1.4-.1.4-.1h0s0,0,0,0ZM14.4,59.1c0-.4,0-.8,0-1.1v-5.2c0-3-2.2-3.6-2.2-.2,0,.9,0,6,0,6.7l2.1-.2h0ZM23.3,58.1c0-1.7,0-2.9,0-4.6,0-2.2-1.2-2.6-1.2,0v4c0,.3,0,.6,0,.9h1.2c0-.1,0-.1,0-.1ZM15.9,69.9c.6,1.1.9,2.2,1,3.4,0,0,.1-.2.1-.3.2-3.3-1.3-6.2-3.6-7.4-.3,2.1.2,6,3.1,7.8.1,0,.2,0,.3,0h0c-.3-1.8-.9-3.4-2-4.9-.3-.5-.6-1-.8-1.5.5,1,1.3,1.9,1.8,2.9h0ZM70.2,48.6h.4s-.4,0-.4,0h-.2c0,.1.2,0,.2,0h0ZM21.7,58.3c0-.3,0-.6,0-.9v-4.1c0-2.4-1.5-2.8-1.6-.1,0,0,0,4.7,0,4.7v.6l1.5-.2h0ZM20.7,48.4h.6v-1.6h-.6v1.6ZM70.5,43.1h-.6c0,.1,0,.2,0,.2h.2c0-.1.4-.1.4-.1h0s0,0,0,0ZM70.2,49h.4s-.4,0-.4,0h-.2c0,.1.2,0,.2,0ZM32.3,51.4c0,0,.1,0,.1.2,0,.3.3.5.3,0,0-.1,0-.2.2-.1h0c0,0-.6-.2-.6-.2h0ZM32.8,48.4l-.2.2h.2s0,.2,0,.2h.1c0,0-.2-.4-.2-.4ZM32.8,48.1h-.3l-.3.4h.3l.3-.3.3.7-.3-.8h0ZM32.5,52.8l.2-.2.3.6-.3-.7h-.2l-.3.3h.2,0ZM69.9,49.5h0s.2,0,.2,0h.4s-.4,0-.4,0h-.2c0,0,0,0,0,0ZM32.5,52.9h.2s0,.2,0,.2h.1c0,0-.2-.3-.2-.3,0,0-.2.2-.2.2ZM31.5,52.6l.3-.3.3.7-.3-.8h-.3l-.3.4h.3ZM31.8,47.6h-.3l-.3.4h.3l.3-.3.3.7-.3-.8h0ZM32.9,48.9l-.6-.3v2.5l.6.2v-2.4h0ZM34.4,49.1l-.2.3h.2l.2-.2.3.5-.2-.6h-.2ZM31.5,52.7h.2s0,.2,0,.2h.1c0,0-.2-.4-.2-.4l-.2.2h0ZM34.5,53.2h.1s0,.1,0,.1h0s-.1-.3-.1-.3h-.2c0,.1,0,.1,0,.1ZM34.3,51.7h.4c0,.1,0-2,0-2l-.4-.2s0,2.2,0,2.1ZM34.7,49.6v-.3c-.1,0-.3.1-.3.1h.1s0,.1,0,.1h0s0,0,0,0ZM34.7,52.8h-.2l-.2.3h.2l.2-.2.3.5-.2-.6h0ZM34.3,51.9c.1,0,0,.5.2.4.1,0,0-.4.2-.3h0c0,0-.4-.2-.4-.2h0ZM33.8,52.7h-.2l-.3.3h.2l.2-.2.3.6-.3-.7ZM33.6,53.1h.2s0,.2,0,.2h.1c0,0-.2-.3-.2-.3l-.2.2h0ZM33.5,48.6l-.3.3h.2l.2-.2.3.6-.3-.7h-.2ZM33.9,49.3l-.2-.4-.2.2h.2s0,.2,0,.2h.1c0,0,0,0,0,0ZM33.3,51.7c0,0,.1,0,.1.2,0,.3.3.4.3,0,0-.1,0-.2.1-.1h0c0,0-.6-.2-.6-.2h0c0,0,0,0,0,0ZM56.8,49.2l-.7.4h.4s-.3,0-.3,0l.6-.3.6.3h-.3s.4,0,.4,0c0,0-.7-.4-.7-.4h0ZM41.3,56c.3,0,.3.4.6.4.3,0,.3-.5.6-.4h0c0,0-1.2,0-1.2,0h0ZM24.5,54.4h.6s0,0,0,0h-.2s-.4,0-.4,0h0ZM40,49.2l-.7.4h.4s-.3,0-.3,0l.6-.3.6.3h-.3s.4,0,.4,0-.7-.4-.7-.4h0ZM42.2,55.7v-1.7h-.7v1.7h.7ZM42.2,51.9v-1.7h-.7v1.7h.7ZM41.9,53l-.7.4h.4s-.3,0-.3,0l.6-.3.6.3h-.3s.4,0,.4,0l-.7-.4h0ZM39.4,52.2c.3,0,.3.4.6.4.3,0,.3-.5.6-.4h0c0,0-1.2,0-1.2,0h0ZM42.4,50.1h-1c0,0,1,0,1,0h0ZM39.4,56c.3,0,.3.4.6.4.3,0,.3-.5.6-.4h0c0,0-1.2,0-1.2,0h0ZM53.7,50.1h-1c0,0,1,0,1,0h0ZM40.5,53.9h-1c0,0,1,0,1,0h0ZM40.3,51.9v-1.7h-.7v1.7h.7ZM40.3,55.7v-1.7h-.7v1.7h.7ZM40.5,50.1h-1c0,0,1,0,1,0h0ZM40,53l-.7.4h.4s-.3,0-.3,0l.6-.3.6.3h-.3s.4,0,.4,0-.7-.4-.7-.4h0ZM45.8,49.2c-.5,0-.8.5-.8,1,0,.3,0,4.6,0,1.5-.1-2.3,1.5-1.8,1.5-.4v1.5s0-2.6,0-2.6c0-.5-.3-.9-.8-1h0ZM47.5,49.2c-.5,0-.8.5-.8,1v2h.1v.6h0v-.6h-.2v-1.5h.1l.2.6s.5,0,.5,0h.5l.2-.6h.1v1.5h-.2v.6h0v-.6h.1v-2c0-.5-.3-.9-.8-1h0ZM49.2,49.2c-.5,0-.8.5-.8,1v2.6-1.5c.1-1.4,1.7-1.9,1.6.4,0,3.1,0-1.2,0-1.5,0-.5-.3-.9-.8-1h0ZM41.3,52.2c.3,0,.3.4.6.4.3,0,.3-.5.6-.4h0c0,0-1.2,0-1.2,0h0ZM51.6,54h-.5v-4.5c0-.1,0-.4.2-.3.1.2.2,0,.3-.2h-.6v-.2h-.2v.2h-.5c0,.1.1.3.2.2.2-.1.2.2.2.3v4.5h-.3v.2h-.3v.2h1.5v-.2h-.2v-.2h0ZM53.7,53.9h-1c0,0,1,0,1,0h0ZM53.1,53l-.7.4h.4s-.3,0-.3,0l.6-.3.6.3h-.3s.4,0,.4,0c0,0-.7-.4-.7-.4h0ZM53.5,55.7v-1.7h-.7v1.7h.7ZM52.5,56c.3,0,.3.4.6.4.3,0,.3-.5.6-.4h0c0,0-1.2,0-1.2,0h0ZM44.8,48.9h2.8s-2.7,0-2.7,0c0,0-.1,0-.1,0h-.3s.3,0,.3,0h.1c0,0,0,0,0,0ZM50.3,48.9h.1c0,0,.3,0,.3,0h0s-.3,0-.3,0c0,0-.1,0-.1,0h-2.7s2.7,0,2.7,0h0ZM41.9,49.2l-.7.4h.4s-.3,0-.3,0l.6-.3.6.3h-.3s.4,0,.4,0-.7-.4-.7-.4h0ZM47.1,52.2h.9v-.9h-.9v.9ZM37.6,52.2c.3,0,.3.4.6.4.3,0,.3-.5.6-.4h0c0,0-1.2,0-1.2,0h0ZM44.5,54h-.3v-4.5c0-.1,0-.4.2-.3,0,0,.1,0,.2,0,0,0,0,0,0,0h0c0-.1-.5-.1-.5-.1v-.2h-.2v.2h-.6,0c0,.2,0,.2.2.2,0,0,0,0,0,0,.1-.1.2.2.2.3v4.5h-.5v.2h-.2v.2h1.5v-.2h-.3v-.2h0ZM38.2,49.2l-.7.4h.4s-.3,0-.3,0l.6-.3.6.3h-.3s.4,0,.4,0-.7-.4-.7-.4h0ZM85,63.5c0-.2,0-.9-.3-.7,0,0-.1.1-.2.1,0,0,0-.3,0-.7,0-.6-.2-1.5-.7-1.4-.5.2-.6.8-.8,1.3,0,.2-.2.7-.3.4-.2-.3-.4,0-.5.3-.1.4,0,1.2-.2,1.6,0,0,0,0-.2,0,0,0-.2,0-.3,0-.3.2-.2.8-.2.9s.2.3.2.4c0,0-.4-.2-.5,0-.1.2-.2.5,0,.8,0,.2.3.4.3.5s0,0-.2.1-.1.4-.2.6c0,.1-.1.2-.2.4,0,0-.1.6.1.5.2-.2.4-.5.6-.8.8-1.1,1.3-2.4,1.7-3.7-.4,1.7-1.1,3.2-2.1,4.6.7-.3,1.3-.8,1.8-1.4,0-.2-.2,0-.2-.2.4-.2,1.1-.4,1.4-.8.2-.2.6-.8.1-.9-.1,0-.3,0-.3,0,0-.1,1.1-1.3,1.2-1.8h0ZM84.1,21c-.1.1,0,.3,0,.4,0,0-.2,0-.4,0-1.2,0-1.5,1-.4,1.5.2.1.4.2.2.4-.1.1-.2.3,0,.5,0,0,0,0,.2.1.4.2.9,0,1,.2,0,.1,0,.2-.1.3,0,.3.4.4.6.3,0,0,.3-.3.3-.2,0,0-.2.4-.1.5,0,.2.3.1.5,0s.3-.4.4-.3,0,.1,0,.2.2.1.3.2.1.2.2.2c.2.1.4,0,.3-.2-.2-.4-.5-.8-.8-1.1-.4-.5-1-.9-1.6-1.2,0,0,0,0,0,0,.9.4,1.7,1,2.2,1.9l.2.3c0-.2,0-.4,0-.6,0-.4-.2-.8-.4-1.2-.2,0,0,.2-.2.2,0-.5,0-1-.2-1.5,0-.2-.2-.3-.3-.3-.3,0-.2.4-.4.5,0,0,0,0-.2-.2-.2-.4-.8-1.4-1.3-.9h0ZM82.7,59.3c0-.7,0-5.9,0-6.7,0-1.4-.5-2.5-1.1-2.4s-1.1,1.2-1.1,2.5v5.2c0,.4,0,.8,0,1.1l2.1.2ZM38.5,51.9v-1.7h-.7v1.7h.7ZM77.1,58.7c0-.6,0-4.9,0-5.7,0-2.9-1.7-2.5-1.7.1v4.4c0,.3,0,.6,0,1l1.6.2h0ZM74.8,58.4c0-.6,0-4.6,0-5.2,0-2.7-1.6-2.3-1.6.1v4c0,.3,0,.6,0,.9l1.5.2h0ZM79.6,59c0-.7,0-5.4,0-6.2,0-3.1-1.8-2.7-1.8.1v4.8c0,.3,0,.7,0,1,0,0,1.7.2,1.7.2ZM82.9,47.8l-1.4.3v-1.2l1.4-.3h0s-1.4.3-1.4.3h0c0-.1,1.3-.5,1.3-.5h0c0,0-3.4.8-3.4.8v-.5h-.6v.6h-.1s0-.6,0-.6h-.6v.8h-.4c0,0,0-1,0-1h.2c0-.5.3-.9.8-.9s.8.3.8.8h0c0,.1.3.1.3.1h0c0-.1-.2-.1-.2-.1,0-.2,0-.4-.2-.6h1l-1.7-1.2-1.7,1.2h1c-.1.2-.2.4-.2.6h-.1v-.4h0v1.7l-3.4.8h-.4c0,.1-.1.1-.1.1h0c0-.1-.6-.1-.6-.1v.3h-.2c0,0-.2.1-.2.1v-2.4h.2c0-.5.3-.9.8-.9s.8.3.8.8h0c0,.1.3.1.3.1h0c0-.1-.2-.1-.2-.1,0-.2,0-.4-.2-.6h1l-1.7-1.2-1.7,1.2h1c-.1.2-.2.4-.2.6h-.1v-.4h0v2.9l-.8.2v.8l-.8.2v7.9h0v-7.7l11.9-2.3v-.2h0ZM72.5,49.8h-.7c0,.1,0-.5,0-.5l.7-.2v.7h0ZM72.5,49.1l-.7.2h0c0,0,.7-.2.7-.2h0c0,0,0,0,0,0ZM72.7,49.8h-.2s0-.8,0-.8h.2s0,.8,0,.8ZM73.7,49.6l-.8.2v-.7l.8-.2v.8ZM73.7,48.8l-.8.2h0c0,0,.8-.3.8-.3h0ZM74.1,49.5h-.4c0,0,0-.8,0-.8h.4c0,0,0,.8,0,.8ZM75.1,49.3l-.9.2v-.8l.9-.2v.8h0ZM75.1,48.4l-.9.2h0c0,0,.9-.3.9-.3h0ZM75.7,49.2h-.5c0,0,0-.9,0-.9h.5c0-.1,0,.9,0,.9ZM76.7,49l-.9.2v-.9l.9-.2v.9ZM76.7,48l-.9.2h0c0,0,.9-.3.9-.3h0ZM77.2,48.9h-.5c0,0,0-1,0-1h.5c0-.1,0,1,0,1ZM78.6,48.6l-1.1.2v-.9l1.1-.3s0,1,0,1ZM78.6,47.6l-1.1.3h0c0,0,1.1-.4,1.1-.4h0c0,.1,0,.1,0,.1ZM79.2,48.5h-.6c0,.1,0-1,0-1h.6c0-.1,0,1,0,1ZM80.6,48.2l-1.1.2v-1l1.1-.3v1.1ZM80.6,47.1l-1.1.3h0c0-.1,1.1-.4,1.1-.4h0c0,.1,0,.1,0,.1ZM81.3,48.1h-.6c0,.1,0-1.1,0-1.1l.6-.2v1.3ZM90.2,47.6c.3-.5.7-1.1.5-1.7-.2-.4-.4.1-.6.1,0-.4,0-.8.2-1.3,0-.4.1-1.2-.5-1.3-.2,0-.2.3-.3.4s-.1-.2-.3-.5c-.3-.4-.8-.9-1.2-.5s0,1.5,0,1.8c0,.4-.2.1-.4.3-.3.3,0,1,.3,1.3.2.3.4.5,0,.6-.1,0-.2.2-.2.3,0,.3,0,.6.3.8,0,0,.3,0,.4.1,0,0,0,0-.2.1-.4.2-.2.6,0,.8.1,0,.5,0,.5.1s0,.1,0,.2,0,.4.1.5c0,.1,0,.3,0,.4,0,.1.2.5.3.2.2-1.1.2-2.3,0-3.4,0-.5-.1-1-.3-1.4.3,1.2.5,2.5.4,3.8,0,.3,0,.7,0,1,.4-.7.7-1.5.8-2.2,0-.2-.2.2-.2,0,0,0,.2-.4.3-.5h0ZM89,26.6c.2.3.4.7.4,1,0,.1-.1-.3-.2,0,0,.8,0,1.5.2,2.3.3-1.3.6-2.6.7-3.9,0,.6,0,1.3-.2,2-.1.6-.3,1.4-.4,2,0,0,0,.2.1.2.3-.1.2-.4.3-.6,0-.1.2-.3.2-.4-.1-.5.1-.1.4-.2.2,0,.4-.2.4-.5,0-.2-.3-.4-.3-.5s.2,0,.3,0c.3-.2.5-.5.4-.9,0-.2-.3-.4-.3-.5,0-.2,0-.3.2-.6.2-.2,0-.7.4-.8v-.2c0-.2-.1-.4-.3-.3,0,0-.2,0-.2-.4.1-.8,0-1.7-.3-2.5-.4-.5-.8.2-1,.8-.1.3-.2.6-.2.6-.1-.1-.1-.5-.3-.4-.2,0-.3.3-.3.6-.1.5.3,2.2.2,2.4,0,0-.2-.1-.3-.2s-.2-.1-.3,0c0,.4,0,.8,0,1.1h0ZM91.2,33.3c-.3.7.3,1.7.4,2.4,0,.1,0-.3-.2,0,0,.6,0,1.1,0,1.7,0,.4,0,.7,0,.7.5-1.6.7-3.2,1.3-4.8,0-.2,0,.1,0,.2-.4,1.5-.7,3.2-1.1,4.7,0,0,0,.2.1.2.3,0,.2-.3.3-.6,0,0,.2-.3.2-.4-.1-.5.1-.1.4-.1.2,0,.4-.2.4-.4,0-.3-.3-.5-.3-.6s.3,0,.4,0c.3-.1.5-.4.4-.7,0-.2,0-.3-.2-.5-.3-.2,0-.3.1-.7.4-.4.7-1.6.1-1.7,0,0-.2,0-.1-.4,0-.4.2-1.9-.1-2.4-.4-.5-.8.1-1.1.6-.2.3-.2.6-.3.6-.1-.1,0-.5-.3-.5-.7.2-.4,1.4-.3,2,0,.3,0,.6,0,.9-.1,0-.4-.5-.5-.2h0ZM90.8,40.7c.1-.7.1-1.5,0-2.2-.1,0-.1.2-.2.2.1-.6.2-1.1.2-1.7,0-.2,0-.4-.2-.5-.2-.2-.3.3-.5.4-.2-.4-.2-1.4-.5-1.8-.1-.2-.3-.2-.5-.1-.2,0,0,.3-.1.5,0,0-.2-.1-.4-.2-1-.5-1.6.2-1,1.1.1.2.2.4.4.6,0,.2,0,.3,0,.3s-.4.3,0,.7c.2.3.7.5.9.7,0,.2-.3.2-.2.6,0,.4.4.4.5.4s.3-.2.4-.1-.3.3-.2.5c0,.2.3.3.4.3.3,0,.6-.4.5,0,0,.1.2.2.3.3,0,.1,0,.2.1.3,0,.2.3.2.4,0,0-.5-.2-1-.5-1.5-.3-.8-.7-1.5-1.2-2.2h0c0,0,0,0,0,0,.8,1,1.4,2.3,1.8,3.5h0ZM88.6,54.4c.2-.6.7-1.5,0-1.9-.2,0-.2.2-.4.3,0,0,0-.3-.2-.6-.2-.6-.5-1.2-1-1-.4.3-.4,1-.5,1.4,0,.2,0,.7-.2.5-.3-.2-.4,0-.5.5,0,.6.2,1.3.2,1.5s-.3-.1-.5.2c-.1.3-.1.6,0,.9,0,0,.3.2.3.3s-.4,0-.5.2c0,.2,0,.5.1.7.2.3.7.2.3.5,0,0,0,.4,0,.5,0,.1,0,.3-.1.4,0,.1,0,.2,0,.4.1.1.2,0,.2,0,.7-1.5,1.1-3.2,1.2-4.9,0,.3,0,.6,0,.9-.2,1.4-.5,2.8-1,4.1.3,0,.6-.6.8-.9.1-.2.9-1.2.5-1,0,0-.1,0-.1,0,.3-.3.9-.7,1.2-1.2.1-.2.2-.4.2-.7,0-.4-.4,0-.6-.1,0,0,.2-.6.3-.8h0ZM88.2,28.3c-.2-.3-.4-1.2-.9-1.5-.2-.1-.4,0-.5,0-.2.1,0,.3,0,.5,0,0-.2,0-.5,0-.5,0-1.1,0-1.2.7,0,.5.4.9.8,1.1,0,0,.1.1,0,.2-.2.1-.3.5.3.7-.4,0-.5.5-.3.6,0,0,.1,0,.2,0,.2,0,.7-.1.9,0,0,0-.1.2-.2.3,0,.2,0,.5.3.5,0,0,.2,0,.3,0,0,0,.3-.3.3-.2s-.2.4-.2.6c0,.2.3.2.5.1s.4-.4.4-.4,0,.1,0,.2.2.2.3.2c0,0,.1.3.2.3,0,0,.2,0,.3,0,0,0,0-.1,0-.2-.3-.7-.7-1.4-1.2-1.9-.2-.2-1.2-1.5-1.2-1.5s.7.8.8.9c.2.3.6.6.8.9.3.4.7.9.9,1.4,0-.2,0-.5,0-.7,0-.5-.2-.9-.3-1.3,0-.1,0-.2-.2-.1,0,0,0,.2,0,.2,0-.4,0-.7,0-1.1,0-.3,0-.5-.1-.8,0-.3-.4-.5-.5-.1,0,.1,0,.3-.1.4h0ZM85.9,17.6c0,.2.3.6.3.7-.1,0-.4-.3-.5.1,0,.7.8,1.3,1.1,1.9,0,.1-.2-.2-.2,0,.2.7.4,1.4.7,2.1,0-1.5-.3-3.6-.3-4.9,0,1.3.3,2.7.4,4,0,.3,0,.6,0,1,0,0,0,.1.1,0,.2-.2,0-.4.1-.7,0-.1.1-.4,0-.5s0-.1,0-.2.3,0,.4-.1c.2-.1.4-.6,0-.8-.3-.2,0-.1.2-.2,0,0,.1-.2.2-.3.1-.4,0-.8-.3-1,0,0-.2,0-.2-.1.1-.5.2-1,.2-1.5,0-.4-.2-.8-.5-.7,0,0-.2,0-.2-.2,0-.3-.1-.7-.2-1-.3-1.2-1.1-1.6-1.2.1,0,.3,0,.6,0,.6-.1,0-.2-.3-.4-.2-.4.4,0,1.3.3,1.9h0ZM38.7,53.9h-1c0,0,1,0,1,0h0ZM37.6,56c.3,0,.3.4.6.4.3,0,.3-.5.6-.4h0c0,0-1.2,0-1.2,0h0ZM36.3,49.2l-.7.4h.4s-.3,0-.3,0l.6-.3.6.3h-.3s.4,0,.4,0-.7-.4-.7-.4h0ZM38.7,50.2h-1c0,0,1,0,1,0h0ZM35.7,52.2c.3,0,.3.4.6.4.3,0,.3-.5.6-.4h0c0,0-1.2,0-1.2,0h0ZM38.2,53l-.7.4h.4s-.3,0-.3,0l.6-.3.6.3h-.3s.4,0,.4,0-.7-.4-.7-.4h0ZM38.5,55.7v-1.7h-.7v1.7h.7ZM36.7,55.7v-1.7h-.7v1.7h.7ZM36.8,53.9h-1c0,0,1,0,1,0h0ZM35.7,56c.3,0,.3.4.6.4.3,0,.3-.5.6-.4h0c0,0-1.2,0-1.2,0h0ZM72.1,76.9c.4-.3.6-.9.4-1.4,0-.2-.2,0-.3,0,0-.6,0-1.1,0-1.7-.3-1.4-.9-.2-1.2.4,0,.2-.2.1-.2,0-.4-1.1-.7,1.3-.8,1.5,0,0-.1-.2-.3-.3-.3,0-.7.1-1,.2-.3.2-.5.6-.4,1,0,.2.6.5,0,.4s-.7.5-.5.9c0,.2.4.3.4.5,0,0-.1,0-.2.2s0,.5-.1.6c0,.3-.2.4-.2.6,0,.4.3.3.4,0,.3-.6.7-1.2,1.2-1.8h.3c.6-.6,1-1.3,1.3-2.1,0,0,0,.2,0,.2-.3.7-.7,1.4-1.2,2h-.3c-.5.7-.8,1.3-1.2,2,.3-.2.7-.4.9-.6.2,0,.3-.2.5-.3.3,0,.6-.2.4-.4,0,0,0,0,0-.1.1,0,.5,0,.7,0,.4,0,.8-.1.9-.5,0-.1,0-.3-.1-.4,0,0-.2-.1-.2-.2s.4-.3.8-.6h0ZM36.3,53l-.7.4h.4s-.3,0-.3,0l.6-.3.6.3h-.3s.4,0,.4,0l-.7-.4h0ZM36.7,51.9v-1.7h-.7v1.7h.7ZM36.8,50.2h-1c0,0,1,0,1,0h0ZM42.4,53.9h-1c0,0,1,0,1,0h0ZM24.5,47.7h.6c0,0,0,0,0,0h-.2c0,0-.4,0-.4,0h0ZM24.5,47.2h.6c0,0,0,0,0,0h-.2c0,0-.4,0-.4,0h0ZM24.5,46.8h.6c0,0,0,0,0,0h-.2c0,0-.4,0-.4,0h0ZM24.5,49h.6c0,0,0,0,0,0h-.2c0,0-.4,0-.4,0h0ZM24.5,46.3h.6c0,.1,0,0,0,0h-.2c0-.1-.4-.1-.4-.1h0ZM24.5,48.6h.6c0,0,0,0,0,0h-.2c0,0-.4,0-.4,0h0ZM24.5,48.1h.6c0,0,0,0,0,0h-.2c0,0-.4,0-.4,0h0ZM24.5,45.9h.6c0,.1,0,0,0,0h-.2c0-.1-.4-.1-.4-.1h0ZM25.1,43.3h-.2c0-.1-.4-.1-.4-.1h0s.4,0,.4,0h.2c0,.1,0,0,0,0h0ZM24.5,43.6h.6c0,.1,0,0,0,0h-.2c0-.1-.4-.1-.4-.1h0ZM24.5,44.1h.6c0,.1,0,0,0,0h-.2c0-.1-.4-.1-.4-.1h0ZM24.5,45h.6c0,.1,0,0,0,0h-.2c0-.1-.4-.1-.4-.1h0ZM24.5,44.5h.6c0,.1,0,0,0,0h-.2c0-.1-.4-.1-.4-.1h0ZM24.5,45.4h.6c0,.1,0,0,0,0h-.2c0-.1-.4-.1-.4-.1h0ZM24.5,49.5h.6c0,0,0,0,0,0h-.2c0,0-.4,0-.4,0h0s0,0,0,0ZM24.5,57.1c.2,0,.4,0,.6,0h0c-.1,0-.5,0-.6,0h0ZM25.1,56.2h0c-.2,0-.4,0-.6,0h0c.1,0,.5,0,.6,0h0ZM24.5,57.6c.2,0,.4,0,.6,0h0c-.2,0-.4,0-.6,0h0ZM24.5,54h.6s-.2,0-.2,0h-.4s0,0,0,0ZM24.5,53.1h.6s0,0,0,0c-.2,0-.4,0-.6,0h0ZM24.5,56.7c.1,0,.5,0,.6,0h0c-.2,0-.4,0-.6,0h0ZM24.5,53.5h.6s0,0,0,0h-.2s-.4,0-.4,0h0ZM24.5,50.4c.2,0,.4,0,.6,0h0s-.2,0-.2,0h-.4ZM24.5,50.8c.2,0,.4,0,.6,0h0s-.2-.1-.2-.1h-.4ZM24.5,51.3c.2,0,.4,0,.6,0h0s-.2-.1-.2-.1h-.4ZM24.5,49.9h.6c0,0,0,0,0,0h-.2c0,0-.4,0-.4,0h0ZM24.5,52.6h.6s0,0,0,0c-.2,0-.4,0-.6,0h0ZM24.5,51.7h.6s0,0,0,0c-.2,0-.4,0-.6,0h0s0,0,0,0ZM24.5,52.2h.6s0,0,0,0c-.2,0-.4,0-.6,0h0ZM54.4,52.2c.3,0,.3.4.6.4.3,0,.3-.5.6-.4h0c0,0-1.2,0-1.2,0h0ZM55.3,51.9v-1.7h-.7v1.7h.7ZM55,49.2l-.7.4h.4s-.3,0-.3,0l.6-.3.6.3h-.3s.4,0,.4,0c0,0-.7-.4-.7-.4h0ZM55.5,50.2h-1c0,0,1,0,1,0h0ZM56.8,53l-.7.4h.4s-.3,0-.3,0l.6-.3.6.3h-.3s.4,0,.4,0c0,0-.7-.4-.7-.4h0ZM57.3,53.9h-1c0,0,1,0,1,0h0ZM57.2,55.7v-1.7h-.7v1.7h.7ZM53.1,49.2l-.7.4h.4s-.3,0-.3,0l.6-.3.6.3h-.3s.4,0,.4,0-.7-.4-.7-.4h0ZM52.5,52.2c.3,0,.3.4.6.4.3,0,.3-.5.6-.4h0c0,0-1.2,0-1.2,0h0ZM54.4,56c.3,0,.3.4.6.4.3,0,.3-.5.6-.4h0c0,0-1.2,0-1.2,0h0ZM55,53l-.7.4h.4s-.3,0-.3,0l.6-.3.6.3h-.3s.4,0,.4,0-.7-.4-.7-.4h0ZM55.5,53.9h-1c0,0,1,0,1,0h0ZM55.3,55.7v-1.7h-.7v1.7h.7ZM56.2,56c.3,0,.3.4.6.4.3,0,.3-.5.6-.4h0c0,0-1.2,0-1.2,0h0c0,0,0,0,0,0ZM57.3,50.2h-1c0,0,1,0,1,0h0ZM59,51.9v-1.7h-.7v1.7h.7ZM58.7,53l-.7.4h.4s-.3,0-.3,0l.6-.3.6.3h-.3s.4,0,.4,0c0,0-.7-.4-.7-.4h0ZM59.2,50.2h-1c0,0,1,0,1,0h0ZM58.7,49.2l-.7.4h.4s-.3,0-.3,0l.6-.3.6.3h-.3s.4,0,.4,0c0,0-.7-.4-.7-.4h0ZM53.5,51.9v-1.7h-.7v1.7h.7ZM68.8,57.8c.6,0,1.2.1,1.7.2h0s-.4,0-.4,0h-.6v-5.5h-.8v5.3h-.4v-5.1h-.7v5h-.4v-4.9h-.7v4.7h-.7v-4.6h-.8v4.4h-.4v-4.2h-.7v4.1h-.4v-4h-.6v3.9h-.4v-3.7h-.6v3.6h-.4v-3.5h-.7v3.4h-.4v-3.2h-.4v3.1h-.5s0-8.1,0-8.1c0,0,0-.2.1-.3,2.5-1.3,7.8-4.3,10.2-5.6h12l.8-1h-12.8l-4.4,2.6-6.1,3.7h-24.4l-10.5-6.3h-12.8l.8,1h12c2.4,1.3,7.8,4.2,10.2,5.6,0,0,.1.2.1.3v8s-.5,0-.5,0v-3.1h-.4s0,3.2,0,3.2h-.4s0-3.2,0-3.2h-.7c0,0,0,3.4,0,3.4h-.4s0-3.5,0-3.5h-.6c0,0,0,3.6,0,3.6h-.4s0-3.8,0-3.8h-.6c0,0,0,3.9,0,3.9h-.4s0-4,0-4h-.7c0,0,0,4.1,0,4.1h-.4s0-4.3,0-4.3h-.8c0,0,0,4.4,0,4.4h-.6c0,0,0-4.6,0-4.6h-.7c0,0,0,4.7,0,4.7h-.4s0-4.9,0-4.9h-.7c0,0,0,5,0,5h-.4s0-5.1,0-5.1h-.8c0,0,0,5.3,0,5.3h-.6c0,0-.4,0-.4,0h0s.4,0,.4,0c.5,0,9.5-1.1,10.3-1.2h24.7l8.9,1.1h0ZM43.1,55.9h-.2v.8h-7.6v-7.7c0-.1.1-.2.3-.3h7.5v.5c0,0,0,6.6,0,6.6ZM51.9,55.9h-.2v.8h-1.8v-2.8c0-.3-.3-.6-.6-.6s-.6.3-.6.6h0v2.3h.1v.5h-.9v-.3h.1v-2.5c0-.3-.3-.6-.6-.6s-.6.3-.6.6v2.3h.1v.5h-.9v-.3h.1v-2.5c0-.3-.3-.6-.6-.6s-.6.3-.6.6v2.8h-1.7v-.8h-.2v-7.1c0,0,8.8,0,8.8,0v.5c0,0,0,6.6,0,6.6h0ZM52.2,56.7v-.8h-.2v-7.1h7.6c.1,0,.2.1.2.3v7.7s-7.5,0-7.5,0h0ZM58.1,52.2c.3,0,.3.4.6.4.3,0,.3-.5.6-.4h0c0,0-1.2,0-1.2,0h0ZM56.2,52.2c.3,0,.3.4.6.4.3,0,.3-.5.6-.4h0c0,0-1.2,0-1.2,0h0c0,0,0,0,0,0ZM57.2,51.9v-1.7h-.7v1.7h.7ZM70.5,54.4c-.2,0-.4,0-.6,0h0c.2,0,.4,0,.6,0h0ZM59.2,53.9h-1c0,0,1,0,1,0h0ZM58.1,56c.3,0,.3.4.6.4.3,0,.3-.5.6-.4h0c0,0-1.2,0-1.2,0h0ZM59,55.7v-1.7h-.7v1.7h.7ZM33.3,51.4l.6.2v-2.2l-.6-.3v2.3h0ZM31.1,41.1c0,0,0,0,0,0h-.7c0,0,0,0,0,0v.4h.2v-.4h.1v.4h.2v-.4h0ZM30.8,41.9h.2v-.4h-.2v.4ZM33.2,41.9h.2v-.4h-.2v.4ZM30.5,41.9h.2v-.4h-.2v.4ZM32.8,41.9h.2v-.4h-.2v.4ZM62.2,41.1c0,0,0,0,0,0h-.7c0,0,0,0,0,0v.4h.2v-.4h0v.4h.2v-.4h0ZM61.9,41.9h.2v-.4h-.2v.4ZM17,37.5h-.6v1.6h.6v-1.6ZM59.9,43c0-.4,0-.9,0-1.3,0-.5-.2-.3-.2,0,0,0,.1-.1.1,1.3h0ZM33.6,37.8h-.4v.6h.4v-.6ZM33.4,41.1c0,0,0,0,0,0h-.7c0,0,0,0,0,0v.4h.2v-.4h0v.4h.2v-.4h0ZM62.5,44.7v-.3c.1,0-.8,0-.8,0v.3c.1,0,.9,0,.8,0ZM30.8,38.4h.4v-.6h-.4v.6ZM62.2,43.9c-.3,0-.6.1-.6.4h.2c0-.2.2-.3.4-.4h0ZM31.1,37l-.6.6.6-.5.5.3h-.9l-1.1,1.3-.5.3v.5s5.6,0,5.6,0l2.2,2.5-2.3-2.3h-5.5c0,0,0,4.2,0,4.2l-4.3-2.5h-2.3v-3.9l.2-.2v-.5c.1,0-2.7,0-2.7,0v.3h2.4v4.3h-4.9v-3.9l.2-.2v-.5c.1,0-2.7,0-2.7,0v.3h2.4v4.3h-5.1l-.2.3h12.8c2.5,1.5,8,4.9,10.5,6.4h24.4c2.5-1.5,8-4.9,10.5-6.4,0,0,12.8,0,12.8,0l-.2-.3h-5v-4.3h2.3v-.3c.1,0-2.7,0-2.7,0v.3c.1,0,.1.2.1.2l.2.2v3.9h-4.9v-4.3h2.3v-.3c.1,0-2.7,0-2.7,0v.3c.1,0,.1.2.1.2l.2.2v3.9h-2.3l-4.3,2.5v-4.3h-5.5c0,0-2.3,2.4-2.3,2.4l2.2-2.5h5.6v-.5l-.5-.3-1.1-1.3h-.9l.5-.3.6.5-.6-.6-.5.4h-.2l.8-.7-1.6-2.9-2.1,4.9-1.7,2.5-1,.2h-6.3c-.4,0-.3.5-.4.6-.3.2-.4,0-.6,0h-.7l.2.8c0,.2.3.4.5.3h0c0-.2,0-.5.3-.5h.4v.7h7.7s-.3-.9-.3-.9l2-2.3h5.5c0-.1,0,2.3,0,2.3l-1.1.8h-4.5l-.8.8h-11.2c0,0,0-.1,0-.2h-1.7c0,0,0,.1,0,.2h-11.2l-.8-.8h-4.5l-1.1-.8v-2.5h.1c0,.1,5.3.1,5.3.1l2,2.3-.3.9h7.7v-.8c.2,0,.6,0,.6.2v.3c.3,0,.5,0,.6-.3h0l.2-.8h-.7c0,0-.2,0-.2,0-.1,0-.3,0-.4,0,0,0,0-.6-.4-.6h-6.3l-1-.2-1.7-2.5-2.1-4.9-1.6,2.9.8.7h-.2l-.5-.4h0ZM63.6,38v-.2c0-.3.4-.2.6-.2.2,0,.2.3.2.4l.2.6c0,.2,0,.2-.2.2-.2,0-.3.2-.5.2-.2,0-.3-.2-.5-.2,0,0,0,0,0-.1,0,0,0,0,0,0l.2-.6h0ZM62.2,38.8c0,0-.2,0-.3,0-.2.1-.5.1-.7,0,0,0-.3,0-.3-.2l.2-.6v-.2c0-.3.4-.2.6-.2,0,0,.2,0,.2.2v.2l.2.6s0,.1,0,.1c0,0,0,0,0,0h0ZM61.2,37.5l.5-.3.5.3h-.9ZM61.6,36.8l.7.7h-.1l-.5-.4-.5.4h-.2l.7-.7h0ZM50.4,42.4c0-.3.6-.3.6,0h-.6ZM62.4,44.9h0c0,0-.8,0-.8,0v.7l-.9.6v-1.5c0-.3-.2-.4-.2.2s0,1.8,0,1.8c.2-.2.6-.4.8-.6v.5l-1.6,1.1h-1.9v-2.2h1.1v-.2s-1.2,0-1.2,0h0v2.3h-1.8v-2.2h1.1v-.2s-1.2,0-1.2,0h0v2.3h-1.8v-2.2h1.1v-.2s-1.2,0-1.2,0h0v2.3h-1.8v-2.2h1.1v-.2s-1.2,0-1.2,0h0v2.3h-1.1c0-.1-1-.1-1-.1h0c0,.1-1.5.1-1.5.1v-2.2h1.1v-.2s-1.2,0-1.2,0h0v2.3h-2.6v-2.2h0c0-.1-1.2-.1-1.2-.1v.2h1.1v2.2s-1.5,0-1.5,0h0c0-.1-1-.1-1-.1h0c0,.1-1.1.1-1.1.1v-2.2h0c0-.1-1.2-.1-1.2-.1v.2h1.1v2.2s-1.8,0-1.8,0v-2.2h0c0-.1-1.2-.1-1.2-.1v.2h1.1v2.2s-1.8,0-1.8,0v-2.2h0c0-.1-1.2-.1-1.2-.1v.2h1.1v2.2s-1.8,0-1.8,0v-2.2h0c0-.1-1.2-.1-1.2-.1v.2h1.1v2.2s-1.8,0-1.8,0l-1.6-1.1v-.5c.2.1.6.5.8.6,0,0,0-1.4,0-1.8,0-.6-.2-.5-.2-.2v1.5l-.9-.6v-.7h-.8c0,0-1.7-1.1-1.7-1.1h3.8l.8.7h8.1c0,.1,0,.1,0,.1h0c0-.1,1.2-.1,1.2-.1h0c0,.1,0,.1,0,.1h0c0-.1,5.3-.1,5.3-.1h0c0,.1,0,.1,0,.1h0c0-.1,1.2-.1,1.2-.1h0c0,.1,0,.1,0,.1h0c0-.1,8.1-.1,8.1-.1l.8-.7h3.8l-1.7,1.2h0ZM43.6,44.3h1.2,0c0,0-1.2,0-1.2,0,0,0,0,0,0,0ZM50.2,44.3h1.2s-1.2,0-1.2,0h0c0,0,0,0,0,0ZM47.7,44h-.4.4ZM34.7,43.4l.8.8h24l.8-.8h4.3l-.2.2h-4.1l-.8.7h-8c0,0,0,0,0,0h-1.6,0c0,.1-2.6.2-2.6.2h-2.6s0-.2,0-.2h-1.6,0c0,.1-8,0-8,0l-.8-.7h-4.1l-.2-.2h4.3,0ZM44.3,42.2c.1,0,.3,0,.3.2h-.6c0-.1.1-.2.3-.2h0ZM33.4,36.8l.7.7h-.2l-.5-.4-.5.4h-.1l.7-.7h0ZM33.8,37.5h-.9l.5-.3.5.3ZM33,38v-.2c0-.3.4-.2.6-.2.2,0,.2.3.2.4l.2.6c0,.1,0,.2-.1.2-.2,0-.3.2-.5.2-.2,0-.3-.1-.5-.2-.1,0-.2,0-.2-.2l.3-.6ZM31.6,38.8c-.2,0-.3.2-.5.2-.2,0-.3-.1-.5-.2-.1,0-.2,0-.2-.2l.2-.6v-.2c0-.3.4-.2.6-.2.1,0,.2,0,.2.2v.2l.2.6s0,.1,0,.1c0,0,0,0,0,0h0ZM35.6,42.1c0,.4,0,.9,0,1.3,0-1.4.1-1.3.1-1.3,0-.3-.2-.5-.2,0h0ZM35,41.7c0,.4,0,.9,0,1.3,0-1.4.1-1.3.1-1.3,0-.3-.2-.5-.2,0h0ZM79.3,37.5h-.6v1.6h.6v-1.6ZM61.6,41.9h.2v-.4h-.2v.4ZM78.7,40.8h.6v-1.6h-.6v1.6ZM78.6,37.5h-.6v1.6h.6v-1.6ZM16.4,40.8h.6v-1.6h-.6v1.6ZM15.7,40.8h.6v-1.6h-.6s0,1.6,0,1.6ZM16.3,37.5h-.6v1.6h.6v-1.6ZM78,40.8h.6v-1.6h-.6v1.6ZM64.3,41.9h.2v-.4h-.2v.4ZM63.9,41.9h.2v-.4h-.2s0,.4,0,.4ZM73,40.8h.6v-1.6h-.6v1.6ZM64.5,41.1c0,0,0,0,0,0h-.7c0,0,0,0,0,0v.4h.2v-.4h0v.4h.2v-.4h0ZM73.6,37.5h-.6v1.6h.6v-1.6ZM74.3,37.5h-.6v1.6h.6v-1.6ZM73.7,40.8h.6v-1.6h-.6v1.6ZM59.4,43.4c0-.4,0-.9,0-1.3,0-.5-.2-.3-.2,0,0,0,.1-.1.1,1.3h0ZM42.2,44.8c0,.3-.3.3-.3,0s-.5.4-.5.4h1.2s-.4-.7-.4-.4h0ZM40.4,44.8c0,.3-.3.3-.3,0s-.5.4-.5.4h1.2s-.4-.7-.4-.4h0ZM44.7,44.6h-1.1c0,0,1.1,0,1.1,0h0ZM43.9,45.2c.2,0,.2-.4.3-.4s.2.4.3.4.2-.5.2-.5h-1.1s0,.5.3.5h0ZM43.8,47.2h.6s-.6,0-.6,0h0ZM46,45.8h-.7v1.4h.7v-1.4ZM42.4,45.8h-.7v1.4h.7v-1.4ZM38.8,45.8h-.7v1.4h.7v-1.4ZM34.8,44.7h.2c0-.1,0-.2.2-.2h0c-.3,0-.5,0-.5.2h0ZM32.9,43.9h0c.2,0,.4.2.4.4h.2c0-.2-.2-.4-.5-.4h0ZM37,45.8h-.7v1.4h.7v-1.4ZM45.8,44.8c0,.3-.3.3-.3,0s-.5.4-.5.4h1.2s-.4-.7-.4-.4h0ZM38.6,44.8c0,.3-.3.3-.3,0s-.5.4-.5.4h1.2s-.4-.7-.4-.4h0ZM40.6,45.8h-.7v1.4h.7v-1.4ZM36.8,44.8c0,.3-.3.3-.3,0s-.5.4-.5.4h1.2s-.4-.7-.4-.4h0ZM58.6,44.8c0,.3-.3.3-.3,0s-.4.4-.4.4h1.2s-.4-.7-.4-.4h0ZM56.2,47.2h.7v-1.4h-.7v1.4ZM54.9,44.8c0,.3-.3.3-.3,0s-.4.4-.4.4h1.2s-.5-.7-.5-.4h0ZM56.7,44.8c0,.3-.3.3-.3,0s-.4.4-.4.4h1.2s-.5-.7-.5-.4h0ZM58,47.2h.7v-1.4h-.7v1.4ZM59.9,45.3s.2-.1.2,1.3h0v-1.3c0-.5-.2-.3-.2,0h0ZM47.5,45.2h1.1c0,0-2.2,0-2.2,0h1.1c0,0,0,0,0,0ZM54.4,47.2h.7v-1.4h-.7v1.4ZM59.7,44.5c.1,0,.2,0,.2.2h0s.2,0,.2,0c0-.2-.1-.3-.5-.2h0ZM51.4,44.6h-1.1c0,0,1.1,0,1.1,0h0c0,0,0,0,0,0ZM49.5,44.8c0,.3-.3.3-.3,0s-.4.4-.4.4h1.2s-.4-.7-.4-.4h0ZM49,47.2h.7v-1.4h-.7v1.4ZM50.5,45.2c.2,0,.2-.4.3-.4s.2.4.3.4.2-.5.2-.5h-1.1s0,.5.2.5h0ZM52.6,47.2h.7v-1.4h-.7v1.4ZM50.5,47.2h.6s-.6,0-.6,0h0ZM53.1,44.8c0,.3-.3.3-.3,0s-.4.4-.4.4h1.2s-.5-.7-.5-.4h0ZM34.9,45.3v1.3h0c0-1.4.2-1.3.2-1.3,0-.3-.2-.5-.2,0h0ZM2.8,36.1c0,0,.2.2.3.2-.3-.6-.5-1.2-.6-1.8-.4-2,0-4,0-6,.1,2.6-.5,5.3.6,7.7h0c.1,0,.3-.1.3-.3,1.4-3,1-6.5-1-9.1-1.1,2.2-1.9,6.2.4,9.3h0ZM5,39.5c-.3,1.1-.9,2.1-1.7,2.9,0,0,.2,0,.3,0,1.1-.7,2-1.7,2.5-2.8.6-1.6.7-3.3.5-5-2.5,1.1-3.8,4.1-3.5,7.4,0,.2,0,.3.2.4.7-.9,1.3-1.9,1.6-2.9.4-1.1.6-2.4,1-3.5-.4,1.2-.5,2.4-.9,3.6h0ZM15.8,10.8c2.3-.5,3.8-2.7,5.6-4.1-1.4,1.2-2.5,2.8-4.1,3.6-.3.3-2.1.5-1.2.7,3.6.2,5.9-3.4,6.6-5.2-1.4-.2-2.9.2-4.1,1.1-1.2.9-2.1,2.1-2.7,3.5-.1.1,0,.6,0,.4h0ZM2.7,49.8c0,0,.2,0,.3,0-.4-.5-.7-1-1-1.5-.9-1.9-.8-4.1-1.2-6.1.6,2.5.5,5.4,2.2,7.5h0c.1,0,.2-.2.3-.4.8-3.7-.2-7.2-2.9-8.8-.6,2.2-1,6.8,2.3,9.2ZM24.8,79.6c.1,0,.2,0,.3-.1h0c-.5-2.3-2.4-3.7-3.8-5.5,1.5,1.6,3.4,3.1,3.9,5.4,0-.1,0-.2,0-.4-.3-3.2-2.1-5.8-4.8-6.3,0,1.9,1,5.9,4.3,6.8h0ZM18.6,75.2c-1.5-.7-3.1-.9-4.7-.5.7,1.5,1.8,2.8,3.3,3.6,1.3.6,2.7.8,4.1.6,1-.3-1.1-.3-1.4-.5-1.8-.6-3-2-4.6-3,1.1.5,2,1.4,3,2,1,.6,2.1,1,3.3,1.2,0-.1,0-.3,0-.4-.7-1.3-1.7-2.3-3-3h0ZM13.2,70.9c-2.5-.4-3.7-2.9-5.2-4.6,1.7,1.6,2.9,3.9,5.3,4.5h0c0,0,0-.3,0-.4-.4-1.4-1.2-2.8-2.2-3.8-1.2-.9-2.7-1.4-4.2-1.2.4,1.7,1.2,3.2,2.4,4.5,1,.8,2.3,1.3,3.7,1.3.1,0,.2,0,.3-.2h0ZM7.2,61.7c-2.6-1-3.3-4-4.7-6.1,1.5,2,2.3,4.9,4.7,6h0c0,0,.2-.3.1-.5-.2-1.7-.7-3.3-1.7-4.7-1-1.3-2.5-2-4.1-2.1,0,2,.7,3.8,1.8,5.5.9,1.1,2.2,1.8,3.6,2,.1,0,.3,0,.4-.1h0ZM4.8,30.6c1.9-1.3,2.4-3.6,3.6-5.5-1,1.9-1.6,4.4-3.5,5.5,0,0,.2,0,.3,0,1.1-.4,2.1-1.2,2.7-2.2.8-1.4,1.2-3,1.3-4.6-1.3.4-2.4,1.2-3.2,2.4-.7,1.2-1.1,2.5-1.2,3.9,0,.1,0,.3,0,.4h0s0,0,0,0ZM18,29h-1.6l-1.9,2.4-2.7,2h13s4.7,4.6,4.7,4.6h-.4c0,0,.2,0,.2,0l-4.5-4.2h-11.7l-1.1-.2,1,.7h11.7l4.2,3.8v.3h.6c0,0,.4-.2.4-.2l-4.7-4.6-1.1-1.5-3.2-9.5-3.9,5.4,1.1,1.1h-.3l-.9-.8-1.1,1,1.1-.8.8.6h0ZM21.2,27.8l1.1,1.2h-.3l-.9-.8-.9.8h-.2l1.1-1.2h0ZM22,29h-1.6l.8-.6s.8.6.8.6ZM20.1,31l.4-1c0-.2,0-.8.3-.8h.8c.4,0,.3.5.3.8l.4,1c0,0,0,.2,0,.2,0,0,0,0,0,0-.4,0-.5.3-.9.3-.4,0-.5-.2-.8-.3-.2,0-.4,0-.3-.3ZM18.3,31c0,.2,0,.3-.2.3-.3,0-.5.3-.8.3-.4,0-.5-.2-.8-.3-.2,0-.4,0-.3-.3l.4-1c0-.2,0-.8.3-.8h.8c.4,0,.3.5.3.8l.4,1h0ZM16.8,30.6h.8v-1.1h-.8v1.1ZM21.6,29.5h-.8v1.1h.8v-1.1ZM6.2,25.1c-.9-2.4.3-4.8.8-7.2-.3,2.3-1.4,4.8-.7,7.1h0c.2,0,.3,0,.4-.2,2-2.8,2.3-6.2.6-8.4-1.1,1.4-1.8,3-2.1,4.8-.1,1.3.2,2.6.8,3.8,0,.1.2.1.3.1h0ZM10.2,61.5c.3,1.2.3,2.5,0,3.8.1,0,.2-.2.2-.3.5-1.4.7-2.9.5-4.4-.2-1.6-1-3-2.1-4.2-.9,2.1-1.4,6,1,8.8,0,.1.2.2.3.1h0c.2-1.2.1-2.5-.1-3.7-.2-1.2-.7-2.3-.9-3.6.2,1.2.8,2.3,1,3.5ZM16.8,35.7c0,.7-.8.7-.8,0s-1,.9-1,.9h2.8s-1-1.6-1-.9h0ZM10.9,15.2c0-2.4,1.8-4.2,2.9-6.2-.7,1.6-1.9,2.9-2.5,4.6-.2.5-.2,1.1-.4,1.6.1,0,.3,0,.4-.1,2.4-1.7,3.6-4.6,3.1-7.5-1.3.9-2.3,2.1-3.1,3.5-.5,1.2-.7,2.5-.6,3.8,0,.1,0,.2.1.2h0ZM5.4,54.9c.1,0,.2,0,.3-.2.8-1.2,1.2-2.7,1.3-4.2,0-1.8-.5-3.5-1.4-5.1-1,1.4-1.5,3-1.6,4.7,0,1.6.4,3.1,1.1,4.5,0,.1.2.2.3.3,0-.5.3-1.2.4-1.8.3-2-.2-3.9-.2-5.9.2,2.5.9,5.3-.1,7.7h0ZM78.3,71.8c.3-.5.7-1.1.3-1.6-.1-.2-.3,0-.4,0,0-.2,0-.5,0-.7-.2-2.4-1.1-1.8-1.5,0,0,.2-.2.2-.2,0-.5-.7-.5.9-.5,1.1,0,.4,0,.9-.2.6-.2-.3-.5.2-.5.4,0,.2,0,.3,0,.5,0,.2.2.4.2.5,0,0-.3-.3-.4-.2-.2.1-.2.6-.1.8s.3.6.2.7,0,0-.2,0-.2.4-.2.6c-.2.3-.4.3-.3.7,0,.2.1.1.1.1,1.2-1.2,2-2.7,2.4-4.3,0,0,0,.2,0,.2-.4,1.6-1.1,3-2.2,4.2,0,0,.1,0,.2,0,.6-.2,1.1-.6,1.6-1.1,0-.3-.2,0-.2-.2,0,0,.4,0,.8-.2.4,0,.8-.4.9-.9,0-.2,0-.3-.2-.4s-.3,0-.3-.1c0-.3.6-.6.8-.9h0ZM70.5,53.9c-.1,0-.5,0-.6,0h0c.1,0,.5,0,.6,0h0ZM27,81c-1.6-.4-3.3-.3-4.9.3,1.1,1.3,2.5,2.2,4.2,2.7,1.4.3,2.9.3,4.3-.1.9-.4-1.2,0-1.6-.2-1.9-.2-3.5-1.3-5.3-2,1.2.3,2.3,1,3.5,1.3,1.2.4,2.4.6,3.6.6,0-.1,0-.3-.1-.4-1-1.1-2.3-1.8-3.7-2.3h0ZM84.8,69.5c-.3,0-.6,0-.9,0-.3,0-.6.2-.6.1,0-.2.2-.5,0-.7-.7-.6-1.3.9-1.7,1.4-.1.2-.2.3-.2.3-.1-.1,0-.8-.4-.7-.8.3-.7,1.6-1,2.1-.1,0,0-.3-.1-.3,0,0,0,0-.2,0-.5.5-.9,1-1.2,1.5,1-.3,1.9-.7,2.8-1.1.4-.2.9-.4,1.3-.6-1.2.7-2.5,1.3-3.8,1.8-.1,0-.3,0-.4.2,0,0,0,.2,0,.2,0,0,.2.2.3.2,0,0,.2-.1.3,0s.4.1.5,0c.2-.5.2.2.4.5.3.4.7.4.7-.2,0-.7.2,0,.3.2.5.5,1,.1,1-.5,0-.1,0-.2,0-.3s.3,0,.5,0c.4,0,.8,0,1.1-.2.2-.2.3-.5.3-.8,0-.2-.3-.3,0-.6.3-.2.5-.4.7-.6.5-.4.9-1.7,0-1.9h0ZM89.3,61c-.3,0-.5.3-.5.2,0-.2,0-.5-.1-.7-.2-.2-.4-.2-.6,0,0,0,0,0,0,0-.4.3-.8,2.1-.9,2-.2-.3-.2-1.1-.7-.5-.4.6-.2,1.6-.4,2.2-.1,0,0-.3-.2-.3-.1,0-.4.7-.5.9-.2.3-.5.9-.5,1.1,1-.6,1.9-1.2,2.8-1.9.3-.2.5-.4.8-.5-.5.3-1,.7-1.5,1.2-.6.5-1.3,1-2,1.5,0,0-.1.1,0,.3.3.3.4,0,.6,0,.1,0,.4,0,.4,0s0-.2,0-.2.3.5.4.6.5.3.6.1c.1-.2,0-.7,0-.8,0,0,.2.4.3.4s.6.4.8,0c.2-.4,0-.7,0-.9.3-.1.9,0,1.3-.3.3-.3.4-.7.1-1.1h0c-.2-.1,0-.4.1-.6.2-.2.3-.4.5-.7.7-1.1.3-2.5-1.1-2h0ZM94.6,43.2c.5-1,.5-3.5-1.1-2-.2.2-.4.5-.4.4-.1-.2,0-.5-.2-.6-.2,0-.4,0-.5.3-.2.4-.2,2.3-.4,2.4-.2,0-.3-.7-.5-.4-.1.2-.2.4-.2.6,0,.6.2,1.4.2,1.9,0,0,0-.3-.2-.2-.1.5-.2.9-.2,1.4,0,.3-.2,1,0,1,.8-1.3,1.4-2.8,2.3-4.1-.5.8-.9,1.7-1.3,2.5-.3.6-.6,1.2-.9,1.7,0,0,0,.2,0,.3.3,0,.3-.2.5-.4,0,0,.3-.2.3-.3,0-.6.2,0,.5.1.2,0,.4,0,.5-.2,0-.2-.2-.6-.2-.7,0,0,.3.2.4.2.5.1.8-.5.5-1,0-.1-.1-.2-.1-.3.2-.3.8-.5,1-.9.2-.3.2-.8-.1-1-.3-.1,0-.5,0-.8h0ZM93,51.9c-.3.1-.5.3-.5.2,0-.2,0-.5,0-.7-.2-.1-.4-.1-.6,0,0,0,0,0,0,0-.4.5-.6,1.7-.9,2.2-.1-.1-.1-.8-.4-.6-.7.5-.4,1.8-.6,2.5-.1,0,0-.3-.2-.3-.3.5-.5.9-.7,1.4-.1.2-.2.4-.2.7,1.2-.9,2.2-2,3.4-2.8-.9.7-2.2,2.1-3.3,3,0,0-.1.1,0,.3.3.2.4,0,.6-.1,0,0,.4,0,.4,0s0-.2,0-.2.2.4.4.6.4.3.6,0c.1-.2,0-.8,0-.8s.2.3.3.4.2.1.3.1c.2,0,.4-.1.4-.3.2-.5,0-.7,0-.9s.8,0,1.2-.5c.3-.3.4-.7.2-1.1-.1,0-.1-.2,0-.5.2-.3.4-.5.6-.8.6-1,.6-2.6-.9-1.9h0ZM70.8,82.2c-.3-.2-.6-.3-.9-.3-.3,0-.7,0-.7-.1,0-.2.4-.3.2-.6-.1-.2-.4-.3-.7-.3-.5,0-1.9,1.1-2.1,1,0-.2.3-.7-.1-.7-.7-.2-1.4,1-1.9,1.3,0,0,0,0,0-.1s0-.1,0-.2c-.2,0-.4,0-.6.2h.1c-.3.2-.9.4-1,.9,1.2-.5,2.4-.2,3.8-.2.2,0,.4,0,.5,0-.7,0-1.4,0-2.1,0-.6,0-1.2,0-1.7.2-.1,0-.3,0-.3.2,0,.2.3.3.4.3,0,0,.2,0,.3,0,.1,0,.4,0,.5,0s0-.1,0-.1c0,0,0,0,.2.2.2.3.5.5.8.5,0,0,0-.4,0-.4.2.3.5.5.8.7.4.3.8.4,1.3.5.4,0,.8-.3.7-.7,0-.1,0-.3.3-.3.7-.1,1.8-.4,2.2-1.1.2-.3,0-.6-.2-.8h0ZM37,86.7c2,.5,4,.6,6,0,0-.2,0-.3-.2-.4-1.3-.9-2.9-1.5-4.5-1.6-1.8,0-3.6.5-5.1,1.6,1.4,1.2,3.2,1.9,5,2,1.6,0,3.2-.4,4.5-1.2.1,0,.2-.2.2-.3-.6.2-1.3.4-1.9.4-2.1.2-4.1-.6-6.1-.9.7,0,1.4.1,2,.3h0ZM35.5,83.9c-.6-1-1.4-1.8-2.4-2.5-.9-.7-1.9-1.1-2.7-1.8,1.4.9,3,1.5,4.1,2.8.3.2,1.3,2.1,1,1.1-1.1-3-3.5-5.1-6.2-4.8.5,1.6,1.4,3,2.6,4.2.9.8,2.1,1.2,3.4,1.3.1,0,.2,0,.3-.2h0ZM44,82.7c-1.1-.6-2.4-.8-3.6-.5.5,1.3,1.4,2.3,2.5,3.1,1,.5,2.1.7,3.2.6.1,0,.2,0,.3-.2h0c-1.2-1.6-3.1-2-4.8-2.9,1.8.7,3.8,1.1,4.8,2.8,0-.1,0-.2,0-.3-.5-1.1-1.3-2-2.3-2.6h0ZM63.4,82.9c.2-.3-.2-.5-.2-.7,0,0,.5-.2,1-.4.6-.2.9-.7.8-1.3,0-.1,0-.1-.2-.1-.4,0-.1-.2,0-.7.5-1.6.1-2.7-1.2-.9-.2.2-.2,0-.2,0,0-.3-.2-.5-.5-.1-.3.3-.6,1.1-.8,1.4,0,0,0-.2-.2-.3-.4,0-.8,0-1.2,0-.4,0-.7.5-.7.9,0,0,0,.2.2.3.2.3,0,.3-.2.2-.2,0-.3,0-.5,0-.3.2-.4.5-.3.8,0,.2.4.4.4.6,0,0-.2,0-.3.1s-.2.4-.3.6-.3.3-.3.4c0,.1-.1.5,0,.5,0,0,.1,0,.2,0,.5-.6,1.1-1.1,1.8-1.6.2-.2.3,0,.5,0,.8-.4,1.4-1,2-1.7-.5.8-1.2,1.4-2,1.9h-.3c-.7.5-1.3,1-1.8,1.6,0,0,0,0,0,0,.5-.1,1.1-.4,1.6-.6.2,0,.5,0,.7-.1.1-.2-.2-.2,0-.3,0,0,.4.1.5.2.5.2,1.2.3,1.5-.2h0ZM60.1,86.1c-.3-.2-.7-.3-1-.4-.4,0-.8-.1-.7-.2,0-.1.1-.2.2-.3.4-.4-.3-.7-.7-.7-.6,0-2.3,1-2.4.9,0-.2.4-.7,0-.8-.8-.2-1.6,1-2.2,1.3,0,0,0,0,0-.2.2-.3-.3-.2-.7,0,.3-.2-.1,0-.2.1-.3.2-.8.4-.8.8,1.4-.4,2.8,0,4.3,0,.2,0,.4,0,.6,0-.8-.1-1.6-.1-2.5-.2-.8-.1-1.6,0-2.3.2,0,0-.2,0,0,.3.4.2.4,0,.8,0,.1,0,.5.2.5,0s0-.1.1-.1c.1,0,.3.4.5.6.2.2.8.6.7,0,0,0,0-.2,0-.2.2.3.6.6.9.8.4.3,1.7,1,2.3.4.3-.4-.2-.7.4-.7.8,0,2.1-.2,2.6-1,.2-.3,0-.7-.2-.9h0ZM52.3,85.4c.2-.3-.2-.4-.2-.7,0,0,.5,0,.9-.2.2,0,.4-.2.6-.3.1-.1.3-.7,0-.8-.4,0,0-.2,0-.6.5-1.3.3-2.3-1-.9-.1.1-.2,0-.2,0,0-.8-.8.2-.9.5-.1.2-.2.4-.3.4,0,0,0-.2-.2-.3h-.7c-.4-.3-.8,0-.9.3,0,0,0,.2,0,.3,0,.1.2.3.2.4-.1,0-.5-.3-.7-.2-.2.1-.4.4-.3.6,0,.2.3.4.3.6,0,0-.1,0-.2,0s-.2.3-.3.4c-.2.2-.4.3-.3.6.2.3.4,0,.5-.2.5-.4,1-.7,1.5-.9h.3c.6-.2,1.2-.6,1.7-1,0,0,0-.1.1-.2-.4.4-.8.8-1.3,1.1-.2.1-.4.2-.5.3h-.3c-.6.3-1.2.7-1.6,1.2.5,0,1-.2,1.5-.3.2,0,.8,0,.6-.2,0,0,0,0,0-.1.4.1,1.2.8,1.7.2h0ZM9.2,19.8c2.1-.8,3.3-2.9,4.8-4.4-1.1,1.2-2,2.9-3.4,3.8-.2.3-1.9.8-1.1.8,3.4-.2,5.1-3.7,5.6-5.6-1.4,0-2.7.6-3.7,1.5-1,1-1.7,2.2-2.2,3.5,0,.1,0,.3,0,.4h0s0,0,0,0ZM24.5,36.3h.4l.2.2h0s-.2-.2-.2-.2h-.4ZM24.5,35.4h.4l.2.2h0s-.2-.2-.2-.2h-.4ZM24.5,35.9h.4l.2.2h0s-.2-.2-.2-.2h-.4ZM24.5,36.8h.4l.2.2h0s-.2-.2-.2-.2h-.4ZM24.5,38.1h.4l.2.2h0s-.2-.2-.2-.2h-.4ZM24.5,37.2h.4l.2.2h0s-.2-.2-.2-.2h-.4ZM24.5,37.7h.4l.2.2h0s-.2-.2-.2-.2h-.4ZM20.7,40.8h.6v-1.6h-.6v1.6ZM25.1,34.7l-.2-.2h-.4s.4,0,.4,0l.2.2s0,0,0,0ZM24.5,38.6h.4l.2.2h0s-.2-.2-.2-.2h-.4s0,0,0,0ZM21.4,40.8h.6v-1.6h-.6v1.6ZM21.3,37.5h-.6v1.6h.6v-1.6ZM22,37.5h-.6v1.6h.6v-1.6ZM24.5,35h.4l.2.2h0s-.2-.2-.2-.2h-.4ZM21.8,35.7c0,.7-.8.7-.8,0s-1,.9-1,.9h2.8s-1-1.6-1-.9h0ZM26,41v-2.7l-.4-.3v2.8l.4.2ZM27.2,41.8v-2.6l-.3-.3v2.6l.3.2ZM27.1,37.8c0,.5-.2.4-.2-.2s-.3.5-.3.5l.7.6s-.2-1.4-.2-.9h0ZM27.3,42.4c0-1.1,0-2.3,0-3.4v-.2s-.7-.6-.7-.6c0,.4.3.4.6.7,0,0,0,3.4,0,3.4h0ZM28.2,38.8c0,.5-.2.4-.2-.2s-.2.5-.2.5l.6.5s-.2-1.3-.2-.8h0ZM26,36.8c0,.6-.2.4-.2-.2s-.3.5-.3.5l.8.6s-.3-1.5-.3-.9h0ZM27.8,39.2c0,.4.2.4.5.7v3.2c0-1.1,0-1.8,0-2.9,0-.2,0-.3,0-.5,0,0-.6-.5-.6-.5ZM28,42.3l.3.2v-2.5l-.3-.2v2.5h0ZM24.5,39.9h.4l.2.2h0s-.2-.2-.2-.2h-.4ZM24.5,39h.4l.2.2h0s-.2-.2-.2-.2h-.4ZM24.5,40.4h.4l.2.2h0s-.2-.2-.2-.2h-.4ZM24.5,39.5h.4l.2.2h0s-.2-.2-.2-.2h-.4ZM26.1,41.7v-3.4c0-.1,0-.3,0-.4l-.8-.6c0,.4.3.5.6.8v3.6h0s0,0,0,0ZM24.4,31.8l4.4,4.7-.7-1.4v-1h.1c0,0-.3-.6-.3-.6l-.3.2h.3s0,.2,0,.2v1.4l-.5-.6v-1.2c-.1,0,0,0,0,0l.4-.4.5,1-.5-1.2h-.5c0,.1-.5-1.1-.5-1.1h-.4s-.6-1.2-.6-1.2h0s.5,1,.5,1l-.5-1.2h-.2l-2.5-5.4-2.1-2.7,3,9.3h0ZM27,32.2l.5,1-.2.3-.2-.4h.2c0,0-.3-.5-.3-.5h-.1c0,0,0,0,0,0l.2-.2h0ZM26.8,32.7h.2s.1.3.1.3v1.5l-.3-.4v-1.3h0ZM26,31.3h0l.4.9v1.5l-.4-.5v-1.9h0ZM24.5,40.8h.4l.2.2h0s-.2-.2-.2-.2h-.4ZM24.5,41.3h.6c0,.1,0,0,0,0l-.2-.2h-.4ZM77.7,77.9c-.3-.1-.6-.2-.8-.3-.3,0-.6,0-.6,0,0-.2.3-.3.1-.5-.4-.5-.9-.2-1.3.1-.7.4-1.1,1-.9.2,0-.1,0-.3-.2-.3-.7-.1-1.1,1-1.5,1.3,0,0,0,0,0-.1s0-.1,0-.2c0,0-.7.3-.4,0-.3.2-.7.5-.7.9.9-.3,1.8-.4,2.7-.3.3,0,.7,0,1,0-.7,0-1.4,0-2.1,0-.5,0-1.1.1-1.5.4,0,0,0,0,0,.2,0,0,.2,0,.3,0,0,0,.2,0,.2,0s.4,0,.4,0,0-.1,0,0c0,0,.5.7,1,.6,0,0-.1-.3,0-.3.2.3.5.5.8.6.3.2,1.4.7,1.7.1.2-.3-.2-.5.2-.7.5,0,1-.3,1.4-.6.3-.2.5-.7.2-1,0,0-.1-.2-.2-.2h0ZM73.6,48.3v-1.6h-.6v1.6h.6ZM64.8,52.5l-.3-.4h-.3l-.3.8.4-.7.3.3h.3,0ZM63.5,47.6h-.3l-.3.8.3-.7.3.3h.3l-.3-.4ZM62.1,48.8h.1c0,0,0-.3,0-.3h.2s-.2-.1-.2-.1c0,0-.2.4-.2.4ZM62.8,52.8l-.3-.3h-.2l-.3.7.3-.6.2.2h.2,0ZM62.2,53.1v-.2c0,0,.2,0,.2,0l-.2-.2-.2.4h.1ZM62.1,51.6c0,0,.1,0,.1.1,0,.4.3.2.3,0,0-.1,0-.2.2-.2h0c0,0-.6,0-.6,0h0ZM62.7,48.7l-.6.3v2.4l.6-.2v-2.5h0ZM63.1,51.3c.2,0,.1.5.3.4.2,0,.1-.5.3-.6h0c0,0-.6,0-.6,0h0c0,0,0,0,0,0ZM64.3,51.2c0,.4.3.3.3,0,0-.1,0-.2.1-.2s0,0,0,0l-.6.2h0c0,0,.1.1.2.2h0ZM63.2,52.9v-.2c0,0,.3,0,.3,0l-.2-.2-.2.4s.1,0,.1,0ZM64.2,52.8v-.2c0,0,.3,0,.3,0l-.2-.2-.2.4h.1ZM64.3,47.5h.2s-.2-.1-.2-.1l-.2.4h.1c0,0,0-.3,0-.3ZM64.8,47.8l-.6.3v2.7l.6-.2v-2.8h0ZM63.8,52.6l-.3-.4h-.3l-.3.8.3-.7.3.3h.3ZM64.5,47.1h-.3l-.3.8.3-.7.3.3h.3l-.3-.4h0ZM63.1,48.3h.1c0,0,0-.3,0-.3h.2s-.2-.1-.2-.1c0,0-.2.4-.2.4ZM60.3,49.6h0s0-.2,0-.2h.1s-.2,0-.2,0v.3c-.1,0-.1,0-.1,0ZM60.3,52c.1,0,0,.4.2.3,0,0,0-.4.2-.4h0c0,0-.4,0-.4,0h0ZM60.4,53.3v-.2c0,0,.2,0,.2,0h-.2c0-.1-.1.2-.1.2h0s0,0,0,0ZM62.5,48.1h-.3l-.3.8.3-.7.3.3h.3l-.3-.4h0ZM74.3,46.5c0-1.1-1.3-1.1-1.3,0,0,0,1.3,0,1.3,0h0ZM60.6,49.1h-.2l-.2.6.3-.5.2.2h.2l-.2-.3h0ZM72.8,57.7c0,0,0-4.3,0-4.3,0-1-.3-1.8-.6-1.7s-.6.9-.6,1.8c0,1.7,0,2.9,0,4.6h1.2c0,.1,0-.4,0-.4h0ZM60.7,49.5l-.4.2v2.1h.4v-2.3h0ZM61.7,51.6l-.6.2s0,0,0,0c.2,0,.1.4.3.3.2,0,.2-.5.3-.5,0,0,0,0,0,0h0ZM61.2,53.2v-.2c0,0,.2,0,.2,0l-.2-.2-.2.4h.1c0,0,0,0,0,0ZM61.7,53l-.3-.3h-.2l-.3.7.3-.6.2.2h.2ZM61.7,49.1l-.6.3v2.2l.6-.2v-2.3h0ZM60.8,53.1l-.2-.3h-.2l-.2.6.3-.5.2.2h.2,0ZM61.5,48.6h-.2l-.3.7.3-.6.2.2h.2l-.3-.3ZM61.5,49l-.2-.2-.2.4h.1c0,0,0-.2,0-.2h.2s0,0,0,0ZM63.8,48.2l-.6.3v2.5l.6-.2v-2.6h0ZM68.6,51.8l-.4-.5h-.3l-.4,1,.4-.9.3.3h.3ZM65.6,46.5h-.3l-.3.9.4-.8.3.3h.3l-.3-.4h0ZM67.8,52.2v-.3c.1,0,.3,0,.3,0l-.3-.2-.2.5h.2c0,0,0,0,0,0ZM69,52.1v-.3c.1,0,.4,0,.4,0l-.3-.2-.3.6h.2c0,0,0,0,0,0ZM67.9,50.3c0,.5.3.4.4,0,0-.2,0-.3.1-.3s0,0,0-.1l-.7.2h0c0,0,.1.1.2.3h0ZM68.4,46.2l-.7.3v3.3l.7-.2v-3.4ZM67.9,45.9h.2s-.2-.2-.2-.2l-.2.5h.2c0,0,0-.3,0-.3h0ZM70.5,56.6h-.6s.2,0,.2,0h.4s0,0,0,0ZM70.5,57.5h0c-.2,0-.4,0-.6,0h0c.2,0,.4,0,.6,0h0ZM70.5,53c-.2,0-.4,0-.6,0h0c.2,0,.4,0,.6,0h0ZM70.5,55.7h-.6c.1,0,.5,0,.6,0,0,0,0,0,0,0ZM70.5,53.5c-.2,0-.4,0-.6,0h0c.2,0,.4,0,.6,0h0ZM70.5,56.1h-.6s.2,0,.2,0h.4ZM68.1,45.4h-.3l-.4.9.4-.8.3.3h.3l-.4-.4h0ZM70.5,57h-.6s0,0,0,0h.2s.4,0,.4,0h0ZM69.8,51.7l-.4-.5h-.4l-.4,1.2.5-1,.4.4h.4ZM66,52.3l-.3-.4h-.3l-.3.9.4-.8.3.3h.3,0ZM65.3,52.6v-.2c0,0,.3,0,.3,0l-.2-.2-.2.5h.1c0,0,0,0,0,0ZM66.6,46.7h.1c0,0,0-.3,0-.3h.2s-.2-.2-.2-.2l-.2.5h0ZM67,45.9h-.3l-.3.8.4-.7.3.3h.3l-.3-.4h0ZM65.9,47.2l-.8.3v2.9l.8-.2s0-3,0-3ZM65.4,47h.2s-.2-.2-.2-.2l-.2.5h.2c0,0,0-.3,0-.3h0ZM65.3,51c0,.5.4.3.4-.1,0-.2,0-.2.2-.3h0c0,0-.8.1-.8.1h0c0,0,.2.1.2.2h0ZM69.4,45.3l-.3-.2-.3.6h.2c0,0,.1-.4.1-.4h.3s0,0,0,0ZM69.4,44.6h-.4l-.4,1.2.5-1,.4.4h.4l-.4-.5h0ZM68.8,49.9c0,0,.2,0,.2.2,0,.2.1.4.2.3.2,0,.2-.7.4-.8h0c0,0-.8.1-.8.1h0ZM66.6,50.4c0,0,.1,0,.2.2,0,.5.3.3.4,0,0-.2,0-.3.2-.3h0c0,0-.7,0-.7,0,0,0,0,0,0,0ZM68.8,49.5l.8-.2v-3.6l-.8.3v3.5h0ZM67.3,52l-.4-.5h-.3l-.4,1,.4-.9.3.3s.3,0,.3,0ZM67.3,46.6l-.7.3v3.1l.7-.2v-3.2ZM66.6,52.4v-.3c.1,0,.3,0,.3,0l-.3-.2-.2.5h.2c0,0,0,0,0,0ZM66,38.2v-.3l4.2-3.8h11.7l1-.7-1.1.2h-11.7l-4.5,4.3h.2c0,0-.4,0-.4,0l4.7-4.6c.6,0,12.8,0,13,0l-2.7-2-1.8-2.4h-1.6l.8-.6,1.1.8-1.1-1-.9.8h-.3l1.1-1.1-3.8-5.4-3.2,9.5-1.2,1.5-4.7,4.6c.2,0,.8.1,1,.2h0ZM76.7,31l.4-1c0-.2,0-.8.3-.8h.8c.3,0,.3.5.3.8l.4,1c0,.3-.2.3-.3.3-.3,0-.5.3-.8.3-.3,0-.5-.2-.8-.3-.2,0-.3,0-.2-.3h0ZM74.8,31.3c-.2,0-.3,0-.5,0-.3.2-.8.2-1.2,0-.1,0-.2-.1-.4,0,0,0-.2-.1-.2-.2,0,0,0,0,0,0l.4-1v-.4c0-.2.1-.3.3-.3h.8c.2,0,.3.2.3.3v.4l.4,1c0,0,0,.2,0,.2,0,0,0,0,0,0h0ZM73,29l.8-.6.8.6h-1.6ZM73.8,27.8l1.2,1.2h-.2l-.9-.8-.9.8h-.3l1.2-1.2h0ZM55.6,18.3s-.3-.3-.4-.2-.2,0-.2.4c0,.2,0,.4,0,.5,0,0,0-.6.5-.7h0ZM47.3,6.7c1.3.4,2,1.1,3.5,2.1,0-.1,2,1.8,2,1.8.5.4,0,.3-.8.4-.2,0-.3,0-.5,0,.2.1.3.4.3.6-.2-.1-.4-.3-.6-.3.2.3.3.6.2.9,0,0-.2.5,0,.4,0,.2,0,.4.1.5,0-.2,0-.4.2-.6.9-.1,1.7-.7,2.1-1.6-.3-.4-.7-.7-1.2-.9l.6-.6s0-.1,0-.1c0,0,0,0,0,0-.5,0-1.8-.5-4.2-2.3-.5-.3-1-.5-1.6-.5-.3,0-.6,0-.9.2l.9.2h0ZM56.1,9.8l-.2,2.1c0,0,.1,0,.1,0,0,0,0,5.5,0,5.5,0,0,.2,0,.3,0,0-1.7,0-3.4,0-5.2.3,0,.5.3.6.5v-.8s0-.1,0-.1c0,0,.2,0,.2,0l-.4-2.1c0-.2.2-.5.3-.7.2-.1.3-.3.6-.3,0-2.6-.3-5.2-1.2-7.7v-.3c-.4.7-.6,1.4-.8,2.1-.5,1.9-.7,3.9-.6,5.9.5.1.8.6.9,1.1h0ZM56.1,2.9c.1-.5.2-.9.3-1.2v7.6c0,.6,0,1.4,0,2,0-.2,0,.4,0,.3,0,0-.3.1-.3,0v-1.5c.1,0,.2-.8,0-1-.2-.3-.4-.5-.7-.6,0-1.9.2-3.8.6-5.6h0ZM51,16.9s0,0,0,0c.2-.2.2-.6-.2-.5-.3.1-.5.5-1,.4,0,0,0,.1.1.2.3,0,.6-.1.9,0h0ZM51,10.9c-.3,0-.6-.4-.9-.3-.4.3-.6.8-1.7.7.6.2,1.2.1,1.8-.1.2,0,.5-.2.8-.2h0ZM50.6,17.4c.2,0,.2,0,.3-.1-.2-.1-.8,0-.8,0,0,0,.5.1.5,0ZM51.9,15.3c-.6-.6-1-1.4-1.3-2.2-.1,0-.2.2-.3.3l.2-.5c-1.2-.4-1.2-.3-2.1.1.3,0,.6,0,1,0,.2,0,.3.1,0,0-.4,0-.8.3-1.2.2,0,0-.2,0,0,0,.2.2.6.3.9.2,0,.1,0,.2,0,.3,0,0,0,0,.2,0,.2,0,.3-.1.3-.3,0,0,0,.2,0,.3,0,0,0,0,0,0,0,.2.1.4.5.5.5.3.6.5.4.6-.4.2-.4.4-.1.7.3-.1.6,0,.7.3,0,0,0,0,0,0,.3-.1.6-.4.7-.7h0ZM67.1,42.3v-2.5l-.3.2v2.5l.3-.2ZM67,38.6c0,.5-.2.7-.2.2s-.2.8-.2.8l.6-.5s-.2-1-.2-.5h0ZM57.3,18c-.2-.1-.3-.2-.5-.3-.2,0-.4,0-.5,0-.2,0-.5,0-.7-.1,0,0,0,0,0,0,0,.1,0,.2,0,.3.2.2.4.3.7.3.3,0,.6-.1.8,0,.2.1.4.4.5.5,0,.1,0,.2,0,.4,0,0,.3-.1,0-.7,0-.2-.3-.3-.4-.4h0ZM67.2,39.2c-.3.3-.7.4-.6.7,0,1.2,0,2,0,3.2h0v-3.3c.3-.2.5-.3.5-.7h0ZM36.7,8.3c-.4.4,0,1,0,1.5.7-.9,1.6-1.7,2.6-2.1-.9.5-1.7,1.2-2.2,2.1,0,.2-.2.4-.2.5h0c.5-.7,1.2-1.3,2-1.7-.8.6-1.3,1.4-1.5,2.4.2.5.4.9.7,1.3.2.2.4.5.6.7l.4-.3c-.2-3.6.3-5.1,2.2-5.1-1.7,2.1-2.2,4.1-.5,6.5,1,1,1,2.6,0,3.6,0,0-.1.1-.2.2.6-.3,1.1-.7,1.5-1.2,0,.5-.2,1-.5,1.4-.2.2-.3.3-.5.4-.7.4-1.1,1.2-1.1,2,0,.2,0,.4,0,.6,0,.9-1,1.2-1,1.2h-.2c.3,0,.6,0,.9-.1.5-.1.9-.5,1.1-.9h0c0,1.1.7,3.5,2.2,3.7-.5-.7-1-2.5-.2-3.4.6-.7,1.5-1.2,1.9-2.1.4.6,1.1,1,1.8,1.1-.5-.4-.8-.9-1-1.5-.1-.4-.2-.9-.2-1.3.1-.3.2-.7.2-1,0-.7.3-1.3.7-1.8-.2.6-.3,1.1-.3,1.7l.2-.4c0,.3,0,.7,0,1,.1.4.4.8.8,1,.1.1.3.2.5.2v.3c0,.6.2,1.2.4,1.7v-.3c0-.5,0-1,.4-1.5.3,0,.8.3,1.1.3,1.1.2,1.4.2,1.8-.2-.2,0-.3,0-.5,0-1.8,0-4.1-1.9-3.1-3.6.2-.3.3-.7.2-1,0-.2,0-.4,0-.7,0-.5,0-1,.4-1.4.2-.2.4-.3.7-.4-.3,0-.6.1-.9.3-.5.4-.7,1.1-1.2,1.4-.5.3-1.1.5-1.8.5.1,0,.2,0,.3,0,.6-.1,1.1-.5,1.5-1,.8-1.2,1-1.6,1.6-1.9.3-.2.7-.3,1-.4.2,0,.4,0,.6,0,0,0,.1-.1.2-.1-.4-.1-.7-.2-1.1-.2-2,0-3,.5-4.9,1.9,1.1-.7,2.3-1.2,3.6-1.4-2.5.8-3.6,1.6-4.5,2.8-.4.6-.7,1.2-.9,1.9-.4-4.3,5.1-5.7,5.6-6,.2-.2-.1-.3-.8-.5-.8-.2-3.3-.6-2.2-1.6.3-.2.6-.4,1-.6-1.5,0-2.8.9-3.5,2.2-.2-.5-.2-1.1,0-1.6.9-.8,2-1.3,3.2-1.5-1,0-2,.3-2.9.8.7-.7,1.6-1.2,2.6-1.2-.2-1-.7-2.8,1.8-4.3l-.3-1.1c-2.9,1.5-2.7,3.6-2.4,4.7-.5-.7-.8-1.4-1-2.2,0,.8.1,1.6.6,2.2-1.4-.8-2.2-2.4-1.9-4,.5-.2,1.1-.4,1.7-.5-.1.4-.1.8,0,1.3,0-.6.2-1.1.7-1.4.3,0,.6,0,1-.1-1.5,0-3,.3-4.4,1v.3c.2,1.3.9,2.5,1.9,3.3-1.1-.7-2-1.7-2.5-2.9,0-.6-.6.2-.8.3,0,0,.1.2.2.2.7,1,1.6,1.9,2.6,2.6-1.1-.6-2.1-1.3-2.9-2.2-.3-.5-.6.2-.8.5.7,1,1.6,1.7,2.7,2.2-1-.3-2-.8-2.8-1.5-.4-.5-.6.5-.9.8.7.2,1.5.6,2.2.7-.7-.1-1.6-.3-2.3-.4,0,.4-.8,1.6,0,1.3,1.2-.2,2.3-.3,3.5-.2-1.2,0-2.5.2-3.6.5-.7,0-.4.9-.5,1.4.8-.5,1.6-.8,2.5-1.1-.8.3-1.6.8-2.3,1.4h0ZM44.6,13c0,0,.2,0,.2-.1.5-.2.8-.5,1.2-.8-.2.5-.5,1-1.1,1.2-.2.1-.5.2-.7.3-.3.1-.5.3-.7.5.2-.5.5-.9,1-1.1h0ZM43.1,16.8c.3-1,1.1-1.8,2-2.2-.5.6-.9,1.3-1.2,2,0,.3-.2.5-.3.8-.4.8-1.1,1.5-1.9,1.9.7-.7,1.1-1.6,1.3-2.5,0,0,0,0,0,0ZM56.3,19.1c.4.1.9.3,1.2.6,0,0,0-.2,0-.3s0-.2-.2-.2c-.2,0-.4-.2-.5-.4,0-.1-.2-.2-.2-.1s0,0-.4,0c-.2,0-.5,0-.7.2,0,0-.1.1-.2.1-.2.2-.2.5-.1.7.2-.4.6-.6,1.1-.7h0ZM55.3,20.9c0,.2.2.5.4.7,0,.2.2.4.4.5v3.3s.2-.6.2-.6c0-.6,0-3.2,0-3.3.2.2.5.3.7.3,0,0,0,3.7,0,3.8.4-.4.8-.7,1.1-1.1,0-.8-.2-1.5-.4-2.3-.1-.3-.4-.8-.5-1,0-.1-.2-.2-.4-.3-.3,0-.5-.2-.7-.4,0,0-.2,0-.4,0s-.2-.2-.2-.2c0,0,.6-.4.7-.4.3,0,.6.1.8.2,0,0,.2,0,.2,0-.4-.2-.8-.4-1.2-.6,0,0-.4.3-.5.5,0,0-.1.1-.2,0,0,0,0,0,0,0,0,.3,0,.6,0,.9h0,0ZM62.3,34.2l-1.4,2.3-2.3,4.7,1.6-2.3,2-4.7h0ZM47.5,40.8h0c.3,0,.7.1,1,.3-.3-.2-.6-.3-1-.3,0,0,0,0,0,0ZM44.3,41.3c.2,0,.3.2.2.3h0c0-.2,0-.3-.3-.3h0ZM45.8,40.7c0,0,0-.1,0-.1s-.1,0-.1,0h0c0,0,0,.2.1.2,0,0,.1,0,.1-.1h0s0,0,0,0h0ZM68.1,37.7c0,.6-.2.7-.2.2s-.2.9-.2.9l.7-.6s-.2-1-.2-.5h0ZM45,41.4h1c0,0-1.1,0-1.1,0h0c0,0,0,0,0,0ZM43.4,21.6c-.2.1-.4.3-.5.5.4.5.9.8,1.5.9,0,0,0,0,.1,0-.6-.3-1-.8-1.2-1.5h0ZM36.4,41.2l-2.3-4.7-1.4-2.3,2,4.7,1.6,2.3h0ZM64.2,37.8h-.4v.6h.4v-.6ZM61.4,38.4h.4v-.6h-.4v.6ZM41.5,28.4c6.4,1.3,8-3.8,7.7-5.6.4,2.1,0,5.5-3.9,6.7.6,0,1.2.3,1.8,0,1.9-1,3.1-3.8,2.8-6.7.2.7.2,1.5.2,2.2,0,1.4-.5,2.4-1.7,4.5.6,0,1.3-.1,1.9-.2.7-1.8.9-3.8.5-5.7.8,1.7,1,3.6.5,5.4.3-.1.7-.2,1-.3.3-1.4.2-2.8-.3-4.1.7,1.2,1,2.5.9,3.9.2,0,.4-.2.6-.2,0-.2,0-.5,0-1,0-1.9-.6-3.1-1.3-3.5-.2-.2-.4-.3-.7-.4,0-.2-.5-.6-.9-.4-.3-.3-.9-.2-.9-.2-.2-.4-1.2-.5-1.3-.4.6,1.4.5,2.7-1.7,4.3-1.8,1.3-8.8.4-11.2-2.8,1.5,2,3.5,3.6,5.8,4.6h0ZM37.2,11.5c.3.6.7,1.2,1.1,1.7-.5-.6-.8-1.3-1.1-2,0,.1,0,.2,0,.3h0ZM50.4,41.7h0c0-.2,0-.3.2-.3-.2,0-.3.1-.3.3h0ZM47.6,40c0,0,0-.1,0-.1s-.1,0-.1,0h0c0,.1,0,.2,0,.2,0,0,.1,0,.2,0h0q0,0,0,0ZM47.5,40.8h0c-.3,0-.7,0-1,.2.3-.2.6-.2,1-.2h0ZM49.4,40.7c0,0,0-.1,0-.1s-.1,0-.1,0h0c0,.1,0,.2,0,.2,0,0,.1,0,.2,0h0q0,0,0,0ZM48.9,41.4h1.1c0,0-1.1,0-1.1,0,0,0,0,0,0,0ZM70.5,40.3h-.4l-.2.2h0s.2-.1.2-.1h.4ZM32.6,44.7h.7v-.3c.1,0-.8,0-.8,0,0,0,.1.3.1.3ZM79.1,35.7c0,.8-.8.7-.8,0s-1,.9-1,.9h2.8s-1-1.5-1-.9h0ZM70.5,40.8h-.4l-.2.2h0s.2-.1.2-.1h.4ZM74,35.7c0,.8-.8.7-.8,0s-1,.9-1,.9h2.8s-1-1.5-1-.9h0ZM69.9,41.3h0s.2,0,.2,0h.4s-.4,0-.4,0l-.2.2h0ZM70.5,39.9h-.4l-.2.2h0s.2-.1.2-.1h.4ZM74.3,46.7h-.6v1.6h.6v-1.6ZM73.4,30.6h.8v-1.1h-.8v1.1ZM80.5,10.5c.1.2.3.4.4.6s0,.2,0,.3c-.2,0-.3.4,0,.6.2.3.8.5,1,.7,0,.2-.3.2-.3.5,0,.4.4.5.5.5s.3-.1.4,0c0,0,0,0-.1.2-.3.3,0,.6.3.6.3,0,.7-.4.5.1,0,.1.2.3.3.4,0,.1,0,.2,0,.4,0,.1.3.3.4,0-.2-1.4-.8-2.8-1.7-3.9,0,0,0,0,0,0,.9,1.1,1.5,2.4,1.8,3.7.2-.7.2-1.5,0-2.2-.2-.1-.1.2-.2.1,0,0,0-.1,0-.3.2-.6.4-1.4,0-1.9-.3-.2-.4.3-.5.3-.2-.2-.3-2.3-1.2-1.9-.2,0,0,.3-.1.4,0,0-.2-.1-.5-.2-1-.5-1.8,0-1.1,1h0ZM78.7,45.7c-.4,0-.7.4-.7.8h1.3c0-.4-.3-.8-.7-.8h0ZM79.3,15.7c0,.4.4.6.7.8.2,0,.4.2.2.3-.1.1-.1.3,0,.4,0,0,0,0,.2,0,.4.2,1,0,.9.1,0,.1-.1.2,0,.3.1.2.3.2.5.1,0,0,.2-.3.3-.2,0,0,0,.1,0,.2-.2.4,0,.5.4.4.2-.1.4-.6.4-.2,0,0,.2.1.3.1s.2.2.2.2c.2.1.4,0,.3-.2-.6-.9-1.4-1.6-2.4-2h0c0,0,.2,0,.3,0,.9.4,1.7,1,2.2,1.8,0-.5-.2-1.1-.5-1.6,0,0,0-.1,0-.1-.2,0,0,.2-.1.2-.1-.4,0-1.4-.6-1.6-.3,0-.2.4-.3.5,0,0-.2-.3-.3-.4-.2-.4-.7-.9-1.1-.5-.1.1,0,.3,0,.4,0,0-.2,0-.4,0-.4,0-.9.2-.9.7h0ZM73.9,7.7c-.1,0-.4,0-.4.1,0,.9,1.7,1,2.3,1.3,0,.1-.5.2-.2.5.2.1.3.2.5.3.4.1,1.1,0,1.4.1,0,.1-.2,0,0,.2.6.4,1.2.6,1.9.8-1.2-1.1-2.6-2.1-3.8-3.2,1,.9,2.2,1.6,3.2,2.5.2.2.5.4.8.6,0,0,0,0,.1,0h0c0-.3-.2-.4-.4-.6,0-.1-.2-.4-.3-.4s-.2,0-.2,0,.2-.3.2-.4c0-.3-.2-.8-.6-.6-.3.2-.1-.1,0-.3,0-.4-.4-.8-.8-.8,0,0-.1,0-.2,0,0,0-.1,0-.2,0-.2,0-.4-.7-1-1.2-.3-.2-.7-.4-.8,0,0,.1,0,.1-.3,0-.4-.3-.9-.6-1.4-.7-1-.2-.7.6,0,1.3.2.3.4.4.4.5h0ZM78.2,29.5h-.8v1.1h.8v-1.1ZM66.3,36.5l4.4-4.7,3-9.3-2.1,2.7-2.5,5.4h-.2l-.4,1.2.5-1h0s-.6,1.2-.6,1.2h0s-.4,0-.4,0l-.5,1.2h-.1c0-.1-.4-.1-.4-.1l-.5,1.2.5-1,.4.4h.2v.3c-.1,0-.1.9-.1.9l-.5.6v-1.7c0,0,.4,0,.4,0l-.3-.2-.3.6h.2c0,0,0,.9,0,.9l-.7,1.4h0ZM68.6,32.2l.4-.9h0v1.9l-.4.5v-1.5ZM68.3,34l-.3.4v-1.5h0v-.3c.1,0,.3,0,.3,0v1.3h0ZM67.5,33.2l.5-1,.2.2v.2c0,0-.2,0-.2,0l-.3.6h.2c0,0-.2.4-.2.4l-.2-.3h0ZM70.5,39.4h-.4l-.2.2h0s.2-.1.2-.1h.4s0,0,0,0ZM70.5,34.9h-.4l-.2.2h0s.2-.1.2-.1h.4s0,0,0,0ZM70.5,34.5h-.4l-.2.2h0s.2-.1.2-.1h.4s0,0,0,0ZM70.5,39h-.4l-.2.2h0s.2-.1.2-.1h.4ZM70.5,35.4h-.4l-.2.2h0s.2-.1.2-.1h.4s0,0,0,0ZM68.2,41.5v-2.6l-.3.3v2.6s.3-.2.3-.2ZM68.3,38.3l-.7.6c0,.1,0,.2,0,.4h0v3.2h0v-3.4c.3-.3.6-.3.6-.7h0ZM69.3,36.7c0,.6-.2.8-.2.2s-.3.9-.3.9l.8-.6s-.3-1-.3-.5h0ZM69.4,40.8v-2.8l-.4.3v2.7l.4-.2ZM69.6,37.3l-.8.6c0,.1,0,.3,0,.4v.2c0,0,0,3.2,0,3.2h0v-3.6c.3-.3.7-.3.7-.8h0ZM70.5,38h-.4l-.2.2h0s.2-.1.2-.1h.4s0,0,0,0ZM70.5,38.5h-.4l-.2.2h0s.2-.1.2-.1h.4s0,0,0,0ZM70.5,37.6h-.4l-.2.2h0s.2-.1.2-.1h.4s0,0,0,0ZM70.5,35.8h-.4l-.2.2h0s.2-.1.2-.1h.4s0,0,0,0ZM70.5,36.3h-.4l-.2.2h0s.2-.1.2-.1h.4s0,0,0,0ZM70.5,36.7h-.4l-.2.2h0s.2-.1.2-.1h.4ZM70.5,37.2h-.4l-.2.2h0s.2-.1.2-.1h.4Z"/>
    <g>
      <path class="st0" d="M39.7,67.9l-1.4.7v-1l1.5-.8h.9v5.7h-1s0-4.7,0-4.7Z"/>
      <path class="st0" d="M46.3,71.1c0,.9-.8,1.6-2,1.6s-2.1-.7-2.1-1.8.3-1.2.9-1.4c-.4-.2-.7-.7-.7-1.2,0-.9.7-1.6,1.8-1.6.9-.1,1.7.5,1.9,1.4,0,0,0,.1,0,.2,0,.5-.3,1-.8,1.3.6.2,1,.8,1,1.4h0ZM45.3,71c0-.3-.2-.6-.8-.8l-.6-.3c-.4.1-.8.5-.8,1,0,.6.4.9,1.1.9s1-.4,1.1-.8ZM43.3,68.3c0,.3.3.6.6.8l.5.2c.4-.1.7-.5.7-.9,0-.4-.3-.8-1-.8s-.9.4-.9.8h0Z"/>
      <path class="st0" d="M51.3,70.8c0,1.1-.9,1.9-1.9,1.9h-.1c-.6,0-1.2-.2-1.8-.4v-1c.5.3,1.1.5,1.7.5.5,0,1-.3,1-.9h0c0-.6-.4-1.1-1-1.1h-.1c-.3,0-.6,0-.9.3l-.7-.5v-2.8h3.5v.9h-2.5v1.4c.2-.1.5-.2.9-.2,1,0,1.8.8,1.8,1.7h0c0,.1,0,.1,0,.1Z"/>
      <path class="st0" d="M52.6,72.4v-1c.4.2.9.3,1.4.3.9,0,1.4-.5,1.4-1.8-.4.3-.8.5-1.3.5-1,0-1.8-.7-1.8-1.7v-.2c0-1.1.8-1.9,1.9-1.9h0c1.3,0,2.1,1,2.1,2.8s-.9,3.2-2.4,3.2-1,0-1.4-.3h0ZM55.4,69.1c0-1-.4-1.6-1.1-1.6-.6,0-1,.5-1,1.1,0,.5.5,1,1,1,.4,0,.8-.2,1.1-.5Z"/>
    </g>
  </g>
  <g>
    <path class="st0" d="M106.8,11.1h11.8c6.2,0,10.1,4.3,10.1,9.9s-4,10-10.2,10h-5.6v9.9h-6.3V11.1ZM117.4,25.5c2.8,0,4.7-1.6,4.7-4.5s-1.9-4.4-4.7-4.4h-4.3v8.9h4.3Z"/>
    <path class="st0" d="M130.5,30.4c0-6.2,4.6-11,11.3-11s11.3,4.8,11.3,11-4.6,11.1-11.3,11.1-11.3-4.8-11.3-11.1ZM147,30.4c.1-2.9-2-5.3-4.9-5.4-2.9-.1-5.3,2-5.4,4.9v.6c0,3.4,2.3,5.5,5.1,5.5s5.2-2,5.2-5.5h0Z"/>
    <path class="st0" d="M179.8,34.7v-9.7h-3.5v-4.9h3.7v-5.6l5.7-2.1v7.8h4.6v4.9h-4.6v8.3c0,1.9.9,2.8,2.9,2.8s1.1,0,1.7-.3v5.1c-1.2.3-2.4.5-3.6.5-3.8,0-7-1.9-7-6.8h0Z"/>
    <path class="st0" d="M192.9,30.3c0-6.5,4.7-10.9,10.6-10.9s10.3,4.6,10.3,11,0,1.4,0,1.7h-14.7c.1,2.8,2.8,4.4,5.4,4.4s5.6-.9,7.9-2.5v5.1c-2.5,1.6-5.5,2.5-8.5,2.3-6,0-10.9-4-10.9-11.2h0ZM207.9,28.2c0-2.2-2-3.9-4.2-3.8,0,0-.1,0-.2,0-2.2,0-4.1,1.6-4.3,3.8h8.7Z"/>
    <path class="st0" d="M222.5,30.4c-.2,2.8,2,5.3,4.8,5.4.2,0,.4,0,.7,0,2.2,0,4.3-.7,6.1-2v6.2c-2,1-4.2,1.5-6.4,1.4-6.5,0-11.3-4.5-11.3-11.1s4.8-11,11.3-11,4.4.5,6.4,1.4v6.1c-1.8-1.3-3.9-2-6.1-2-2.9-.2-5.3,2-5.5,4.8,0,.2,0,.4,0,.6Z"/>
    <path class="st0" d="M238.3,20.1h5.9v1.7c1.5-1.5,3.6-2.4,5.8-2.3,4-.1,7.5,3,7.6,7v14.4h-5.9v-12.4c.1-1.9-1.2-3.5-3.1-3.6-.1,0-.2,0-.4,0-1.6,0-3,.9-3.9,2.2v13.8h-5.9v-20.8h0Z"/>
    <path class="st0" d="M277.7,30.4c-.2,2.8,2,5.3,4.8,5.4.2,0,.5,0,.7,0,2.2,0,4.3-.7,6.1-2v6.2c-2,1-4.2,1.5-6.4,1.4-6.5,0-11.3-4.5-11.3-11.1s4.8-11,11.3-11,4.4.5,6.4,1.4v6.1c-1.8-1.3-3.9-2-6.1-2-2.9-.2-5.3,2-5.5,4.8,0,.2,0,.4,0,.6h0Z"/>
    <path class="st0" d="M292.3,30.4c0-6.2,4.6-11,11.3-11s11.3,4.8,11.3,11-4.6,11.1-11.3,11.1-11.3-4.8-11.3-11.1h0ZM308.8,30.4c.1-2.9-2-5.3-4.9-5.4-2.9-.1-5.3,2-5.4,4.9,0,.2,0,.4,0,.6,0,3.4,2.3,5.5,5.1,5.5s5.2-2,5.2-5.5h0Z"/>
    <path class="st0" d="M160.9,55.8h-9.5v-5.8h25.4v5.8h-9.5v23.9h-6.4v-23.9h0Z"/>
    <path class="st0" d="M173.6,69.2c0-6.2,4.6-11,11.3-11s11.3,4.8,11.3,11-4.6,11.1-11.3,11.1-11.3-4.8-11.3-11.1h0ZM190,69.2c.1-2.8-2-5.3-4.9-5.4-2.9-.2-5.3,2-5.4,4.9v.6c0,3.4,2.3,5.5,5.1,5.5s5.2-2,5.2-5.5h0Z"/>
    <path class="st0" d="M199.9,58.9h5.9v3c.9-2.3,3.1-3.8,5.6-3.7.5,0,1,0,1.5.1v6c-.7-.2-1.4-.2-2.2-.2-2.2,0-4.2,1.4-4.8,3.5v12h-5.9v-20.8h0Z"/>
    <path class="st0" d="M227.3,58.9h5.9v1.7c1.5-1.5,3.6-2.4,5.8-2.3,4-.2,7.4,3,7.6,7v14.4h-5.9v-12.3c.1-1.9-1.2-3.5-3.1-3.6-.1,0-.2,0-.4,0-1.6,0-3,.8-3.9,2.2v13.8h-5.9v-20.8h0Z"/>
    <path class="st0" d="M249.9,69.2c0-6.2,4.6-11,11.3-11s11.3,4.8,11.3,11-4.6,11.1-11.3,11.1-11.3-4.8-11.3-11.1ZM266.4,69.2c.1-2.8-2-5.3-4.9-5.4-2.9-.2-5.3,2-5.4,4.9,0,.2,0,.4,0,.6,0,3.4,2.3,5.5,5.1,5.5s5.2-2,5.2-5.5h0Z"/>
    <path class="st0" d="M156.8,12.3v28.5h5.9V10.1h0l-5.9,2.2h0Z"/>
    <path class="st0" d="M167.4,40.8h5.9v-20.8h-5.9v20.8ZM170.4,16c2,0,3.6-1.6,3.6-3.6s-1.6-3.6-3.6-3.6-3.6,1.6-3.6,3.6,1.6,3.6,3.6,3.6h0Z"/>
    <path class="st0" d="M262,40.8h5.9v-20.8h-5.9v20.8ZM265,16c2,0,3.6-1.6,3.6-3.6s-1.6-3.6-3.6-3.6-3.6,1.6-3.6,3.6h0c0,2,1.6,3.6,3.6,3.6Z"/>
    <path class="st0" d="M131.3,79.7h5.9v-20.8h-5.9v20.8ZM134.3,54.8c2,0,3.6-1.6,3.6-3.7s-1.6-3.7-3.6-3.7-3.6,1.6-3.6,3.7,1.6,3.7,3.6,3.7h0Z"/>
    <path class="st0" d="M216.4,79.7h5.9v-20.8h-5.9v20.8ZM219.4,54.8c2,0,3.6-1.6,3.6-3.7s-1.6-3.7-3.6-3.7-3.6,1.6-3.6,3.7,1.6,3.7,3.6,3.7h0Z"/>
    <path class="st0" d="M126.6,48.7l-5.9,2.2v9.3c-1.7-1.5-3.9-2.3-6.2-2.3-5.8,0-9.7,4.8-9.7,11s3.9,11.1,9.7,11.1c2.3,0,4.5-.8,6.2-2.3v1.8h5.9v-30.8h0ZM115.8,74.4c-2.7,0-4.8-2-4.8-5.5s2.1-5.4,4.8-5.4,4.7,1.9,4.8,5.1v.7c-.2,3.2-2.2,5.1-4.8,5.1h0Z"/>
  </g>
</svg>