<?xml version="1.0" encoding="UTF-8"?>
<svg id="Layer_2" data-name="Layer 2" xmlns="http://www.w3.org/2000/svg" viewBox="0 0 2770.32 422.86">
  <defs>
    <style>
      .cls-1 {
        fill: #fff;
      }
    </style>
  </defs>
  <g id="Layer_1-2" data-name="Layer 1">
    <g>
      <path class="cls-1" d="M2635.48,381.82c12.94-13.91,25.9-27.93,38.38-42.25,12.5-14.33,28.97-31.53,39.8-46.59,9.45-13.13-.04-18.72-12.94-20.61-40.33-5.93-89.58,2.86-130.58-.93-4.98-.46-10.68-1.99-6.63-7.67l49.38-55.73h-128.15c-11.2,10.36-21.43,22.18-31.69,33.59-43.49,48.37-85.36,98.28-129.11,146.39l-137.73.5c-17.52-4.18-8.88-16.98-1.41-26.37,5.72-7.19,13.52-14.51,19.66-21.62,6.83-7.89,13.21-16.28,19.67-24.49l61.76-.64,37.11-43.03-53.34-1.86.1-4.83,51.32-57.64h-122.39c-12.01,13.21-23.14,27.46-35.5,40.33-11.2,11.65-20.73,20.15-37.56,22.93l-441.5.05c-15.39,1.4-24.55.74-35.98,12.03-31.1,30.72-56.86,68.12-86.83,99.39-2.12,2.22-4.55,5.56-7.64,5.8l-112.39-.03c-12.83-1.49-1.81-15.98,2.44-21.6,18.16-24,43.87-47.36,63.83-70.57,2.55-2.96,13.23-14.87,12.99-17.72-.58-6.87-18.54-6.25-23.51-7.3l-308.95.25c-36.41,37.54-70.4,77.46-105.32,116.42-28.49,1.14-57.33,2.55-85.94,1.51-5.61-.21-12.65-.55-18.19-1.02-6.76-.57-29.75-2.32-32.43-8.92-.6-.87-.43-1.65-.3-2.61,1.12-7.8,13.52-22.73,18.83-29.24,21.28-26.06,46.89-48.5,67.17-75.37-148.5-1.16-297.15-1.16-445.77-.86-10.86,1.31-25.61,18.14-33.25,26.26-30.61,32.55-60.64,66.26-90.7,99.38-5.24,5.77-12.76,13.3-17.28,19.2-.74.97-1.85,1.21-1.43,2.89h152.15c22.88-24.22,42.49-51.57,65.26-75.85,18.2-19.41,24.48-27.24,52.77-28.83,24.26-1.36,48.66,2.18,72.94.95,7.88-2.86,12.97-9.35,18.29-15.31h70.55c.42,1.68-.69,1.92-1.43,2.89-5.12,6.68-14.22,14.56-20.18,21.1-21.36,23.44-42.04,47.51-63.66,70.73-8.95,14.2-4.83,22.34,11.81,24.35l385.68-.26c7.58-1.2,17.49-10.11,22.82-15.58,15.89-16.32,29.48-36.99,44.6-54.28,7.28-8.34,18.79-21.96,26.86-28.81,4.19-3.55,19.06-4.53,24.94-4.83,12.4-.61,31.11-1.02,43.25.05,1.55.13,4.59.29,4.32,2.35-.32,2.44-5.27,7.93-7.19,10.14-15.87,18.23-33.27,35.34-48.99,53.74-6.27,7.34-32.16,33.54-10.31,37.22l582.43.22c34.04-.97,53.26-34.62,73.91-57.6,13.39-14.91,27.41-29.31,40.15-44.79l2.1-1.28h113.75c-1.24,5.48-6.45,10.9-10.06,15.38-10.88,13.46-49.41,49.85-51.9,63.3-4.47,24.14,22.97,22.67,39.35,25.05l345.42-.25c26.4-26.38,49.25-56.37,75.06-83.33,13.91-14.54,22.12-24.64,43.32-27.72,8.52-1.23,35.82-2.55,43.01-.04,9.68,3.38-6.31,18.89-10.03,23.42-19.54,23.85-42.1,45.88-59.27,71.29-2.48,10.64,4.74,14.61,13.94,16.34,14.49,2.72,31.9.67,46.84,1.16,31.86,1.04,64.94,4.05,96.95,2,3.78-.24,12.25-.97,14.86-3.38l25.89-30.26h-73.43c-2.97,0-7.42-3.12-4.77-6.7ZM1847.89,320.89c-2.45,3.78-10.41,11.76-13.96,15.8-12.75,14.55-28.14,33.5-41.72,46.59-3.73,3.59-7.86,4.84-12.97,5.27-12.71,1.09-63.03,1.61-73.32-1.62-4.12-1.29-5.96-3.84-3.03-7.54,14.4-14.44,26.92-30.7,40.79-45.6,7.87-8.46,13.45-17.2,25.89-18.26,18.29-1.58,48.72-1.18,67.28-.02,4.04.26,8.02,1.11,11.95,1.98.3,1.47-.16,2.23-.91,3.4ZM1050.49,205.3c-15.39-6.63-35.74-8.58-52.37-7.54-15.07.95-33.98,4.81-47.14,12.39-23.84,13.73-18.64,32.09,4.75,41.91,27.15,11.4,73.63,9.9,99.24-5.12,23.63-13.87,18.79-31.63-4.48-41.64ZM998.15,55.08C968.17,11.03,863.44,4.06,814.5,1.63c-127.04-6.31-260.51,6.71-386.74,22.21C284.42,41.44,140.84,65.5,0,96.69l11.15,29.82c141.24-22.98,282.37-49.62,425.14-62.47,69.06-6.21,150.27-12.25,218.55-.66,18.72,3.18,60.15,12.91,67.2,32.64,4.85,13.59-3.43,19.94-13.32,27.36-70.76,53.1-158.31,51.45-242.72,52.94-3.24.06-21.6,3.66-18.21-3.8l63.85-72.96h-153.11L65.27,419.24h155.03l182.94-196.25c2.27-.95,4.65-1.34,7.09-1.54,43.54-3.71,92.3,2.8,136.39.08,137.24-6.87,294.05-9.29,413.7-84.51,29.43-18.51,63.52-44.04,37.73-81.94Z"/>
      <path class="cls-1" d="M2719.41,210.48c2.39,29.01,44.59,30.66,50.91,2.36v-10.56c-8.28-31.04-53.61-24.4-50.91,8.2ZM2748.64,230.03c-32.12,4.38-34.87-42.89-5.38-44.81,28.74-1.87,32.33,41.14,5.38,44.81Z"/>
      <path class="cls-1" d="M2635.48,381.82c12.94-13.91,25.9-27.93,38.38-42.25,12.5-14.33,28.97-31.53,39.8-46.59,9.45-13.13-.04-18.72-12.94-20.61-40.33-5.93-89.58,2.86-130.58-.93-4.98-.46-10.68-1.99-6.63-7.67l49.38-55.73h-128.15c-11.2,10.36-21.43,22.18-31.69,33.59-43.49,48.37-85.36,98.28-129.11,146.39l-137.73.5c-17.52-4.18-8.88-16.98-1.41-26.37,5.72-7.19,13.52-14.51,19.66-21.62,6.83-7.89,13.21-16.28,19.67-24.49l61.76-.64,37.11-43.03-53.34-1.86.1-4.83,51.32-57.64h-122.39c-12.01,13.21-23.14,27.46-35.5,40.33-11.2,11.65-20.73,20.15-37.56,22.93l-441.5.05c-15.39,1.4-24.55.74-35.98,12.03-31.1,30.72-56.86,68.12-86.83,99.39-2.12,2.22-4.55,5.56-7.64,5.8l-112.39-.03c-12.83-1.49-1.81-15.98,2.44-21.6,18.16-24,43.87-47.36,63.83-70.57,2.55-2.96,13.23-14.87,12.99-17.72-.58-6.87-18.54-6.25-23.51-7.3l-308.95.25c-36.41,37.54-70.4,77.46-105.32,116.42-28.49,1.14-57.33,2.55-85.94,1.51-5.61-.21-12.65-.55-18.19-1.02-6.76-.57-29.75-2.32-32.43-8.92-.6-.87-.43-1.65-.3-2.61,1.12-7.8,13.52-22.73,18.83-29.24,21.28-26.06,46.89-48.5,67.17-75.37-148.5-1.16-297.15-1.16-445.77-.86-10.86,1.31-25.61,18.14-33.25,26.26-30.61,32.55-60.64,66.26-90.7,99.38-5.24,5.77-12.76,13.3-17.28,19.2-.74.97-1.85,1.21-1.43,2.89h152.15c22.88-24.22,42.49-51.57,65.26-75.85,18.2-19.41,24.48-27.24,52.77-28.83,24.26-1.36,48.66,2.18,72.94.95,7.88-2.86,12.97-9.35,18.29-15.31h70.55c.42,1.68-.69,1.92-1.43,2.89-5.12,6.68-14.22,14.56-20.18,21.1-21.36,23.44-42.04,47.51-63.66,70.73-8.95,14.2-4.83,22.34,11.81,24.35l385.68-.26c7.58-1.2,17.49-10.11,22.82-15.58,15.89-16.32,29.48-36.99,44.6-54.28,7.28-8.34,18.79-21.96,26.86-28.81,4.19-3.55,19.06-4.53,24.94-4.83,12.4-.61,31.11-1.02,43.25.05,1.55.13,4.59.29,4.32,2.35-.32,2.44-5.27,7.93-7.19,10.14-15.87,18.23-33.27,35.34-48.99,53.74-6.27,7.34-32.16,33.54-10.31,37.22l582.43.22c34.04-.97,53.26-34.62,73.91-57.6,13.39-14.91,27.41-29.31,40.15-44.79l2.1-1.28h113.75c-1.24,5.48-6.45,10.9-10.06,15.38-10.88,13.46-49.41,49.85-51.9,63.3-4.47,24.14,22.97,22.67,39.35,25.05l345.42-.25c26.4-26.38,49.25-56.37,75.06-83.33,13.91-14.54,22.12-24.64,43.32-27.72,8.52-1.23,35.82-2.55,43.01-.04,9.68,3.38-6.31,18.89-10.03,23.42-19.54,23.85-42.1,45.88-59.27,71.29-2.48,10.64,4.74,14.61,13.94,16.34,14.49,2.72,31.9.67,46.84,1.16,31.86,1.04,64.94,4.05,96.95,2,3.78-.24,12.25-.97,14.86-3.38l25.89-30.26h-73.43c-2.97,0-7.42-3.12-4.77-6.7ZM1847.89,320.89c-2.45,3.78-10.41,11.76-13.96,15.8-12.75,14.55-28.14,33.5-41.72,46.59-3.73,3.59-7.86,4.84-12.97,5.27-12.71,1.09-63.03,1.61-73.32-1.62-4.12-1.29-5.96-3.84-3.03-7.54,14.4-14.44,26.92-30.7,40.79-45.6,7.87-8.46,13.45-17.2,25.89-18.26,18.29-1.58,48.72-1.18,67.28-.02,4.04.26,8.02,1.11,11.95,1.98.3,1.47-.16,2.23-.91,3.4Z"/>
      <path class="cls-1" d="M65.28,419.24L358.53,99.56h153.11l-63.84,72.96c-3.39,7.45,14.96,3.86,18.21,3.8,84.41-1.49,171.96.16,242.72-52.94,9.89-7.42,18.17-13.77,13.32-27.36-7.05-19.73-48.48-29.46-67.2-32.64-68.28-11.59-149.49-5.55-218.55.66-142.77,12.85-283.9,39.48-425.14,62.46L0,96.69c140.84-31.2,284.42-55.25,427.76-72.85C553.99,8.34,687.46-4.68,814.5,1.63c48.94,2.43,153.67,9.4,183.65,53.45,25.79,37.9-8.3,63.43-37.73,81.94-119.65,75.22-276.46,77.64-413.7,84.51-44.09,2.72-92.85-3.78-136.39-.08-2.44.21-4.82.6-7.09,1.55l-182.94,196.25H65.28Z"/>
      <path class="cls-1" d="M998.12,197.76c16.64-1.04,36.99.91,52.38,7.53,23.26,10.01,28.11,27.77,4.47,41.64-25.6,15.03-72.08,16.52-99.23,5.13-23.4-9.82-28.6-28.19-4.75-41.92,13.16-7.58,32.06-11.44,47.13-12.38Z"/>
      <path class="cls-1" d="M2749.68,193.64c-4.29-.76-10.35.55-14.88,0v27.84h4.81v-10.56c9.41-1.06,13.09.52,12.48,10.56h3.82c.86-6.07-.67-9.29-4.79-13.42,7.85-2.08,6.16-13.08-1.44-14.42ZM2739.6,207.08v-10.56c16.49-2.21,16.66,13.21,0,10.56Z"/>
    </g>
  </g>
</svg>